500-italic.ufo
<glyph name="exclam" format="2">
  <advance width="307"/>
  <unicode hex="0021"/>
  <outline>
    <contour>
      <point x="180" y="700" type="line"/>
      <point x="314" y="700" type="line"/>
      <point x="206" y="212" type="line"/>
      <point x="122" y="212" type="line"/>
    </contour>
    <contour>
      <point x="65" y="49" type="curve" smooth="yes"/>
      <point x="65" y="87"/>
      <point x="96" y="116"/>
      <point x="136" y="116" type="curve" smooth="yes"/>
      <point x="176" y="116"/>
      <point x="206" y="87"/>
      <point x="206" y="49" type="curve" smooth="yes"/>
      <point x="206" y="11"/>
      <point x="176" y="-19"/>
      <point x="136" y="-19" type="curve" smooth="yes"/>
      <point x="96" y="-19"/>
      <point x="65" y="11"/>
    </contour>
  </outline>
</glyph>
<glyph name="quotedbl" format="2">
  <advance width="471"/>
  <unicode hex="0022"/>
  <outline>
    <contour>
      <point x="206" y="700" type="line"/>
      <point x="328" y="700" type="line"/>
      <point x="186" y="393" type="line"/>
      <point x="112" y="392" type="line"/>
    </contour>
    <contour>
      <point x="392" y="700" type="line"/>
      <point x="514" y="700" type="line"/>
      <point x="372" y="393" type="line"/>
      <point x="300" y="392" type="line"/>
    </contour>
  </outline>
</glyph>
<glyph name="numbersign" format="2">
  <advance width="610"/>
  <unicode hex="0023"/>
  <outline>
    <contour>
      <point x="119" y="430" type="line"/>
      <point x="133" y="516" type="line"/>
      <point x="639" y="516" type="line"/>
      <point x="624" y="429" type="line"/>
      <point x="486" y="429" type="line"/>
      <point x="466" y="431" type="line"/>
      <point x="275" y="431" type="line"/>
      <point x="256" y="429" type="line"/>
    </contour>
    <contour>
      <point x="38" y="189" type="line"/>
      <point x="53" y="276" type="line"/>
      <point x="182" y="276" type="line"/>
      <point x="202" y="274" type="line"/>
      <point x="408" y="274" type="line"/>
      <point x="432" y="276" type="line"/>
      <point x="559" y="276" type="line"/>
      <point x="545" y="189" type="line"/>
    </contour>
    <contour>
      <point x="539" y="700" type="line"/>
      <point x="638" y="700" type="line"/>
      <point x="352" y="0" type="line"/>
      <point x="254" y="0" type="line"/>
      <point x="346" y="226" type="line"/>
      <point x="358" y="248" type="line"/>
      <point x="444" y="460" type="line"/>
      <point x="450" y="482" type="line"/>
    </contour>
    <contour>
      <point x="323" y="700" type="line"/>
      <point x="422" y="700" type="line"/>
      <point x="334" y="484" type="line"/>
      <point x="322" y="462" type="line"/>
      <point x="235" y="247" type="line"/>
      <point x="230" y="226" type="line"/>
      <point x="137" y="0" type="line"/>
      <point x="40" y="0" type="line"/>
    </contour>
  </outline>
</glyph>
<glyph name="dollar" format="2">
  <advance width="578"/>
  <unicode hex="0024"/>
  <outline>
    <contour>
      <point x="360" y="818" type="line"/>
      <point x="454" y="818" type="line"/>
      <point x="426" y="656" type="line"/>
      <point x="338" y="656" type="line"/>
    </contour>
    <contour>
      <point x="246" y="54" type="line"/>
      <point x="333" y="54" type="line"/>
      <point x="310" y="-112" type="line"/>
      <point x="217" y="-112" type="line"/>
    </contour>
    <contour>
      <point x="494" y="504" type="line"/>
      <point x="472" y="558"/>
      <point x="442" y="609"/>
      <point x="378" y="610" type="curve" smooth="yes"/>
      <point x="317" y="611"/>
      <point x="273" y="579"/>
      <point x="265" y="528" type="curve" smooth="yes"/>
      <point x="253" y="458"/>
      <point x="331" y="431"/>
      <point x="399" y="403" type="curve" smooth="yes"/>
      <point x="483" y="367"/>
      <point x="555" y="302"/>
      <point x="542" y="192" type="curve" smooth="yes"/>
      <point x="526" y="69"/>
      <point x="422" y="-10"/>
      <point x="286" y="-10" type="curve" smooth="yes"/>
      <point x="169" y="-10"/>
      <point x="87" y="74"/>
      <point x="54" y="178" type="curve"/>
      <point x="150" y="236" type="line"/>
      <point x="179" y="156"/>
      <point x="218" y="92"/>
      <point x="300" y="92" type="curve" smooth="yes"/>
      <point x="365" y="92"/>
      <point x="410" y="130"/>
      <point x="420" y="188" type="curve" smooth="yes"/>
      <point x="432" y="262"/>
      <point x="360" y="296"/>
      <point x="292" y="324" type="curve" smooth="yes"/>
      <point x="215" y="357"/>
      <point x="131" y="418"/>
      <point x="145" y="532" type="curve" smooth="yes"/>
      <point x="161" y="634"/>
      <point x="268" y="710"/>
      <point x="384" y="710" type="curve" smooth="yes"/>
      <point x="495" y="710"/>
      <point x="560" y="641"/>
      <point x="590" y="560" type="curve"/>
    </contour>
  </outline>
</glyph>
<glyph name="percent" format="2">
  <advance width="793"/>
  <unicode hex="0025"/>
  <outline>
    <contour>
      <point x="94" y="544" type="curve" smooth="yes"/>
      <point x="108" y="636"/>
      <point x="188" y="714"/>
      <point x="286" y="714" type="curve" smooth="yes"/>
      <point x="383" y="714"/>
      <point x="439" y="633"/>
      <point x="427" y="544" type="curve" smooth="yes"/>
      <point x="413" y="452"/>
      <point x="333" y="374"/>
      <point x="235" y="374" type="curve" smooth="yes"/>
      <point x="138" y="374"/>
      <point x="82" y="455"/>
    </contour>
    <contour>
      <point x="184" y="544" type="curve" smooth="yes"/>
      <point x="178" y="504"/>
      <point x="199" y="461"/>
      <point x="245" y="460" type="curve" smooth="yes"/>
      <point x="291" y="459"/>
      <point x="329" y="502"/>
      <point x="336" y="544" type="curve" smooth="yes"/>
      <point x="342" y="584"/>
      <point x="322" y="625"/>
      <point x="276" y="626" type="curve" smooth="yes"/>
      <point x="230" y="627"/>
      <point x="191" y="586"/>
    </contour>
    <contour>
      <point x="433" y="156" type="curve" smooth="yes"/>
      <point x="447" y="248"/>
      <point x="526" y="326"/>
      <point x="624" y="326" type="curve" smooth="yes"/>
      <point x="721" y="326"/>
      <point x="778" y="245"/>
      <point x="766" y="156" type="curve" smooth="yes"/>
      <point x="752" y="64"/>
      <point x="672" y="-14"/>
      <point x="574" y="-14" type="curve" smooth="yes"/>
      <point x="477" y="-14"/>
      <point x="421" y="67"/>
    </contour>
    <contour>
      <point x="524" y="156" type="curve" smooth="yes"/>
      <point x="518" y="116"/>
      <point x="538" y="75"/>
      <point x="584" y="74" type="curve" smooth="yes"/>
      <point x="630" y="73"/>
      <point x="667" y="112"/>
      <point x="675" y="156" type="curve" smooth="yes"/>
      <point x="681" y="196"/>
      <point x="662" y="239"/>
      <point x="616" y="240" type="curve" smooth="yes"/>
      <point x="570" y="241"/>
      <point x="532" y="200"/>
    </contour>
    <contour>
      <point x="670" y="700" type="line"/>
      <point x="780" y="700" type="line"/>
      <point x="189" y="0" type="line"/>
      <point x="81" y="0" type="line"/>
    </contour>
  </outline>
</glyph>
<glyph name="ampersand" format="2">
  <advance width="684"/>
  <unicode hex="0026"/>
  <outline>
    <contour>
      <point x="259" y="379" type="line" smooth="yes"/>
      <point x="225" y="428"/>
      <point x="176" y="482"/>
      <point x="184" y="552" type="curve" smooth="yes"/>
      <point x="196" y="646"/>
      <point x="285" y="712"/>
      <point x="390" y="712" type="curve" smooth="yes"/>
      <point x="492" y="712"/>
      <point x="557" y="639"/>
      <point x="545" y="552" type="curve" smooth="yes"/>
      <point x="533" y="467"/>
      <point x="456" y="412"/>
      <point x="366" y="360" type="curve" smooth="yes"/>
      <point x="292" y="318"/>
      <point x="178" y="286"/>
      <point x="164" y="193" type="curve" smooth="yes"/>
      <point x="154" y="129"/>
      <point x="200" y="86"/>
      <point x="268" y="84" type="curve" smooth="yes"/>
      <point x="404" y="80"/>
      <point x="525" y="214"/>
      <point x="617" y="325" type="curve"/>
      <point x="688" y="270" type="line"/>
      <point x="578" y="141"/>
      <point x="438" y="-13"/>
      <point x="250" y="-11" type="curve" smooth="yes"/>
      <point x="134" y="-10"/>
      <point x="33" y="67"/>
      <point x="49" y="185" type="curve" smooth="yes"/>
      <point x="67" y="327"/>
      <point x="215" y="374"/>
      <point x="305" y="418" type="curve" smooth="yes"/>
      <point x="369" y="452"/>
      <point x="433" y="493"/>
      <point x="442" y="546" type="curve" smooth="yes"/>
      <point x="448" y="586"/>
      <point x="426" y="621"/>
      <point x="380" y="622" type="curve" smooth="yes"/>
      <point x="333" y="623"/>
      <point x="296" y="589"/>
      <point x="290" y="547" type="curve" smooth="yes"/>
      <point x="282" y="501"/>
      <point x="319" y="460"/>
      <point x="353" y="415" type="curve" smooth="yes"/>
      <point x="648" y="0" type="line"/>
      <point x="529" y="0" type="line"/>
    </contour>
  </outline>
</glyph>
<glyph name="quotesingle" format="2">
  <advance width="284"/>
  <unicode hex="0027"/>
  <outline>
    <contour>
      <point x="206" y="700" type="line"/>
      <point x="328" y="700" type="line"/>
      <point x="186" y="393" type="line"/>
      <point x="112" y="392" type="line"/>
    </contour>
  </outline>
</glyph>
<glyph name="parenleft" format="2">
  <advance width="312"/>
  <unicode hex="0028"/>
  <outline>
    <contour>
      <point x="294" y="779" type="curve"/>
      <point x="394" y="779" type="line"/>
      <point x="306" y="629"/>
      <point x="246" y="462"/>
      <point x="218" y="290" type="curve" smooth="yes"/>
      <point x="194" y="126"/>
      <point x="197" y="-42"/>
      <point x="243" y="-200" type="curve"/>
      <point x="146" y="-200" type="line"/>
      <point x="92" y="-42"/>
      <point x="82" y="126"/>
      <point x="106" y="290" type="curve" smooth="yes"/>
      <point x="133" y="464"/>
      <point x="196" y="632"/>
    </contour>
  </outline>
</glyph>
<glyph name="parenright" format="2">
  <advance width="312"/>
  <unicode hex="0029"/>
  <outline>
    <contour>
      <point x="74" y="-199" type="curve"/>
      <point x="-25" y="-199" type="line"/>
      <point x="63" y="-49"/>
      <point x="122" y="118"/>
      <point x="150" y="290" type="curve" smooth="yes"/>
      <point x="174" y="454"/>
      <point x="171" y="622"/>
      <point x="125" y="780" type="curve"/>
      <point x="222" y="780" type="line"/>
      <point x="276" y="622"/>
      <point x="286" y="454"/>
      <point x="262" y="290" type="curve" smooth="yes"/>
      <point x="235" y="116"/>
      <point x="172" y="-52"/>
    </contour>
  </outline>
</glyph>
<glyph name="asterisk" format="2">
  <advance width="574"/>
  <unicode hex="002A"/>
  <outline>
    <contour>
      <point x="542" y="600" type="line"/>
      <point x="556" y="508" type="line"/>
      <point x="348" y="460" type="line"/>
      <point x="338" y="518" type="line"/>
    </contour>
    <contour>
      <point x="479" y="345" type="line"/>
      <point x="392" y="288" type="line"/>
      <point x="317" y="473" type="line"/>
      <point x="368" y="506" type="line"/>
    </contour>
    <contour>
      <point x="230" y="290" type="line"/>
      <point x="160" y="350" type="line"/>
      <point x="321" y="506" type="line"/>
      <point x="364" y="469" type="line"/>
    </contour>
    <contour>
      <point x="137" y="509" type="line"/>
      <point x="180" y="600" type="line"/>
      <point x="359" y="516" type="line"/>
      <point x="332" y="461" type="line"/>
    </contour>
    <contour>
      <point x="332" y="700" type="line"/>
      <point x="428" y="700" type="line"/>
      <point x="374" y="490" type="line"/>
      <point x="314" y="490" type="line"/>
    </contour>
  </outline>
</glyph>
<glyph name="plus" format="2">
  <advance width="619"/>
  <unicode hex="002B"/>
  <outline>
    <contour>
      <point x="71" y="208" type="line"/>
      <point x="89" y="314" type="line"/>
      <point x="585" y="314" type="line"/>
      <point x="567" y="207" type="line"/>
    </contour>
    <contour>
      <point x="314" y="516" type="line"/>
      <point x="428" y="516" type="line"/>
      <point x="339" y="5" type="line"/>
      <point x="228" y="6" type="line"/>
    </contour>
  </outline>
</glyph>
<glyph name="hyphen" format="2">
  <advance width="207"/>
  <unicode hex="002D"/>
  <outline>
    <contour>
      <point x="10" y="189" type="line"/>
      <point x="26" y="286" type="line"/>
      <point x="228" y="286" type="line"/>
      <point x="210" y="189" type="line"/>
    </contour>
  </outline>
</glyph>
<glyph name="period" format="2">
  <advance width="299"/>
  <unicode hex="002E"/>
  <outline>
    <contour>
      <point x="62" y="51" type="curve" smooth="yes"/>
      <point x="62" y="89"/>
      <point x="92" y="120"/>
      <point x="132" y="120" type="curve" smooth="yes"/>
      <point x="172" y="120"/>
      <point x="203" y="89"/>
      <point x="203" y="51" type="curve" smooth="yes"/>
      <point x="203" y="13"/>
      <point x="172" y="-18"/>
      <point x="132" y="-18" type="curve" smooth="yes"/>
      <point x="92" y="-18"/>
      <point x="62" y="13"/>
    </contour>
  </outline>
</glyph>
<glyph name="slash" format="2">
  <advance width="535"/>
  <unicode hex="002F"/>
  <outline>
    <contour>
      <point x="508" y="700" type="line"/>
      <point x="617" y="700" type="line"/>
      <point x="69" y="-150" type="line"/>
      <point x="-40" y="-149" type="line"/>
    </contour>
  </outline>
</glyph>
<glyph name="zero" format="2">
  <advance width="605"/>
  <unicode hex="0030"/>
  <outline>
    <contour>
      <point x="185" y="350" type="curve" smooth="yes"/>
      <point x="173" y="239"/>
      <point x="178" y="98"/>
      <point x="288" y="96" type="curve" smooth="yes"/>
      <point x="398" y="94"/>
      <point x="469" y="226"/>
      <point x="487" y="350" type="curve" smooth="yes"/>
      <point x="499" y="461"/>
      <point x="492" y="602"/>
      <point x="382" y="604" type="curve" smooth="yes"/>
      <point x="272" y="606"/>
      <point x="203" y="474"/>
    </contour>
    <contour>
      <point x="70" y="350" type="curve" smooth="yes"/>
      <point x="96" y="538"/>
      <point x="218" y="711"/>
      <point x="394" y="711" type="curve" smooth="yes"/>
      <point x="573" y="711"/>
      <point x="624" y="526"/>
      <point x="602" y="350" type="curve" smooth="yes"/>
      <point x="576" y="161"/>
      <point x="456" y="-11"/>
      <point x="278" y="-11" type="curve" smooth="yes"/>
      <point x="100" y="-11"/>
      <point x="48" y="174"/>
    </contour>
  </outline>
</glyph>
<glyph name="one" format="2">
  <advance width="459"/>
  <unicode hex="0031"/>
  <outline>
    <contour>
      <point x="135" y="536" type="line"/>
      <point x="156" y="649" type="line"/>
      <point x="440" y="712" type="line"/>
      <point x="316" y="0" type="line"/>
      <point x="202" y="0" type="line"/>
      <point x="301" y="580" type="line"/>
    </contour>
  </outline>
</glyph>
<glyph name="two" format="2">
  <advance width="585"/>
  <unicode hex="0032"/>
  <outline>
    <contour>
      <point x="1" y="0" type="line"/>
      <point x="366" y="341" type="line" smooth="yes"/>
      <point x="416" y="388"/>
      <point x="460" y="436"/>
      <point x="470" y="496" type="curve" smooth="yes"/>
      <point x="478" y="551"/>
      <point x="443" y="605"/>
      <point x="374" y="606" type="curve" smooth="yes"/>
      <point x="290" y="608"/>
      <point x="240" y="534"/>
      <point x="224" y="452" type="curve"/>
      <point x="108" y="452" type="line"/>
      <point x="132" y="594"/>
      <point x="229" y="712"/>
      <point x="386" y="712" type="curve" smooth="yes"/>
      <point x="525" y="712"/>
      <point x="606" y="606"/>
      <point x="590" y="502" type="curve" smooth="yes"/>
      <point x="579" y="425"/>
      <point x="528" y="357"/>
      <point x="468" y="305" type="curve" smooth="yes"/>
      <point x="246" y="110" type="line"/>
      <point x="539" y="110" type="line"/>
      <point x="522" y="0" type="line"/>
    </contour>
  </outline>
</glyph>
<glyph name="three" format="2">
  <advance width="558"/>
  <unicode hex="0033"/>
  <outline>
    <contour>
      <point x="290" y="344" type="curve"/>
      <point x="298" y="406" type="line"/>
      <point x="374" y="412"/>
      <point x="437" y="450"/>
      <point x="448" y="516" type="curve" smooth="yes"/>
      <point x="455" y="567"/>
      <point x="432" y="609"/>
      <point x="374" y="610" type="curve" smooth="yes"/>
      <point x="313" y="611"/>
      <point x="268" y="566"/>
      <point x="254" y="514" type="curve"/>
      <point x="144" y="515" type="line"/>
      <point x="166" y="627"/>
      <point x="256" y="711"/>
      <point x="382" y="711" type="curve" smooth="yes"/>
      <point x="502" y="711"/>
      <point x="581" y="626"/>
      <point x="566" y="522" type="curve" smooth="yes"/>
      <point x="548" y="404"/>
      <point x="423" y="348"/>
    </contour>
    <contour>
      <point x="272" y="-12" type="curve" smooth="yes"/>
      <point x="134" y="-12"/>
      <point x="56" y="82"/>
      <point x="66" y="200" type="curve"/>
      <point x="182" y="200" type="line"/>
      <point x="178" y="136"/>
      <point x="214" y="91"/>
      <point x="284" y="90" type="curve" smooth="yes"/>
      <point x="352" y="90"/>
      <point x="409" y="134"/>
      <point x="419" y="200" type="curve" smooth="yes"/>
      <point x="433" y="279"/>
      <point x="367" y="313"/>
      <point x="286" y="317" type="curve"/>
      <point x="296" y="384" type="line"/>
      <point x="432" y="380"/>
      <point x="554" y="326"/>
      <point x="534" y="186" type="curve" smooth="yes"/>
      <point x="517" y="66"/>
      <point x="405" y="-12"/>
    </contour>
  </outline>
</glyph>
<glyph name="four" format="2">
  <advance width="610"/>
  <unicode hex="0034"/>
  <outline>
    <contour>
      <point x="12" y="135" type="line"/>
      <point x="490" y="699" type="line"/>
      <point x="563" y="700" type="line"/>
      <point x="444" y="0" type="line"/>
      <point x="324" y="0" type="line"/>
      <point x="354" y="176" type="line"/>
      <point x="363" y="187" type="line"/>
      <point x="414" y="482" type="line"/>
      <point x="200" y="228" type="line"/>
      <point x="430" y="228" type="line"/>
      <point x="448" y="236" type="line"/>
      <point x="591" y="236" type="line"/>
      <point x="574" y="134" type="line"/>
    </contour>
  </outline>
</glyph>
<glyph name="five" format="2">
  <advance width="578"/>
  <unicode hex="0035"/>
  <outline>
    <contour>
      <point x="558" y="228" type="curve" smooth="yes"/>
      <point x="538" y="79"/>
      <point x="412" y="-11"/>
      <point x="273" y="-11" type="curve" smooth="yes"/>
      <point x="159" y="-11"/>
      <point x="84" y="42"/>
      <point x="34" y="114" type="curve"/>
      <point x="112" y="198" type="line"/>
      <point x="146" y="144"/>
      <point x="201" y="99"/>
      <point x="268" y="99" type="curve" smooth="yes"/>
      <point x="356" y="99"/>
      <point x="424" y="153"/>
      <point x="436" y="235" type="curve" smooth="yes"/>
      <point x="448" y="313"/>
      <point x="394" y="368"/>
      <point x="316" y="370" type="curve" smooth="yes"/>
      <point x="250" y="372"/>
      <point x="190" y="352"/>
      <point x="124" y="316" type="curve"/>
      <point x="274" y="700" type="line"/>
      <point x="626" y="700" type="line"/>
      <point x="609" y="596" type="line"/>
      <point x="348" y="596" type="line"/>
      <point x="276" y="436" type="line"/>
      <point x="311" y="451"/>
      <point x="348" y="460"/>
      <point x="386" y="460" type="curve" smooth="yes"/>
      <point x="508" y="459"/>
      <point x="573" y="352"/>
    </contour>
  </outline>
</glyph>
<glyph name="six" format="2">
  <advance width="594"/>
  <unicode hex="0036"/>
  <outline>
    <contour>
      <point x="180" y="236" type="curve" smooth="yes"/>
      <point x="168" y="160"/>
      <point x="212" y="92"/>
      <point x="292" y="92" type="curve" smooth="yes"/>
      <point x="374" y="92"/>
      <point x="442" y="156"/>
      <point x="454" y="236" type="curve" smooth="yes"/>
      <point x="466" y="312"/>
      <point x="422" y="382"/>
      <point x="342" y="382" type="curve" smooth="yes"/>
      <point x="260" y="382"/>
      <point x="192" y="316"/>
    </contour>
    <contour>
      <point x="410" y="698" type="line"/>
      <point x="560" y="698" type="line"/>
      <point x="302" y="425" type="line"/>
      <point x="282" y="423" type="line"/>
      <point x="314" y="451"/>
      <point x="350" y="462"/>
      <point x="394" y="462" type="curve" smooth="yes"/>
      <point x="510" y="461"/>
      <point x="582" y="354"/>
      <point x="568" y="236" type="curve" smooth="yes"/>
      <point x="549" y="90"/>
      <point x="426" y="-12"/>
      <point x="282" y="-12" type="curve" smooth="yes"/>
      <point x="140" y="-12"/>
      <point x="49" y="94"/>
      <point x="67" y="236" type="curve" smooth="yes"/>
      <point x="75" y="300"/>
      <point x="108" y="355"/>
      <point x="148" y="401" type="curve" smooth="yes"/>
    </contour>
  </outline>
</glyph>
<glyph name="seven" format="2">
  <advance width="539"/>
  <unicode hex="0037"/>
  <outline>
    <contour>
      <point x="101" y="589" type="line"/>
      <point x="119" y="700" type="line"/>
      <point x="630" y="700" type="line"/>
      <point x="194" y="0" type="line"/>
      <point x="67" y="0" type="line"/>
      <point x="437" y="588" type="line"/>
    </contour>
  </outline>
</glyph>
<glyph name="eight" format="2">
  <advance width="560"/>
  <unicode hex="0038"/>
  <outline>
    <contour>
      <point x="139" y="532" type="curve" smooth="yes"/>
      <point x="155" y="638"/>
      <point x="258" y="712"/>
      <point x="371" y="712" type="curve" smooth="yes"/>
      <point x="481" y="712"/>
      <point x="565" y="634"/>
      <point x="550" y="530" type="curve" smooth="yes"/>
      <point x="534" y="418"/>
      <point x="429" y="350"/>
      <point x="317" y="350" type="curve" smooth="yes"/>
      <point x="207" y="350"/>
      <point x="123" y="421"/>
    </contour>
    <contour>
      <point x="247" y="518" type="curve" smooth="yes"/>
      <point x="239" y="467"/>
      <point x="269" y="421"/>
      <point x="322" y="420" type="curve" smooth="yes"/>
      <point x="378" y="419"/>
      <point x="429" y="465"/>
      <point x="438" y="519" type="curve" smooth="yes"/>
      <point x="446" y="570"/>
      <point x="418" y="617"/>
      <point x="362" y="618" type="curve" smooth="yes"/>
      <point x="304" y="619"/>
      <point x="256" y="572"/>
    </contour>
    <contour>
      <point x="56" y="190" type="curve" smooth="yes"/>
      <point x="74" y="318"/>
      <point x="198" y="392"/>
      <point x="316" y="392" type="curve" smooth="yes"/>
      <point x="431" y="392"/>
      <point x="534" y="316"/>
      <point x="516" y="190" type="curve" smooth="yes"/>
      <point x="498" y="73"/>
      <point x="380" y="-12"/>
      <point x="255" y="-12" type="curve" smooth="yes"/>
      <point x="134" y="-12"/>
      <point x="39" y="75"/>
    </contour>
    <contour>
      <point x="173" y="206" type="curve" smooth="yes"/>
      <point x="163" y="140"/>
      <point x="202" y="89"/>
      <point x="265" y="88" type="curve" smooth="yes"/>
      <point x="331" y="87"/>
      <point x="394" y="138"/>
      <point x="405" y="206" type="curve" smooth="yes"/>
      <point x="414" y="266"/>
      <point x="374" y="323"/>
      <point x="312" y="324" type="curve" smooth="yes"/>
      <point x="247" y="325"/>
      <point x="184" y="268"/>
    </contour>
  </outline>
</glyph>
<glyph name="nine" format="2">
  <advance width="594"/>
  <unicode hex="0039"/>
  <outline>
    <contour>
      <point x="489" y="464" type="curve" smooth="yes"/>
      <point x="501" y="540"/>
      <point x="458" y="608"/>
      <point x="378" y="608" type="curve" smooth="yes"/>
      <point x="296" y="608"/>
      <point x="227" y="544"/>
      <point x="215" y="464" type="curve" smooth="yes"/>
      <point x="203" y="388"/>
      <point x="246" y="318"/>
      <point x="326" y="318" type="curve" smooth="yes"/>
      <point x="408" y="318"/>
      <point x="477" y="384"/>
    </contour>
    <contour>
      <point x="260" y="2" type="line"/>
      <point x="108" y="2" type="line"/>
      <point x="367" y="275" type="line"/>
      <point x="387" y="277" type="line"/>
      <point x="355" y="249"/>
      <point x="320" y="238"/>
      <point x="276" y="238" type="curve" smooth="yes"/>
      <point x="160" y="239"/>
      <point x="88" y="346"/>
      <point x="102" y="464" type="curve" smooth="yes"/>
      <point x="121" y="610"/>
      <point x="243" y="712"/>
      <point x="387" y="712" type="curve" smooth="yes"/>
      <point x="529" y="712"/>
      <point x="620" y="606"/>
      <point x="602" y="464" type="curve" smooth="yes"/>
      <point x="594" y="400"/>
      <point x="560" y="345"/>
      <point x="520" y="299" type="curve" smooth="yes"/>
    </contour>
  </outline>
</glyph>
<glyph name="colon" format="2">
  <advance width="299"/>
  <unicode hex="003A"/>
  <outline>
    <contour>
      <point x="61" y="51" type="curve" smooth="yes"/>
      <point x="61" y="89"/>
      <point x="91" y="120"/>
      <point x="131" y="120" type="curve" smooth="yes"/>
      <point x="171" y="120"/>
      <point x="202" y="89"/>
      <point x="202" y="51" type="curve" smooth="yes"/>
      <point x="202" y="13"/>
      <point x="171" y="-18"/>
      <point x="131" y="-18" type="curve" smooth="yes"/>
      <point x="91" y="-18"/>
      <point x="61" y="13"/>
    </contour>
    <contour>
      <point x="126" y="428" type="curve" smooth="yes"/>
      <point x="126" y="466"/>
      <point x="156" y="498"/>
      <point x="196" y="498" type="curve" smooth="yes"/>
      <point x="236" y="498"/>
      <point x="266" y="466"/>
      <point x="266" y="428" type="curve" smooth="yes"/>
      <point x="266" y="390"/>
      <point x="236" y="359"/>
      <point x="196" y="359" type="curve" smooth="yes"/>
      <point x="156" y="359"/>
      <point x="126" y="390"/>
    </contour>
  </outline>
</glyph>
<glyph name="semicolon" format="2">
  <advance width="344"/>
  <unicode hex="003B"/>
  <outline>
    <contour>
      <point x="163" y="426" type="curve" smooth="yes"/>
      <point x="163" y="464"/>
      <point x="193" y="496"/>
      <point x="233" y="496" type="curve" smooth="yes"/>
      <point x="273" y="496"/>
      <point x="304" y="464"/>
      <point x="304" y="426" type="curve" smooth="yes"/>
      <point x="304" y="388"/>
      <point x="273" y="356"/>
      <point x="233" y="356" type="curve" smooth="yes"/>
      <point x="193" y="356"/>
      <point x="163" y="388"/>
    </contour>
    <contour>
      <point x="131" y="109" type="line"/>
      <point x="235" y="77" type="line"/>
      <point x="80" y="-170" type="line"/>
      <point x="2" y="-148" type="line"/>
    </contour>
  </outline>
</glyph>
<glyph name="equal" format="2">
  <advance width="600"/>
  <unicode hex="003D"/>
  <outline>
    <contour>
      <point x="52" y="118" type="line"/>
      <point x="68" y="215" type="line"/>
      <point x="553" y="215" type="line"/>
      <point x="536" y="118" type="line"/>
    </contour>
    <contour>
      <point x="82" y="290" type="line"/>
      <point x="98" y="387" type="line"/>
      <point x="582" y="387" type="line"/>
      <point x="566" y="290" type="line"/>
    </contour>
  </outline>
</glyph>
<glyph name="greater" format="2">
  <advance width="621"/>
  <unicode hex="003E"/>
  <outline>
    <contour>
      <point x="414" y="260" type="line"/>
      <point x="104" y="408" type="line"/>
      <point x="122" y="510" type="line"/>
      <point x="582" y="292" type="line"/>
      <point x="570" y="226" type="line"/>
      <point x="35" y="8" type="line"/>
      <point x="54" y="119" type="line"/>
    </contour>
  </outline>
</glyph>
<glyph name="question" format="2">
  <advance width="567"/>
  <unicode hex="003F"/>
  <outline>
    <contour>
      <point x="464" y="500" type="curve" smooth="yes"/>
      <point x="476" y="570"/>
      <point x="434" y="616"/>
      <point x="358" y="616" type="curve" smooth="yes"/>
      <point x="292" y="617"/>
      <point x="238" y="580"/>
      <point x="198" y="534" type="curve"/>
      <point x="126" y="593" type="line"/>
      <point x="190" y="663"/>
      <point x="267" y="715"/>
      <point x="377" y="714" type="curve" smooth="yes"/>
      <point x="500" y="713"/>
      <point x="589" y="620"/>
      <point x="571" y="500" type="curve" smooth="yes"/>
      <point x="552" y="382"/>
      <point x="442" y="306"/>
      <point x="330" y="288" type="curve"/>
      <point x="305" y="182" type="line"/>
      <point x="220" y="182" type="line"/>
      <point x="230" y="359" type="line"/>
      <point x="256" y="359" type="line"/>
      <point x="360" y="361"/>
      <point x="448" y="422"/>
    </contour>
    <contour>
      <point x="170" y="48" type="curve" smooth="yes"/>
      <point x="170" y="84"/>
      <point x="201" y="114"/>
      <point x="240" y="114" type="curve" smooth="yes"/>
      <point x="280" y="114"/>
      <point x="309" y="83"/>
      <point x="309" y="48" type="curve" smooth="yes"/>
      <point x="309" y="12"/>
      <point x="279" y="-18"/>
      <point x="240" y="-18" type="curve" smooth="yes"/>
      <point x="200" y="-18"/>
      <point x="170" y="12"/>
    </contour>
  </outline>
</glyph>
<glyph name="at" format="2">
  <advance width="747"/>
  <unicode hex="0040"/>
  <outline>
    <contour>
      <point x="305" y="320" type="curve" smooth="yes"/>
      <point x="299" y="278"/>
      <point x="311" y="242"/>
      <point x="354" y="240" type="curve" smooth="yes"/>
      <point x="407" y="236"/>
      <point x="468" y="296"/>
      <point x="476" y="368" type="curve" smooth="yes"/>
      <point x="482" y="410"/>
      <point x="465" y="446"/>
      <point x="423" y="448" type="curve" smooth="yes"/>
      <point x="368" y="451"/>
      <point x="313" y="383"/>
    </contour>
    <contour>
      <point x="212" y="316" type="curve" smooth="yes"/>
      <point x="226" y="433"/>
      <point x="324" y="532"/>
      <point x="420" y="530" type="curve" smooth="yes"/>
      <point x="502" y="528"/>
      <point x="526" y="442"/>
      <point x="516" y="370" type="curve" smooth="yes"/>
      <point x="502" y="253"/>
      <point x="421" y="157"/>
      <point x="321" y="158" type="curve" smooth="yes"/>
      <point x="239" y="159"/>
      <point x="202" y="232"/>
    </contour>
    <contour>
      <point x="54" y="320" type="curve" smooth="yes"/>
      <point x="87" y="533"/>
      <point x="268" y="716"/>
      <point x="494" y="715" type="curve" smooth="yes"/>
      <point x="692" y="714"/>
      <point x="786" y="550"/>
      <point x="760" y="390" type="curve" smooth="yes"/>
      <point x="744" y="250"/>
      <point x="646" y="144"/>
      <point x="542" y="148" type="curve" smooth="yes"/>
      <point x="474" y="150"/>
      <point x="453" y="208"/>
      <point x="464" y="268" type="curve"/>
      <point x="456" y="280" type="line"/>
      <point x="526" y="520" type="line"/>
      <point x="618" y="520" type="line"/>
      <point x="544" y="297" type="line" smooth="yes"/>
      <point x="542" y="289"/>
      <point x="539" y="278"/>
      <point x="538" y="270" type="curve" smooth="yes"/>
      <point x="536" y="250"/>
      <point x="536" y="229"/>
      <point x="560" y="226" type="curve" smooth="yes"/>
      <point x="605" y="216"/>
      <point x="666" y="306"/>
      <point x="674" y="390" type="curve" smooth="yes"/>
      <point x="696" y="514"/>
      <point x="639" y="635"/>
      <point x="488" y="636" type="curve" smooth="yes"/>
      <point x="306" y="637"/>
      <point x="168" y="490"/>
      <point x="140" y="320" type="curve" smooth="yes"/>
      <point x="118" y="178"/>
      <point x="184" y="66"/>
      <point x="339" y="64" type="curve" smooth="yes"/>
      <point x="409" y="63"/>
      <point x="474" y="79"/>
      <point x="538" y="111" type="curve"/>
      <point x="563" y="40" type="line"/>
      <point x="496" y="6"/>
      <point x="424" y="-16"/>
      <point x="328" y="-16" type="curve" smooth="yes"/>
      <point x="121" y="-14"/>
      <point x="26" y="134"/>
    </contour>
  </outline>
</glyph>
<glyph name="A" format="2">
  <advance width="669"/>
  <unicode hex="0041"/>
  <outline>
    <contour>
      <point x="160" y="180" type="line"/>
      <point x="199" y="280" type="line"/>
      <point x="516" y="280" type="line"/>
      <point x="521" y="180" type="line"/>
    </contour>
    <contour>
      <point x="395" y="502" type="line"/>
      <point x="245" y="245" type="line"/>
      <point x="239" y="219" type="line"/>
      <point x="107" y="0" type="line"/>
      <point x="-28" y="0" type="line"/>
      <point x="434" y="740" type="line"/>
      <point x="639" y="0" type="line"/>
      <point x="511" y="0" type="line"/>
      <point x="456" y="213" type="line"/>
      <point x="458" y="242" type="line"/>
    </contour>
  </outline>
</glyph>
<glyph name="B" format="2">
  <advance width="582"/>
  <unicode hex="0042"/>
  <outline>
    <contour>
      <point x="197" y="362" type="line"/>
      <point x="206" y="418" type="line"/>
      <point x="314" y="419" type="line" smooth="yes"/>
      <point x="375" y="419"/>
      <point x="430" y="453"/>
      <point x="440" y="511" type="curve" smooth="yes"/>
      <point x="450" y="567"/>
      <point x="410" y="602"/>
      <point x="352" y="602" type="curve" smooth="yes"/>
      <point x="268" y="603" type="line"/>
      <point x="180" y="97" type="line"/>
      <point x="271" y="98" type="line" smooth="yes"/>
      <point x="348" y="98"/>
      <point x="415" y="138"/>
      <point x="428" y="214" type="curve" smooth="yes"/>
      <point x="440" y="286"/>
      <point x="389" y="327"/>
      <point x="316" y="327" type="curve" smooth="yes"/>
      <point x="191" y="328" type="line"/>
      <point x="202" y="392" type="line"/>
      <point x="328" y="392" type="line" smooth="yes"/>
      <point x="452" y="391"/>
      <point x="564" y="332"/>
      <point x="545" y="202" type="curve" smooth="yes"/>
      <point x="525" y="66"/>
      <point x="407" y="0"/>
      <point x="269" y="0" type="curve" smooth="yes"/>
      <point x="47" y="0" type="line"/>
      <point x="167" y="700" type="line"/>
      <point x="369" y="700" type="line" smooth="yes"/>
      <point x="487" y="700"/>
      <point x="579" y="642"/>
      <point x="561" y="524" type="curve" smooth="yes"/>
      <point x="543" y="416"/>
      <point x="438" y="363"/>
      <point x="318" y="362" type="curve" smooth="yes"/>
    </contour>
  </outline>
</glyph>
<glyph name="D" format="2">
  <advance width="680"/>
  <unicode hex="0044"/>
  <outline>
    <contour>
      <point x="166" y="700" type="line"/>
      <point x="287" y="700" type="line"/>
      <point x="166" y="0" type="line"/>
      <point x="48" y="0" type="line"/>
    </contour>
    <contour>
      <point x="272" y="0" type="curve" smooth="yes"/>
      <point x="118" y="0" type="line"/>
      <point x="138" y="111" type="line"/>
      <point x="280" y="111" type="line" smooth="yes"/>
      <point x="421" y="111"/>
      <point x="534" y="204"/>
      <point x="558" y="350" type="curve" smooth="yes"/>
      <point x="580" y="490"/>
      <point x="507" y="589"/>
      <point x="369" y="589" type="curve" smooth="yes"/>
      <point x="218" y="589" type="line"/>
      <point x="238" y="700" type="line"/>
      <point x="384" y="700" type="line" smooth="yes"/>
      <point x="590" y="700"/>
      <point x="708" y="546"/>
      <point x="678" y="350" type="curve" smooth="yes"/>
      <point x="646" y="146"/>
      <point x="483" y="0"/>
    </contour>
  </outline>
</glyph>
<glyph name="F" format="2">
  <advance width="505"/>
  <unicode hex="0046"/>
  <outline>
    <contour>
      <point x="220" y="594" type="line"/>
      <point x="238" y="700" type="line"/>
      <point x="544" y="700" type="line"/>
      <point x="526" y="594" type="line"/>
    </contour>
    <contour>
      <point x="173" y="316" type="line"/>
      <point x="190" y="419" type="line"/>
      <point x="486" y="419" type="line"/>
      <point x="469" y="316" type="line"/>
    </contour>
    <contour>
      <point x="166" y="700" type="line"/>
      <point x="282" y="700" type="line"/>
      <point x="162" y="0" type="line"/>
      <point x="48" y="0" type="line"/>
    </contour>
  </outline>
</glyph>
<glyph name="H" format="2">
  <advance width="720"/>
  <unicode hex="0048"/>
  <outline>
    <contour>
      <point x="148" y="322" type="line"/>
      <point x="166" y="430" type="line"/>
      <point x="654" y="430" type="line"/>
      <point x="636" y="322" type="line"/>
    </contour>
    <contour>
      <point x="622" y="700" type="line"/>
      <point x="741" y="700" type="line"/>
      <point x="620" y="0" type="line"/>
      <point x="504" y="0" type="line"/>
    </contour>
    <contour>
      <point x="166" y="700" type="line"/>
      <point x="284" y="700" type="line"/>
      <point x="164" y="0" type="line"/>
      <point x="48" y="0" type="line"/>
    </contour>
  </outline>
</glyph>
<glyph name="J" format="2">
  <advance width="267"/>
  <unicode hex="004A"/>
  <outline>
    <contour>
      <point x="-112" y="-88" type="line"/>
      <point x="-96" y="-108"/>
      <point x="-72" y="-123"/>
      <point x="-41" y="-122" type="curve" smooth="yes"/>
      <point x="-3" y="-120"/>
      <point x="34" y="-88"/>
      <point x="41" y="-36" type="curve" smooth="yes"/>
      <point x="167" y="700" type="line"/>
      <point x="287" y="700" type="line"/>
      <point x="158" y="-58" type="line" smooth="yes"/>
      <point x="140" y="-166"/>
      <point x="58" y="-229"/>
      <point x="-48" y="-228" type="curve" smooth="yes"/>
      <point x="-105" y="-228"/>
      <point x="-154" y="-202"/>
      <point x="-186" y="-174" type="curve"/>
    </contour>
  </outline>
</glyph>
<glyph name="K" format="2">
  <advance width="600"/>
  <unicode hex="004B"/>
  <outline>
    <contour>
      <point x="166" y="700" type="line"/>
      <point x="287" y="700" type="line"/>
      <point x="166" y="0" type="line"/>
      <point x="48" y="0" type="line"/>
    </contour>
    <contour>
      <point x="534" y="700" type="line"/>
      <point x="679" y="700" type="line"/>
      <point x="332" y="370" type="line"/>
      <point x="570" y="0" type="line"/>
      <point x="432" y="0" type="line"/>
      <point x="194" y="372" type="line"/>
    </contour>
  </outline>
</glyph>
<glyph name="L" format="2">
  <advance width="466"/>
  <unicode hex="004C"/>
  <outline>
    <contour>
      <point x="167" y="700" type="line"/>
      <point x="284" y="700" type="line"/>
      <point x="182" y="106" type="line"/>
      <point x="452" y="106" type="line"/>
      <point x="434" y="0" type="line"/>
      <point x="47" y="0" type="line"/>
    </contour>
  </outline>
</glyph>
<glyph name="M" format="2">
  <advance width="817"/>
  <unicode hex="004D"/>
  <outline>
    <contour>
      <point x="250" y="426" type="line"/>
      <point x="130" y="0" type="line"/>
      <point x="8" y="0" type="line"/>
      <point x="228" y="736" type="line"/>
      <point x="424" y="262" type="line"/>
      <point x="788" y="740" type="line"/>
      <point x="754" y="0" type="line"/>
      <point x="634" y="0" type="line"/>
      <point x="660" y="421" type="line"/>
      <point x="394" y="64" type="line"/>
    </contour>
  </outline>
</glyph>
<glyph name="N" format="2">
  <advance width="758"/>
  <unicode hex="004E"/>
  <outline>
    <contour>
      <point x="664" y="700" type="line"/>
      <point x="778" y="700" type="line"/>
      <point x="652" y="-34" type="line"/>
      <point x="243" y="471" type="line"/>
      <point x="162" y="0" type="line"/>
      <point x="47" y="0" type="line"/>
      <point x="172" y="734" type="line"/>
      <point x="582" y="229" type="line"/>
    </contour>
  </outline>
</glyph>
<glyph name="O" format="2">
  <advance width="778"/>
  <unicode hex="004F"/>
  <outline>
    <contour>
      <point x="192" y="350" type="curve" smooth="yes"/>
      <point x="172" y="222"/>
      <point x="237" y="103"/>
      <point x="376" y="102" type="curve" smooth="yes"/>
      <point x="517" y="101"/>
      <point x="629" y="215"/>
      <point x="652" y="350" type="curve" smooth="yes"/>
      <point x="672" y="478"/>
      <point x="608" y="597"/>
      <point x="468" y="598" type="curve" smooth="yes"/>
      <point x="327" y="599"/>
      <point x="215" y="485"/>
    </contour>
    <contour>
      <point x="68" y="350" type="curve" smooth="yes"/>
      <point x="99" y="550"/>
      <point x="272" y="712"/>
      <point x="480" y="712" type="curve" smooth="yes"/>
      <point x="686" y="712"/>
      <point x="804" y="543"/>
      <point x="776" y="350" type="curve" smooth="yes"/>
      <point x="745" y="149"/>
      <point x="574" y="-15"/>
      <point x="364" y="-15" type="curve" smooth="yes"/>
      <point x="158" y="-15"/>
      <point x="40" y="157"/>
    </contour>
  </outline>
</glyph>
<glyph name="P" format="2">
  <advance width="560"/>
  <unicode hex="0050"/>
  <outline>
    <contour>
      <point x="166" y="700" type="line"/>
      <point x="284" y="700" type="line"/>
      <point x="164" y="0" type="line"/>
      <point x="48" y="0" type="line"/>
    </contour>
    <contour>
      <point x="217" y="596" type="line"/>
      <point x="236" y="700" type="line"/>
      <point x="369" y="700" type="line"/>
      <point x="509" y="700"/>
      <point x="598" y="614"/>
      <point x="580" y="482" type="curve" smooth="yes"/>
      <point x="562" y="348"/>
      <point x="446" y="265"/>
      <point x="302" y="265" type="curve"/>
      <point x="160" y="265" type="line"/>
      <point x="179" y="369" type="line"/>
      <point x="312" y="369" type="line"/>
      <point x="389" y="371"/>
      <point x="453" y="408"/>
      <point x="466" y="482" type="curve" smooth="yes"/>
      <point x="478" y="553"/>
      <point x="432" y="596"/>
      <point x="358" y="596" type="curve" smooth="yes"/>
    </contour>
  </outline>
</glyph>
<glyph name="Q" format="2">
  <advance width="794"/>
  <unicode hex="0051"/>
  <outline>
    <contour>
      <point x="192" y="350" type="curve" smooth="yes"/>
      <point x="172" y="218"/>
      <point x="241" y="97"/>
      <point x="381" y="96" type="curve" smooth="yes"/>
      <point x="521" y="95"/>
      <point x="635" y="207"/>
      <point x="658" y="342" type="curve" smooth="yes"/>
      <point x="678" y="471"/>
      <point x="614" y="597"/>
      <point x="470" y="598" type="curve" smooth="yes"/>
      <point x="329" y="599"/>
      <point x="215" y="486"/>
    </contour>
    <contour>
      <point x="68" y="350" type="curve" smooth="yes"/>
      <point x="99" y="550"/>
      <point x="274" y="712"/>
      <point x="482" y="712" type="curve" smooth="yes"/>
      <point x="688" y="712"/>
      <point x="804" y="542"/>
      <point x="776" y="350" type="curve" smooth="yes"/>
      <point x="745" y="150"/>
      <point x="575" y="-15"/>
      <point x="365" y="-15" type="curve" smooth="yes"/>
      <point x="159" y="-15"/>
      <point x="40" y="157"/>
    </contour>
    <contour>
      <point x="385" y="300" type="line"/>
      <point x="513" y="300" type="line"/>
      <point x="767" y="-5" type="line"/>
      <point x="636" y="-5" type="line"/>
    </contour>
  </outline>
</glyph>
<glyph name="S" format="2">
  <advance width="561"/>
  <unicode hex="0053"/>
  <outline>
    <contour>
      <point x="126" y="226" type="line"/>
      <point x="161" y="147"/>
      <point x="205" y="92"/>
      <point x="285" y="92" type="curve" smooth="yes"/>
      <point x="361" y="92"/>
      <point x="410" y="144"/>
      <point x="412" y="200" type="curve" smooth="yes"/>
      <point x="414" y="268"/>
      <point x="356" y="290"/>
      <point x="286" y="322" type="curve" smooth="yes"/>
      <point x="220" y="352"/>
      <point x="127" y="405"/>
      <point x="131" y="516" type="curve" smooth="yes"/>
      <point x="136" y="628"/>
      <point x="234" y="712"/>
      <point x="366" y="712" type="curve" smooth="yes"/>
      <point x="484" y="712"/>
      <point x="553" y="641"/>
      <point x="585" y="561" type="curve"/>
      <point x="488" y="510" type="line"/>
      <point x="465" y="560"/>
      <point x="430" y="607"/>
      <point x="354" y="607" type="curve" smooth="yes"/>
      <point x="290" y="607"/>
      <point x="254" y="571"/>
      <point x="252" y="524" type="curve" smooth="yes"/>
      <point x="249" y="468"/>
      <point x="305" y="434"/>
      <point x="384" y="403" type="curve" smooth="yes"/>
      <point x="461" y="371"/>
      <point x="538" y="318"/>
      <point x="534" y="208" type="curve" smooth="yes"/>
      <point x="528" y="79"/>
      <point x="410" y="-15"/>
      <point x="279" y="-15" type="curve" smooth="yes"/>
      <point x="159" y="-15"/>
      <point x="72" y="66"/>
      <point x="36" y="164" type="curve"/>
    </contour>
  </outline>
</glyph>
<glyph name="T" format="2">
  <advance width="488"/>
  <unicode hex="0054"/>
  <outline>
    <contour>
      <point x="80" y="591" type="line"/>
      <point x="99" y="700" type="line"/>
      <point x="575" y="700" type="line"/>
      <point x="556" y="591" type="line"/>
      <point x="377" y="591" type="line"/>
      <point x="276" y="0" type="line"/>
      <point x="158" y="0" type="line"/>
      <point x="260" y="591" type="line"/>
    </contour>
  </outline>
</glyph>
<glyph name="V" format="2">
  <advance width="669"/>
  <unicode hex="0056"/>
  <outline>
    <contour>
      <point x="348" y="209" type="line"/>
      <point x="624" y="700" type="line"/>
      <point x="760" y="700" type="line"/>
      <point x="312" y="-40" type="line"/>
      <point x="94" y="700" type="line"/>
      <point x="224" y="700" type="line"/>
    </contour>
  </outline>
</glyph>
<glyph name="X" format="2">
  <advance width="589"/>
  <unicode hex="0058"/>
  <outline>
    <contour>
      <point x="517" y="700" type="line"/>
      <point x="662" y="700" type="line"/>
      <point x="400" y="362" type="line"/>
      <point x="564" y="0" type="line"/>
      <point x="426" y="0" type="line"/>
      <point x="323" y="267" type="line"/>
      <point x="132" y="0" type="line"/>
      <point x="-12" y="0" type="line"/>
      <point x="272" y="366" type="line"/>
      <point x="124" y="700" type="line"/>
      <point x="261" y="700" type="line"/>
      <point x="350" y="465" type="line"/>
    </contour>
  </outline>
</glyph>
<glyph name="Y" format="2">
  <advance width="582"/>
  <unicode hex="0059"/>
  <outline>
    <contour>
      <point x="540" y="700" type="line"/>
      <point x="676" y="700" type="line"/>
      <point x="374" y="292" type="line"/>
      <point x="324" y="0" type="line"/>
      <point x="204" y="0" type="line"/>
      <point x="257" y="298" type="line"/>
      <point x="96" y="700" type="line"/>
      <point x="226" y="700" type="line"/>
      <point x="331" y="402" type="line"/>
    </contour>
  </outline>
</glyph>
<glyph name="Z" format="2">
  <advance width="557"/>
  <unicode hex="005A"/>
  <outline>
    <contour>
      <point x="115" y="591" type="line"/>
      <point x="134" y="700" type="line"/>
      <point x="636" y="700" type="line"/>
      <point x="192" y="106" type="line"/>
      <point x="508" y="106" type="line"/>
      <point x="489" y="0" type="line"/>
      <point x="-18" y="0" type="line"/>
      <point x="424" y="590" type="line"/>
    </contour>
  </outline>
</glyph>
<glyph name="bracketleft" format="2">
  <advance width="314"/>
  <unicode hex="005B"/>
  <outline>
    <contour>
      <point x="288" y="683" type="line"/>
      <point x="163" y="-123" type="line"/>
      <point x="262" y="-123" type="line"/>
      <point x="246" y="-220" type="line"/>
      <point x="41" y="-220" type="line"/>
      <point x="196" y="780" type="line"/>
      <point x="400" y="780" type="line"/>
      <point x="385" y="683" type="line"/>
    </contour>
  </outline>
</glyph>
<glyph name="backslash" format="2">
  <advance width="511"/>
  <unicode hex="005C"/>
  <outline>
    <contour>
      <point x="106" y="700" type="line"/>
      <point x="213" y="700" type="line"/>
      <point x="469" y="0" type="line"/>
      <point x="366" y="0" type="line"/>
    </contour>
  </outline>
</glyph>
<glyph name="bracketright" format="2">
  <advance width="314"/>
  <unicode hex="005D"/>
  <outline>
    <contour>
      <point x="80" y="-123" type="line"/>
      <point x="204" y="683" type="line"/>
      <point x="106" y="683" type="line"/>
      <point x="122" y="780" type="line"/>
      <point x="326" y="780" type="line"/>
      <point x="172" y="-220" type="line"/>
      <point x="-33" y="-220" type="line"/>
      <point x="-18" y="-123" type="line"/>
    </contour>
  </outline>
</glyph>
<glyph name="underscore" format="2">
  <advance width="496"/>
  <unicode hex="005F"/>
  <outline>
    <contour>
      <point x="-52" y="-140" type="line"/>
      <point x="-40" y="-70" type="line"/>
      <point x="459" y="-70" type="line"/>
      <point x="447" y="-140" type="line"/>
    </contour>
  </outline>
</glyph>
<glyph name="grave" format="2">
  <advance width="363"/>
  <unicode hex="0060"/>
  <outline>
    <contour>
      <point x="148" y="659" type="line"/>
      <point x="242" y="702" type="line"/>
      <point x="366" y="541" type="line"/>
      <point x="302" y="508" type="line"/>
    </contour>
  </outline>
</glyph>
<glyph name="c" format="2">
  <advance width="467"/>
  <unicode hex="0063"/>
  <outline>
    <contour>
      <point x="154" y="230" type="curve" smooth="yes"/>
      <point x="142" y="152"/>
      <point x="186" y="86"/>
      <point x="266" y="84" type="curve" smooth="yes"/>
      <point x="332" y="83"/>
      <point x="392" y="118"/>
      <point x="427" y="160" type="curve"/>
      <point x="410" y="42" type="line"/>
      <point x="370" y="10"/>
      <point x="316" y="-10"/>
      <point x="254" y="-10" type="curve" smooth="yes"/>
      <point x="116" y="-10"/>
      <point x="26" y="98"/>
      <point x="44" y="230" type="curve" smooth="yes"/>
      <point x="62" y="366"/>
      <point x="180" y="470"/>
      <point x="321" y="470" type="curve" smooth="yes"/>
      <point x="380" y="470"/>
      <point x="431" y="450"/>
      <point x="467" y="418" type="curve"/>
      <point x="450" y="299" type="line"/>
      <point x="428" y="346"/>
      <point x="378" y="376"/>
      <point x="318" y="376" type="curve" smooth="yes"/>
      <point x="235" y="376"/>
      <point x="167" y="311"/>
    </contour>
  </outline>
</glyph>
<glyph name="e" format="2">
  <advance width="522"/>
  <unicode hex="0065"/>
  <outline>
    <contour>
      <point x="253" y="-10" type="curve" smooth="yes"/>
      <point x="129" y="-10"/>
      <point x="46" y="68"/>
      <point x="46" y="200" type="curve" smooth="yes"/>
      <point x="46" y="346"/>
      <point x="160" y="470"/>
      <point x="316" y="470" type="curve" smooth="yes"/>
      <point x="441" y="470"/>
      <point x="514" y="398"/>
      <point x="514" y="268" type="curve" smooth="yes"/>
      <point x="514" y="247"/>
      <point x="508" y="219"/>
      <point x="503" y="205" type="curve"/>
      <point x="106" y="205" type="line"/>
      <point x="106" y="280" type="line"/>
      <point x="422" y="280" type="line"/>
      <point x="390" y="234" type="line"/>
      <point x="396" y="249"/>
      <point x="403" y="266"/>
      <point x="403" y="282" type="curve" smooth="yes"/>
      <point x="403" y="348"/>
      <point x="371" y="388"/>
      <point x="307" y="388" type="curve" smooth="yes"/>
      <point x="217" y="388"/>
      <point x="160" y="312"/>
      <point x="154" y="212" type="curve" smooth="yes"/>
      <point x="150" y="134"/>
      <point x="186" y="79"/>
      <point x="262" y="79" type="curve" smooth="yes"/>
      <point x="319" y="79"/>
      <point x="365" y="108"/>
      <point x="396" y="152" type="curve"/>
      <point x="486" y="115" type="line"/>
      <point x="438" y="39"/>
      <point x="359" y="-10"/>
    </contour>
  </outline>
</glyph>
<glyph name="f" format="2">
  <advance width="299"/>
  <unicode hex="0066"/>
  <outline>
    <contour>
      <point x="81" y="460" type="line"/>
      <point x="339" y="460" type="line"/>
      <point x="322" y="365" type="line"/>
      <point x="64" y="365" type="line"/>
    </contour>
    <contour>
      <point x="364" y="664" type="line"/>
      <point x="352" y="680"/>
      <point x="340" y="690"/>
      <point x="322" y="690" type="curve" smooth="yes"/>
      <point x="287" y="690"/>
      <point x="266" y="652"/>
      <point x="260" y="608" type="curve" smooth="yes"/>
      <point x="156" y="0" type="line"/>
      <point x="50" y="0" type="line"/>
      <point x="158" y="630" type="line" smooth="yes"/>
      <point x="173" y="724"/>
      <point x="232" y="794"/>
      <point x="328" y="792" type="curve" smooth="yes"/>
      <point x="374" y="792"/>
      <point x="404" y="770"/>
      <point x="426" y="746" type="curve"/>
    </contour>
  </outline>
</glyph>
<glyph name="g" format="2">
  <advance width="568"/>
  <unicode hex="0067"/>
  <outline>
    <contour>
      <point x="8" y="-31" type="curve"/>
      <point x="112" y="-32" type="line"/>
      <point x="110" y="-94"/>
      <point x="145" y="-140"/>
      <point x="218" y="-140" type="curve" smooth="yes"/>
      <point x="295" y="-141"/>
      <point x="363" y="-79"/>
      <point x="376" y="10" type="curve" smooth="yes"/>
      <point x="454" y="460" type="line"/>
      <point x="558" y="460" type="line"/>
      <point x="482" y="10" type="line" smooth="yes"/>
      <point x="460" y="-138"/>
      <point x="354" y="-234"/>
      <point x="216" y="-234" type="curve" smooth="yes"/>
      <point x="78" y="-234"/>
      <point x="0" y="-151"/>
    </contour>
    <contour>
      <point x="44" y="232" type="curve" smooth="yes"/>
      <point x="63" y="368"/>
      <point x="174" y="471"/>
      <point x="300" y="470" type="curve" smooth="yes"/>
      <point x="424" y="469"/>
      <point x="470" y="356"/>
      <point x="454" y="232" type="curve" smooth="yes"/>
      <point x="436" y="101"/>
      <point x="348" y="-4"/>
      <point x="226" y="-4" type="curve" smooth="yes"/>
      <point x="100" y="-4"/>
      <point x="26" y="102"/>
    </contour>
    <contour>
      <point x="154" y="232" type="curve" smooth="yes"/>
      <point x="142" y="154"/>
      <point x="182" y="90"/>
      <point x="260" y="90" type="curve" smooth="yes"/>
      <point x="330" y="90"/>
      <point x="403" y="150"/>
      <point x="415" y="232" type="curve" smooth="yes"/>
      <point x="425" y="309"/>
      <point x="385" y="374"/>
      <point x="316" y="376" type="curve" smooth="yes"/>
      <point x="236" y="378"/>
      <point x="167" y="314"/>
    </contour>
  </outline>
</glyph>
<glyph name="h" format="2">
  <advance width="525"/>
  <unicode hex="0068"/>
  <outline>
    <contour>
      <point x="280" y="780" type="line"/>
      <point x="146" y="0" type="line"/>
      <point x="38" y="0" type="line"/>
      <point x="172" y="780" type="line"/>
    </contour>
    <contour>
      <point x="376" y="280" type="line" smooth="yes"/>
      <point x="382" y="334"/>
      <point x="371" y="380"/>
      <point x="313" y="382" type="curve" smooth="yes"/>
      <point x="251" y="384"/>
      <point x="208" y="335"/>
      <point x="194" y="281" type="curve"/>
      <point x="166" y="281" type="line"/>
      <point x="185" y="381"/>
      <point x="250" y="472"/>
      <point x="356" y="472" type="curve" smooth="yes"/>
      <point x="460" y="472"/>
      <point x="497" y="395"/>
      <point x="484" y="295" type="curve"/>
      <point x="433" y="0" type="line"/>
      <point x="326" y="0" type="line"/>
    </contour>
  </outline>
</glyph>
<glyph name="i" format="2">
  <advance width="258"/>
  <unicode hex="0069"/>
  <outline>
    <contour>
      <point x="144" y="643" type="curve" smooth="yes"/>
      <point x="144" y="680"/>
      <point x="174" y="708"/>
      <point x="212" y="708" type="curve" smooth="yes"/>
      <point x="250" y="708"/>
      <point x="280" y="680"/>
      <point x="280" y="643" type="curve" smooth="yes"/>
      <point x="280" y="606"/>
      <point x="250" y="578"/>
      <point x="212" y="578" type="curve" smooth="yes"/>
      <point x="174" y="578"/>
      <point x="144" y="606"/>
    </contour>
    <contour>
      <point x="127" y="460" type="line"/>
      <point x="234" y="460" type="line"/>
      <point x="156" y="0" type="line"/>
      <point x="50" y="0" type="line"/>
    </contour>
  </outline>
</glyph>
<glyph name="j" format="2">
  <advance width="250"/>
  <unicode hex="006A"/>
  <outline>
    <contour>
      <point x="136" y="643" type="curve" smooth="yes"/>
      <point x="136" y="680"/>
      <point x="165" y="708"/>
      <point x="203" y="708" type="curve" smooth="yes"/>
      <point x="241" y="708"/>
      <point x="270" y="680"/>
      <point x="270" y="643" type="curve" smooth="yes"/>
      <point x="270" y="606"/>
      <point x="241" y="578"/>
      <point x="203" y="578" type="curve" smooth="yes"/>
      <point x="165" y="578"/>
      <point x="136" y="606"/>
    </contour>
    <contour>
      <point x="-69" y="-100" type="line"/>
      <point x="-59" y="-114"/>
      <point x="-45" y="-126"/>
      <point x="-27" y="-126" type="curve" smooth="yes"/>
      <point x="9" y="-128"/>
      <point x="29" y="-86"/>
      <point x="34" y="-44" type="curve" smooth="yes"/>
      <point x="120" y="460" type="line"/>
      <point x="226" y="460" type="line"/>
      <point x="137" y="-66" type="line" smooth="yes"/>
      <point x="122" y="-158"/>
      <point x="66" y="-230"/>
      <point x="-30" y="-228" type="curve" smooth="yes"/>
      <point x="-75" y="-228"/>
      <point x="-107" y="-208"/>
      <point x="-131" y="-182" type="curve"/>
    </contour>
  </outline>
</glyph>
<glyph name="k" format="2">
  <advance width="479"/>
  <unicode hex="006B"/>
  <outline>
    <contour>
      <point x="168" y="780" type="line"/>
      <point x="274" y="780" type="line"/>
      <point x="140" y="0" type="line"/>
      <point x="36" y="0" type="line"/>
    </contour>
    <contour>
      <point x="378" y="460" type="line"/>
      <point x="514" y="460" type="line"/>
      <point x="282" y="264" type="line"/>
      <point x="449" y="0" type="line"/>
      <point x="325" y="0" type="line"/>
      <point x="156" y="273" type="line"/>
    </contour>
  </outline>
</glyph>
<glyph name="m" format="2">
  <advance width="772"/>
  <unicode hex="006D"/>
  <outline>
    <contour>
      <point x="729" y="292" type="curve" smooth="yes"/>
      <point x="680" y="0" type="line"/>
      <point x="572" y="0" type="line"/>
      <point x="622" y="280" type="line" smooth="yes"/>
      <point x="628" y="334"/>
      <point x="622" y="382"/>
      <point x="568" y="382" type="curve" smooth="yes"/>
      <point x="510" y="382"/>
      <point x="468" y="340"/>
      <point x="460" y="282" type="curve" smooth="yes"/>
      <point x="411" y="0" type="line"/>
      <point x="304" y="0" type="line"/>
      <point x="353" y="280" type="line" smooth="yes"/>
      <point x="359" y="334"/>
      <point x="354" y="382"/>
      <point x="300" y="382" type="curve" smooth="yes"/>
      <point x="244" y="382"/>
      <point x="201" y="342"/>
      <point x="193" y="284" type="curve" smooth="yes"/>
      <point x="144" y="0" type="line"/>
      <point x="38" y="0" type="line"/>
      <point x="118" y="460" type="line"/>
      <point x="222" y="460" type="line"/>
      <point x="212" y="396" type="line"/>
      <point x="243" y="442"/>
      <point x="287" y="470"/>
      <point x="345" y="470" type="curve" smooth="yes"/>
      <point x="413" y="470"/>
      <point x="448" y="435"/>
      <point x="460" y="384" type="curve"/>
      <point x="496" y="436"/>
      <point x="549" y="470"/>
      <point x="614" y="470" type="curve" smooth="yes"/>
      <point x="716" y="470"/>
      <point x="741" y="388"/>
    </contour>
  </outline>
</glyph>
<glyph name="n" format="2">
  <advance width="528"/>
  <unicode hex="006E"/>
  <outline>
    <contour>
      <point x="376" y="280" type="line" smooth="yes"/>
      <point x="383" y="334"/>
      <point x="372" y="382"/>
      <point x="312" y="382" type="curve" smooth="yes"/>
      <point x="252" y="382"/>
      <point x="204" y="340"/>
      <point x="195" y="283" type="curve" smooth="yes"/>
      <point x="146" y="0" type="line"/>
      <point x="38" y="0" type="line"/>
      <point x="118" y="460" type="line"/>
      <point x="225" y="460" type="line"/>
      <point x="214" y="392" type="line"/>
      <point x="247" y="440"/>
      <point x="294" y="470"/>
      <point x="356" y="470" type="curve" smooth="yes"/>
      <point x="461" y="470"/>
      <point x="500" y="390"/>
      <point x="486" y="292" type="curve" smooth="yes"/>
      <point x="436" y="0" type="line"/>
      <point x="326" y="0" type="line"/>
    </contour>
  </outline>
</glyph>
<glyph name="o" format="2">
  <advance width="546"/>
  <unicode hex="006F"/>
  <outline>
    <contour>
      <point x="50" y="230" type="curve" smooth="yes"/>
      <point x="68" y="366"/>
      <point x="187" y="470"/>
      <point x="326" y="470" type="curve" smooth="yes"/>
      <point x="464" y="470"/>
      <point x="552" y="362"/>
      <point x="534" y="230" type="curve" smooth="yes"/>
      <point x="516" y="94"/>
      <point x="397" y="-10"/>
      <point x="258" y="-10" type="curve" smooth="yes"/>
      <point x="121" y="-10"/>
      <point x="32" y="98"/>
    </contour>
    <contour>
      <point x="159" y="230" type="curve" smooth="yes"/>
      <point x="148" y="155"/>
      <point x="188" y="86"/>
      <point x="266" y="86" type="curve" smooth="yes"/>
      <point x="345" y="86"/>
      <point x="412" y="151"/>
      <point x="424" y="230" type="curve" smooth="yes"/>
      <point x="435" y="305"/>
      <point x="395" y="374"/>
      <point x="317" y="374" type="curve" smooth="yes"/>
      <point x="238" y="374"/>
      <point x="171" y="309"/>
    </contour>
  </outline>
</glyph>
<glyph name="p" format="2">
  <advance width="570"/>
  <unicode hex="0070"/>
  <outline>
    <contour>
      <point x="106" y="-220" type="line"/>
      <point x="-4" y="-220" type="line"/>
      <point x="114" y="460" type="line"/>
      <point x="220" y="460" type="line"/>
    </contour>
    <contour>
      <point x="552" y="230" type="curve" smooth="yes"/>
      <point x="533" y="92"/>
      <point x="424" y="-13"/>
      <point x="296" y="-12" type="curve" smooth="yes"/>
      <point x="170" y="-11"/>
      <point x="130" y="106"/>
      <point x="146" y="230" type="curve" smooth="yes"/>
      <point x="164" y="361"/>
      <point x="247" y="472"/>
      <point x="371" y="472" type="curve" smooth="yes"/>
      <point x="499" y="472"/>
      <point x="570" y="362"/>
    </contour>
    <contour>
      <point x="442" y="230" type="curve" smooth="yes"/>
      <point x="454" y="308"/>
      <point x="414" y="374"/>
      <point x="336" y="374" type="curve" smooth="yes"/>
      <point x="266" y="374"/>
      <point x="194" y="312"/>
      <point x="182" y="230" type="curve" smooth="yes"/>
      <point x="172" y="153"/>
      <point x="211" y="88"/>
      <point x="280" y="86" type="curve" smooth="yes"/>
      <point x="358" y="84"/>
      <point x="429" y="148"/>
    </contour>
  </outline>
</glyph>
<glyph name="q" format="2">
  <advance width="570"/>
  <unicode hex="0071"/>
  <outline>
    <contour>
      <point x="336" y="-220" type="line"/>
      <point x="454" y="460" type="line"/>
      <point x="562" y="460" type="line"/>
      <point x="444" y="-220" type="line"/>
    </contour>
    <contour>
      <point x="44" y="230" type="curve" smooth="yes"/>
      <point x="63" y="368"/>
      <point x="172" y="473"/>
      <point x="300" y="472" type="curve" smooth="yes"/>
      <point x="426" y="471"/>
      <point x="466" y="354"/>
      <point x="450" y="230" type="curve" smooth="yes"/>
      <point x="432" y="99"/>
      <point x="349" y="-12"/>
      <point x="225" y="-12" type="curve" smooth="yes"/>
      <point x="97" y="-12"/>
      <point x="26" y="98"/>
    </contour>
    <contour>
      <point x="154" y="230" type="curve" smooth="yes"/>
      <point x="142" y="152"/>
      <point x="182" y="86"/>
      <point x="260" y="86" type="curve" smooth="yes"/>
      <point x="330" y="86"/>
      <point x="402" y="148"/>
      <point x="414" y="230" type="curve" smooth="yes"/>
      <point x="424" y="307"/>
      <point x="385" y="372"/>
      <point x="316" y="374" type="curve" smooth="yes"/>
      <point x="238" y="376"/>
      <point x="167" y="312"/>
    </contour>
  </outline>
</glyph>
<glyph name="r" format="2">
  <advance width="360"/>
  <unicode hex="0072"/>
  <outline>
    <contour>
      <point x="224" y="460" type="line"/>
      <point x="144" y="0" type="line"/>
      <point x="38" y="0" type="line"/>
      <point x="118" y="460" type="line"/>
    </contour>
    <contour>
      <point x="340" y="344" type="line"/>
      <point x="323" y="358"/>
      <point x="308" y="369"/>
      <point x="285" y="369" type="curve" smooth="yes"/>
      <point x="228" y="370"/>
      <point x="198" y="316"/>
      <point x="188" y="260" type="curve"/>
      <point x="158" y="281" type="line"/>
      <point x="174" y="375"/>
      <point x="244" y="469"/>
      <point x="324" y="470" type="curve" smooth="yes"/>
      <point x="356" y="470"/>
      <point x="382" y="456"/>
      <point x="404" y="434" type="curve"/>
    </contour>
  </outline>
</glyph>
<glyph name="s" format="2">
  <advance width="411"/>
  <unicode hex="0073"/>
  <outline>
    <contour>
      <point x="92" y="150" type="line"/>
      <point x="130" y="106"/>
      <point x="172" y="73"/>
      <point x="224" y="74" type="curve" smooth="yes"/>
      <point x="262" y="74"/>
      <point x="288" y="98"/>
      <point x="288" y="128" type="curve" smooth="yes"/>
      <point x="289" y="168"/>
      <point x="244" y="189"/>
      <point x="200" y="206" type="curve" smooth="yes"/>
      <point x="144" y="228"/>
      <point x="85" y="261"/>
      <point x="87" y="339" type="curve" smooth="yes"/>
      <point x="90" y="427"/>
      <point x="167" y="470"/>
      <point x="249" y="470" type="curve" smooth="yes"/>
      <point x="323" y="470"/>
      <point x="381" y="435"/>
      <point x="418" y="389" type="curve"/>
      <point x="358" y="326" type="line"/>
      <point x="330" y="360"/>
      <point x="290" y="388"/>
      <point x="248" y="388" type="curve" smooth="yes"/>
      <point x="212" y="388"/>
      <point x="188" y="370"/>
      <point x="188" y="344" type="curve" smooth="yes"/>
      <point x="186" y="308"/>
      <point x="226" y="293"/>
      <point x="272" y="274" type="curve" smooth="yes"/>
      <point x="340" y="245"/>
      <point x="396" y="214"/>
      <point x="394" y="134" type="curve" smooth="yes"/>
      <point x="391" y="48"/>
      <point x="323" y="-14"/>
      <point x="225" y="-14" type="curve" smooth="yes"/>
      <point x="132" y="-14"/>
      <point x="62" y="36"/>
      <point x="24" y="88" type="curve"/>
    </contour>
  </outline>
</glyph>
<glyph name="t" format="2">
  <advance width="262"/>
  <unicode hex="0074"/>
  <outline>
    <contour>
      <point x="57" y="460" type="line"/>
      <point x="312" y="460" type="line"/>
      <point x="295" y="365" type="line"/>
      <point x="40" y="365" type="line"/>
    </contour>
    <contour>
      <point x="157" y="620" type="line"/>
      <point x="264" y="620" type="line"/>
      <point x="156" y="0" type="line"/>
      <point x="52" y="0" type="line"/>
    </contour>
  </outline>
</glyph>
<glyph name="u" format="2">
  <advance width="528"/>
  <unicode hex="0075"/>
  <outline>
    <contour>
      <point x="178" y="180" type="line" smooth="yes"/>
      <point x="171" y="126"/>
      <point x="182" y="78"/>
      <point x="240" y="78" type="curve" smooth="yes"/>
      <point x="300" y="78"/>
      <point x="348" y="118"/>
      <point x="358" y="176" type="curve" smooth="yes"/>
      <point x="408" y="460" type="line"/>
      <point x="515" y="460" type="line"/>
      <point x="436" y="0" type="line"/>
      <point x="328" y="0" type="line"/>
      <point x="339" y="68" type="line"/>
      <point x="305" y="20"/>
      <point x="259" y="-10"/>
      <point x="197" y="-10" type="curve" smooth="yes"/>
      <point x="93" y="-10"/>
      <point x="54" y="71"/>
      <point x="68" y="168" type="curve"/>
      <point x="118" y="460" type="line"/>
      <point x="226" y="460" type="line"/>
    </contour>
  </outline>
</glyph>
<glyph name="v" format="2">
  <advance width="459"/>
  <unicode hex="0076"/>
  <outline>
    <contour>
      <point x="53" y="460" type="line"/>
      <point x="168" y="460" type="line"/>
      <point x="238" y="166" type="line"/>
      <point x="400" y="460" type="line"/>
      <point x="518" y="460" type="line"/>
      <point x="208" y="-44" type="line"/>
    </contour>
  </outline>
</glyph>
<glyph name="w" format="2">
  <advance width="690"/>
  <unicode hex="0077"/>
  <outline>
    <contour>
      <point x="52" y="460" type="line"/>
      <point x="165" y="460" type="line"/>
      <point x="222" y="190" type="line"/>
      <point x="400" y="497" type="line"/>
      <point x="476" y="188" type="line"/>
      <point x="627" y="460" type="line"/>
      <point x="746" y="460" type="line"/>
      <point x="450" y="-35" type="line"/>
      <point x="365" y="276" type="line"/>
      <point x="176" y="-35" type="line"/>
    </contour>
  </outline>
</glyph>
<glyph name="x" format="2">
  <advance width="450"/>
  <unicode hex="0078"/>
  <outline>
    <contour>
      <point x="376" y="460" type="line"/>
      <point x="498" y="460" type="line"/>
      <point x="302" y="233" type="line"/>
      <point x="433" y="0" type="line"/>
      <point x="318" y="0" type="line"/>
      <point x="234" y="160" type="line"/>
      <point x="106" y="0" type="line"/>
      <point x="-20" y="0" type="line"/>
      <point x="190" y="243" type="line"/>
      <point x="64" y="460" type="line"/>
      <point x="182" y="460" type="line"/>
      <point x="258" y="316" type="line"/>
    </contour>
  </outline>
</glyph>
<glyph name="y" format="2">
  <advance width="457"/>
  <unicode hex="0079"/>
  <outline>
    <contour>
      <point x="516" y="460" type="line"/>
      <point x="108" y="-220" type="line"/>
      <point x="-8" y="-220" type="line"/>
      <point x="160" y="57" type="line"/>
      <point x="48" y="460" type="line"/>
      <point x="164" y="460" type="line"/>
      <point x="248" y="96" type="line"/>
      <point x="198" y="100" type="line"/>
      <point x="399" y="460" type="line"/>
    </contour>
  </outline>
</glyph>
<glyph name="z" format="2">
  <advance width="469"/>
  <unicode hex="007A"/>
  <outline>
    <contour>
      <point x="306" y="360" type="line"/>
      <point x="82" y="360" type="line"/>
      <point x="99" y="460" type="line"/>
      <point x="510" y="460" type="line"/>
      <point x="194" y="100" type="line"/>
      <point x="424" y="100" type="line"/>
      <point x="406" y="0" type="line"/>
      <point x="-16" y="0" type="line"/>
    </contour>
  </outline>
</glyph>
<glyph name="bar" format="2">
  <advance width="295"/>
  <unicode hex="007C"/>
  <outline>
    <contour>
      <point x="200" y="784" type="line"/>
      <point x="304" y="784" type="line"/>
      <point x="150" y="-214" type="line"/>
      <point x="46" y="-214" type="line"/>
    </contour>
  </outline>
</glyph>
<glyph name="braceright" format="2">
  <advance width="334"/>
  <unicode hex="007D"/>
  <outline>
    <contour>
      <point x="108" y="-60" type="curve" smooth="yes"/>
      <point x="131" y="90" type="line" smooth="yes"/>
      <point x="147" y="186"/>
      <point x="170" y="289"/>
      <point x="287" y="300" type="curve"/>
      <point x="284" y="280" type="line"/>
      <point x="170" y="294"/>
      <point x="181" y="403"/>
      <point x="194" y="490" type="curve" smooth="yes"/>
      <point x="218" y="640" type="line" smooth="yes"/>
      <point x="222" y="667"/>
      <point x="209" y="690"/>
      <point x="179" y="690" type="curve" smooth="yes"/>
      <point x="144" y="690" type="line"/>
      <point x="157" y="780" type="line"/>
      <point x="226" y="780" type="line" smooth="yes"/>
      <point x="293" y="780"/>
      <point x="339" y="722"/>
      <point x="329" y="640" type="curve" smooth="yes"/>
      <point x="298" y="440" type="line" smooth="yes"/>
      <point x="292" y="379"/>
      <point x="297" y="352"/>
      <point x="333" y="330" type="curve"/>
      <point x="322" y="250" type="line"/>
      <point x="282" y="232"/>
      <point x="261" y="203"/>
      <point x="253" y="140" type="curve" smooth="yes"/>
      <point x="223" y="-60" type="line" smooth="yes"/>
      <point x="211" y="-145"/>
      <point x="148" y="-200"/>
      <point x="80" y="-200" type="curve"/>
      <point x="6" y="-200" type="line"/>
      <point x="20" y="-110" type="line"/>
      <point x="53" y="-110" type="line" smooth="yes"/>
      <point x="84" y="-110"/>
      <point x="103" y="-89"/>
    </contour>
  </outline>
</glyph>
<glyph name="asciitilde" format="2">
  <advance width="558"/>
  <unicode hex="007E"/>
  <outline>
    <contour>
      <point x="154" y="170" type="curve"/>
      <point x="64" y="176" type="line"/>
      <point x="64" y="184"/>
      <point x="63" y="192"/>
      <point x="64" y="200" type="curve" smooth="yes"/>
      <point x="68" y="228"/>
      <point x="81" y="256"/>
      <point x="101" y="280" type="curve" smooth="yes"/>
      <point x="129" y="313"/>
      <point x="171" y="334"/>
      <point x="220" y="334" type="curve" smooth="yes"/>
      <point x="261" y="334"/>
      <point x="296" y="314"/>
      <point x="333" y="286" type="curve" smooth="yes"/>
      <point x="355" y="268"/>
      <point x="377" y="254"/>
      <point x="397" y="254" type="curve" smooth="yes"/>
      <point x="422" y="254"/>
      <point x="438" y="274"/>
      <point x="442" y="298" type="curve" smooth="yes"/>
      <point x="444" y="307"/>
      <point x="444" y="318"/>
      <point x="442" y="328" type="curve"/>
      <point x="536" y="323" type="line"/>
      <point x="536" y="315"/>
      <point x="538" y="304"/>
      <point x="536" y="294" type="curve" smooth="yes"/>
      <point x="532" y="267"/>
      <point x="521" y="238"/>
      <point x="501" y="214" type="curve" smooth="yes"/>
      <point x="475" y="183"/>
      <point x="438" y="164"/>
      <point x="396" y="164" type="curve" smooth="yes"/>
      <point x="358" y="164"/>
      <point x="325" y="186"/>
      <point x="288" y="214" type="curve" smooth="yes"/>
      <point x="264" y="233"/>
      <point x="238" y="246"/>
      <point x="212" y="246" type="curve" smooth="yes"/>
      <point x="180" y="246"/>
      <point x="160" y="224"/>
      <point x="154" y="196" type="curve" smooth="yes"/>
      <point x="152" y="188"/>
      <point x="153" y="178"/>
    </contour>
  </outline>
</glyph>
<glyph name="exclamdown" format="2">
  <advance width="307"/>
  <unicode hex="00A1"/>
  <outline>
    <contour>
      <point x="152" y="-239" type="line"/>
      <point x="19" y="-239" type="line"/>
      <point x="127" y="248" type="line"/>
      <point x="211" y="248" type="line"/>
    </contour>
    <contour>
      <point x="266" y="412" type="curve" smooth="yes"/>
      <point x="262" y="376"/>
      <point x="225" y="345"/>
      <point x="188" y="346" type="curve" smooth="yes"/>
      <point x="150" y="347"/>
      <point x="124" y="378"/>
      <point x="128" y="414" type="curve" smooth="yes"/>
      <point x="132" y="450"/>
      <point x="170" y="481"/>
      <point x="207" y="480" type="curve" smooth="yes"/>
      <point x="245" y="479"/>
      <point x="270" y="448"/>
    </contour>
  </outline>
</glyph>
<glyph name="cent" format="2">
  <advance width="562"/>
  <unicode hex="00A2"/>
  <outline>
    <contour>
      <point x="233" y="38" type="line"/>
      <point x="316" y="38" type="line"/>
      <point x="293" y="-112" type="line"/>
      <point x="204" y="-112" type="line"/>
    </contour>
    <contour>
      <point x="186" y="230" type="curve" smooth="yes"/>
      <point x="174" y="152"/>
      <point x="218" y="86"/>
      <point x="298" y="84" type="curve" smooth="yes"/>
      <point x="365" y="83"/>
      <point x="423" y="118"/>
      <point x="459" y="160" type="curve"/>
      <point x="440" y="41" type="line"/>
      <point x="400" y="9"/>
      <point x="343" y="-10"/>
      <point x="283" y="-10" type="curve" smooth="yes"/>
      <point x="145" y="-10"/>
      <point x="59" y="98"/>
      <point x="78" y="230" type="curve" smooth="yes"/>
      <point x="98" y="366"/>
      <point x="216" y="470"/>
      <point x="358" y="470" type="curve" smooth="yes"/>
      <point x="416" y="470"/>
      <point x="467" y="452"/>
      <point x="503" y="418" type="curve"/>
      <point x="484" y="299" type="line"/>
      <point x="462" y="345"/>
      <point x="416" y="376"/>
      <point x="354" y="376" type="curve" smooth="yes"/>
      <point x="272" y="376"/>
      <point x="200" y="311"/>
    </contour>
    <contour>
      <point x="322" y="578" type="line"/>
      <point x="412" y="578" type="line"/>
      <point x="382" y="428" type="line"/>
      <point x="300" y="428" type="line"/>
    </contour>
  </outline>
</glyph>
<glyph name="sterling" format="2">
  <advance width="574"/>
  <unicode hex="00A3"/>
  <outline>
    <contour>
      <point x="100" y="370" type="line"/>
      <point x="460" y="370" type="line"/>
      <point x="444" y="285" type="line"/>
      <point x="85" y="285" type="line"/>
    </contour>
    <contour>
      <point x="486" y="474" type="line"/>
      <point x="489" y="534"/>
      <point x="474" y="604"/>
      <point x="396" y="606" type="curve" smooth="yes"/>
      <point x="338" y="608"/>
      <point x="284" y="570"/>
      <point x="273" y="510" type="curve" smooth="yes"/>
      <point x="257" y="418"/>
      <point x="336" y="363"/>
      <point x="324" y="266" type="curve" smooth="yes"/>
      <point x="308" y="160"/>
      <point x="211" y="78"/>
      <point x="124" y="51" type="curve"/>
      <point x="153" y="104" type="line"/>
      <point x="502" y="104" type="line"/>
      <point x="484" y="0" type="line"/>
      <point x="30" y="0" type="line"/>
      <point x="120" y="90"/>
      <point x="199" y="160"/>
      <point x="217" y="264" type="curve" smooth="yes"/>
      <point x="231" y="354"/>
      <point x="148" y="412"/>
      <point x="161" y="520" type="curve" smooth="yes"/>
      <point x="177" y="635"/>
      <point x="285" y="711"/>
      <point x="404" y="710" type="curve" smooth="yes"/>
      <point x="532" y="709"/>
      <point x="590" y="604"/>
      <point x="586" y="512" type="curve"/>
    </contour>
  </outline>
</glyph>
<glyph name="currency" format="2">
  <advance width="560"/>
  <unicode hex="00A4"/>
  <outline>
    <contour>
      <point x="88" y="504" type="line"/>
      <point x="150" y="558" type="line"/>
      <point x="228" y="458" type="line"/>
      <point x="169" y="408" type="line"/>
    </contour>
    <contour>
      <point x="66" y="42" type="line"/>
      <point x="20" y="100" type="line"/>
      <point x="128" y="192" type="line"/>
      <point x="174" y="136" type="line"/>
    </contour>
    <contour>
      <point x="482" y="408" type="line"/>
      <point x="435" y="464" type="line"/>
      <point x="544" y="558" type="line"/>
      <point x="590" y="501" type="line"/>
    </contour>
    <contour>
      <point x="380" y="140" type="line"/>
      <point x="442" y="192" type="line"/>
      <point x="520" y="94" type="line"/>
      <point x="461" y="42" type="line"/>
    </contour>
    <contour>
      <point x="73" y="300" type="curve" smooth="yes"/>
      <point x="93" y="432"/>
      <point x="206" y="540"/>
      <point x="342" y="540" type="curve" smooth="yes"/>
      <point x="476" y="540"/>
      <point x="556" y="428"/>
      <point x="538" y="300" type="curve" smooth="yes"/>
      <point x="518" y="168"/>
      <point x="404" y="60"/>
      <point x="268" y="60" type="curve" smooth="yes"/>
      <point x="134" y="60"/>
      <point x="55" y="172"/>
    </contour>
    <contour>
      <point x="174" y="300" type="curve" smooth="yes"/>
      <point x="162" y="228"/>
      <point x="200" y="160"/>
      <point x="278" y="160" type="curve" smooth="yes"/>
      <point x="356" y="160"/>
      <point x="422" y="224"/>
      <point x="435" y="300" type="curve" smooth="yes"/>
      <point x="447" y="372"/>
      <point x="410" y="440"/>
      <point x="332" y="440" type="curve" smooth="yes"/>
      <point x="254" y="440"/>
      <point x="187" y="376"/>
    </contour>
  </outline>
</glyph>
<glyph name="yen" format="2">
  <advance width="596"/>
  <unicode hex="00A5"/>
  <outline>
    <contour>
      <point x="64" y="280" type="line"/>
      <point x="78" y="365" type="line"/>
      <point x="586" y="365" type="line"/>
      <point x="572" y="280" type="line"/>
    </contour>
    <contour>
      <point x="38" y="130" type="line"/>
      <point x="53" y="215" type="line"/>
      <point x="560" y="215" type="line"/>
      <point x="546" y="130" type="line"/>
    </contour>
    <contour>
      <point x="548" y="700" type="line"/>
      <point x="682" y="700" type="line"/>
      <point x="382" y="295" type="line"/>
      <point x="332" y="0" type="line"/>
      <point x="212" y="0" type="line"/>
      <point x="265" y="299" type="line"/>
      <point x="104" y="700" type="line"/>
      <point x="232" y="700" type="line"/>
      <point x="338" y="402" type="line"/>
    </contour>
  </outline>
</glyph>
<glyph name="brokenbar" format="2">
  <advance width="295"/>
  <unicode hex="00A6"/>
  <outline>
    <contour>
      <point x="188" y="694" type="line"/>
      <point x="292" y="694" type="line"/>
      <point x="249" y="446" type="line"/>
      <point x="145" y="446" type="line"/>
    </contour>
    <contour>
      <point x="217" y="254" type="line"/>
      <point x="174" y="6" type="line"/>
      <point x="70" y="6" type="line"/>
      <point x="112" y="254" type="line"/>
    </contour>
  </outline>
</glyph>
<glyph name="section" format="2">
  <advance width="460"/>
  <unicode hex="00A7"/>
  <outline>
    <contour>
      <point x="408" y="568" type="line"/>
      <point x="387" y="600"/>
      <point x="354" y="620"/>
      <point x="318" y="620" type="curve" smooth="yes"/>
      <point x="286" y="620"/>
      <point x="252" y="606"/>
      <point x="248" y="580" type="curve" smooth="yes"/>
      <point x="242" y="546"/>
      <point x="300" y="528"/>
      <point x="338" y="512" type="curve" smooth="yes"/>
      <point x="400" y="486"/>
      <point x="453" y="440"/>
      <point x="444" y="372" type="curve" smooth="yes"/>
      <point x="430" y="272"/>
      <point x="336" y="240"/>
      <point x="239" y="237" type="curve"/>
      <point x="246" y="273" type="line"/>
      <point x="289" y="281"/>
      <point x="332" y="313"/>
      <point x="339" y="356" type="curve" smooth="yes"/>
      <point x="347" y="408"/>
      <point x="293" y="426"/>
      <point x="248" y="446" type="curve" smooth="yes"/>
      <point x="190" y="472"/>
      <point x="134" y="513"/>
      <point x="144" y="586" type="curve" smooth="yes"/>
      <point x="156" y="668"/>
      <point x="243" y="716"/>
      <point x="323" y="716" type="curve" smooth="yes"/>
      <point x="394" y="716"/>
      <point x="458" y="682"/>
      <point x="482" y="630" type="curve"/>
    </contour>
    <contour>
      <point x="104" y="166" type="line"/>
      <point x="124" y="116"/>
      <point x="164" y="80"/>
      <point x="216" y="80" type="curve" smooth="yes"/>
      <point x="254" y="80"/>
      <point x="290" y="98"/>
      <point x="296" y="130" type="curve" smooth="yes"/>
      <point x="304" y="172"/>
      <point x="255" y="189"/>
      <point x="213" y="207" type="curve" smooth="yes"/>
      <point x="150" y="232"/>
      <point x="88" y="276"/>
      <point x="98" y="350" type="curve" smooth="yes"/>
      <point x="112" y="441"/>
      <point x="204" y="476"/>
      <point x="306" y="479" type="curve"/>
      <point x="300" y="448" type="line"/>
      <point x="254" y="431"/>
      <point x="212" y="412"/>
      <point x="204" y="369" type="curve" smooth="yes"/>
      <point x="194" y="309"/>
      <point x="257" y="292"/>
      <point x="302" y="271" type="curve" smooth="yes"/>
      <point x="362" y="243"/>
      <point x="413" y="198"/>
      <point x="404" y="130" type="curve" smooth="yes"/>
      <point x="392" y="34"/>
      <point x="300" y="-14"/>
      <point x="206" y="-14" type="curve" smooth="yes"/>
      <point x="117" y="-14"/>
      <point x="52" y="35"/>
      <point x="29" y="105" type="curve"/>
    </contour>
  </outline>
</glyph>
<glyph name="dieresis" format="2">
  <advance width="471"/>
  <unicode hex="00A8"/>
  <outline>
    <contour>
      <point x="358" y="650" type="curve" smooth="yes"/>
      <point x="362" y="684"/>
      <point x="397" y="715"/>
      <point x="432" y="714" type="curve" smooth="yes"/>
      <point x="468" y="713"/>
      <point x="495" y="683"/>
      <point x="491" y="648" type="curve" smooth="yes"/>
      <point x="487" y="614"/>
      <point x="451" y="583"/>
      <point x="416" y="584" type="curve" smooth="yes"/>
      <point x="380" y="585"/>
      <point x="354" y="615"/>
    </contour>
    <contour>
      <point x="146" y="650" type="curve" smooth="yes"/>
      <point x="150" y="684"/>
      <point x="187" y="715"/>
      <point x="222" y="714" type="curve" smooth="yes"/>
      <point x="258" y="713"/>
      <point x="284" y="683"/>
      <point x="280" y="648" type="curve" smooth="yes"/>
      <point x="276" y="614"/>
      <point x="240" y="583"/>
      <point x="205" y="584" type="curve" smooth="yes"/>
      <point x="169" y="585"/>
      <point x="142" y="615"/>
    </contour>
  </outline>
</glyph>
<glyph name="copyright" format="2">
  <advance width="776"/>
  <unicode hex="00A9"/>
  <outline>
    <contour>
      <point x="288" y="350" type="curve" smooth="yes"/>
      <point x="276" y="270"/>
      <point x="321" y="203"/>
      <point x="402" y="202" type="curve" smooth="yes"/>
      <point x="458" y="201"/>
      <point x="505" y="228"/>
      <point x="541" y="260" type="curve"/>
      <point x="530" y="176" type="line"/>
      <point x="492" y="149"/>
      <point x="452" y="132"/>
      <point x="396" y="132" type="curve" smooth="yes"/>
      <point x="274" y="132"/>
      <point x="196" y="232"/>
      <point x="212" y="350" type="curve" smooth="yes"/>
      <point x="228" y="472"/>
      <point x="332" y="567"/>
      <point x="456" y="568" type="curve" smooth="yes"/>
      <point x="510" y="568"/>
      <point x="547" y="551"/>
      <point x="582" y="522" type="curve"/>
      <point x="570" y="439" type="line"/>
      <point x="543" y="474"/>
      <point x="506" y="498"/>
      <point x="454" y="498" type="curve" smooth="yes"/>
      <point x="372" y="498"/>
      <point x="301" y="434"/>
    </contour>
    <contour>
      <point x="130" y="350" type="curve" smooth="yes"/>
      <point x="106" y="188"/>
      <point x="202" y="40"/>
      <point x="374" y="40" type="curve" smooth="yes"/>
      <point x="548" y="40"/>
      <point x="694" y="180"/>
      <point x="720" y="350" type="curve" smooth="yes"/>
      <point x="744" y="512"/>
      <point x="648" y="660"/>
      <point x="476" y="660" type="curve" smooth="yes"/>
      <point x="302" y="660"/>
      <point x="156" y="520"/>
    </contour>
    <contour>
      <point x="74" y="350" type="curve" smooth="yes"/>
      <point x="102" y="550"/>
      <point x="272" y="710"/>
      <point x="476" y="710" type="curve" smooth="yes"/>
      <point x="677" y="710"/>
      <point x="801" y="542"/>
      <point x="775" y="350" type="curve" smooth="yes"/>
      <point x="747" y="150"/>
      <point x="577" y="-10"/>
      <point x="373" y="-10" type="curve" smooth="yes"/>
      <point x="172" y="-10"/>
      <point x="48" y="158"/>
    </contour>
  </outline>
</glyph>
<glyph name="ordfeminine" format="2">
  <advance width="242"/>
  <unicode hex="00AA"/>
  <outline>
    <contour>
      <point x="135" y="530" type="curve" smooth="yes"/>
      <point x="133" y="512"/>
      <point x="146" y="498"/>
      <point x="170" y="497" type="curve" smooth="yes"/>
      <point x="204" y="495"/>
      <point x="230" y="517"/>
      <point x="240" y="550" type="curve"/>
      <point x="244" y="524" type="line"/>
      <point x="232" y="484"/>
      <point x="198" y="455"/>
      <point x="150" y="456" type="curve" smooth="yes"/>
      <point x="107" y="457"/>
      <point x="75" y="487"/>
      <point x="81" y="531" type="curve" smooth="yes"/>
      <point x="89" y="577"/>
      <point x="140" y="608"/>
      <point x="188" y="608" type="curve" smooth="yes"/>
      <point x="222" y="608"/>
      <point x="248" y="593"/>
      <point x="262" y="580" type="curve"/>
      <point x="256" y="553" type="line"/>
      <point x="238" y="566"/>
      <point x="220" y="575"/>
      <point x="195" y="575" type="curve" smooth="yes"/>
      <point x="168" y="575"/>
      <point x="138" y="554"/>
    </contour>
    <contour>
      <point x="143" y="638" type="curve"/>
      <point x="128" y="679" type="line"/>
      <point x="154" y="691"/>
      <point x="184" y="705"/>
      <point x="222" y="705" type="curve" smooth="yes"/>
      <point x="272" y="705"/>
      <point x="310" y="679"/>
      <point x="306" y="632" type="curve"/>
      <point x="276" y="460" type="line"/>
      <point x="223" y="460" type="line"/>
      <point x="253" y="625" type="line"/>
      <point x="251" y="645"/>
      <point x="240" y="657"/>
      <point x="216" y="659" type="curve" smooth="yes"/>
      <point x="187" y="661"/>
      <point x="159" y="647"/>
    </contour>
  </outline>
</glyph>
<glyph name="guillemotleft" format="2">
  <advance width="506"/>
  <unicode hex="00AB"/>
  <outline>
    <contour>
      <point x="322" y="258" type="line"/>
      <point x="436" y="63" type="line"/>
      <point x="363" y="12" type="line"/>
      <point x="222" y="258" type="line"/>
      <point x="442" y="498" type="line"/>
      <point x="501" y="442" type="line"/>
    </contour>
    <contour>
      <point x="150" y="258" type="line"/>
      <point x="264" y="63" type="line"/>
      <point x="190" y="12" type="line"/>
      <point x="50" y="258" type="line"/>
      <point x="269" y="498" type="line"/>
      <point x="329" y="442" type="line"/>
    </contour>
  </outline>
</glyph>
<glyph name="logicalnot" format="2">
  <advance width="613"/>
  <unicode hex="00AC"/>
  <outline>
    <contour>
      <point x="84" y="289" type="line"/>
      <point x="102" y="386" type="line"/>
      <point x="591" y="386" type="line"/>
      <point x="554" y="176" type="line"/>
      <point x="468" y="176" type="line"/>
      <point x="488" y="289" type="line"/>
    </contour>
  </outline>
</glyph>
<glyph name="registered" format="2">
  <advance width="776"/>
  <unicode hex="00AE"/>
  <outline>
    <contour>
      <point x="385" y="346" type="line"/>
      <point x="454" y="346" type="line"/>
      <point x="558" y="150" type="line"/>
      <point x="476" y="150" type="line"/>
    </contour>
    <contour>
      <point x="328" y="570" type="line"/>
      <point x="398" y="570" type="line"/>
      <point x="334" y="150" type="line"/>
      <point x="264" y="150" type="line"/>
    </contour>
    <contour>
      <point x="360" y="509" type="line"/>
      <point x="369" y="570" type="line"/>
      <point x="452" y="570" type="line"/>
      <point x="534" y="568"/>
      <point x="592" y="519"/>
      <point x="582" y="442" type="curve" smooth="yes"/>
      <point x="572" y="363"/>
      <point x="502" y="314"/>
      <point x="418" y="312" type="curve"/>
      <point x="329" y="312" type="line"/>
      <point x="338" y="370" type="line"/>
      <point x="418" y="370" type="line"/>
      <point x="463" y="372"/>
      <point x="504" y="396"/>
      <point x="510" y="440" type="curve" smooth="yes"/>
      <point x="516" y="482"/>
      <point x="487" y="506"/>
      <point x="444" y="508" type="curve"/>
    </contour>
    <contour>
      <point x="130" y="350" type="curve" smooth="yes"/>
      <point x="106" y="188"/>
      <point x="202" y="40"/>
      <point x="374" y="40" type="curve" smooth="yes"/>
      <point x="548" y="40"/>
      <point x="694" y="180"/>
      <point x="720" y="350" type="curve" smooth="yes"/>
      <point x="744" y="512"/>
      <point x="648" y="660"/>
      <point x="476" y="660" type="curve" smooth="yes"/>
      <point x="302" y="660"/>
      <point x="156" y="520"/>
    </contour>
    <contour>
      <point x="74" y="350" type="curve" smooth="yes"/>
      <point x="102" y="550"/>
      <point x="272" y="710"/>
      <point x="476" y="710" type="curve" smooth="yes"/>
      <point x="677" y="710"/>
      <point x="801" y="542"/>
      <point x="775" y="350" type="curve" smooth="yes"/>
      <point x="747" y="150"/>
      <point x="577" y="-10"/>
      <point x="373" y="-10" type="curve" smooth="yes"/>
      <point x="172" y="-10"/>
      <point x="48" y="158"/>
    </contour>
  </outline>
</glyph>
<glyph name="macron" format="2">
  <advance width="502"/>
  <unicode hex="00AF"/>
  <outline>
    <contour>
      <point x="151" y="589" type="line"/>
      <point x="166" y="686" type="line"/>
      <point x="516" y="686" type="line"/>
      <point x="501" y="589" type="line"/>
    </contour>
  </outline>
</glyph>
<glyph name="degree" format="2">
  <advance width="276"/>
  <unicode hex="00B0"/>
  <outline>
    <contour>
      <point x="92" y="600" type="curve" smooth="yes"/>
      <point x="102" y="667"/>
      <point x="163" y="720"/>
      <point x="232" y="720" type="curve" smooth="yes"/>
      <point x="301" y="720"/>
      <point x="344" y="664"/>
      <point x="335" y="598" type="curve" smooth="yes"/>
      <point x="325" y="531"/>
      <point x="266" y="478"/>
      <point x="196" y="478" type="curve" smooth="yes"/>
      <point x="127" y="478"/>
      <point x="83" y="534"/>
    </contour>
    <contour>
      <point x="145" y="598" type="curve" smooth="yes"/>
      <point x="139" y="562"/>
      <point x="161" y="526"/>
      <point x="199" y="526" type="curve" smooth="yes"/>
      <point x="239" y="526"/>
      <point x="276" y="560"/>
      <point x="282" y="599" type="curve" smooth="yes"/>
      <point x="288" y="635"/>
      <point x="266" y="672"/>
      <point x="228" y="672" type="curve" smooth="yes"/>
      <point x="188" y="672"/>
      <point x="151" y="637"/>
    </contour>
  </outline>
</glyph>
<glyph name="plusminus" format="2">
  <advance width="603"/>
  <unicode hex="00B1"/>
  <outline>
    <contour>
      <point x="46" y="2" type="line"/>
      <point x="61" y="102" type="line"/>
      <point x="542" y="102" type="line"/>
      <point x="526" y="2" type="line"/>
    </contour>
    <contour>
      <point x="98" y="340" type="line"/>
      <point x="114" y="443" type="line"/>
      <point x="594" y="443" type="line"/>
      <point x="578" y="340" type="line"/>
    </contour>
    <contour>
      <point x="324" y="620" type="line"/>
      <point x="437" y="620" type="line"/>
      <point x="365" y="162" type="line"/>
      <point x="255" y="162" type="line"/>
    </contour>
  </outline>
</glyph>
<glyph name="uni00B2" format="2">
  <advance width="359"/>
  <unicode hex="00B2"/>
  <outline>
    <contour>
      <point x="44" y="283" type="line"/>
      <point x="266" y="487" type="line" smooth="yes"/>
      <point x="296" y="515"/>
      <point x="325" y="544"/>
      <point x="331" y="580" type="curve" smooth="yes"/>
      <point x="335" y="612"/>
      <point x="319" y="644"/>
      <point x="279" y="646" type="curve" smooth="yes"/>
      <point x="229" y="649"/>
      <point x="195" y="602"/>
      <point x="184" y="554" type="curve"/>
      <point x="113" y="555" type="line"/>
      <point x="131" y="639"/>
      <point x="190" y="711"/>
      <point x="285" y="710" type="curve" smooth="yes"/>
      <point x="370" y="710"/>
      <point x="412" y="643"/>
      <point x="402" y="578" type="curve" smooth="yes"/>
      <point x="394" y="532"/>
      <point x="365" y="496"/>
      <point x="329" y="464" type="curve" smooth="yes"/>
      <point x="194" y="348" type="line"/>
      <point x="368" y="348" type="line"/>
      <point x="356" y="282" type="line"/>
    </contour>
  </outline>
</glyph>
<glyph name="uni00B3" format="2">
  <advance width="323"/>
  <unicode hex="00B3"/>
  <outline>
    <contour>
      <point x="198" y="486" type="curve"/>
      <point x="204" y="524" type="line"/>
      <point x="250" y="528"/>
      <point x="288" y="550"/>
      <point x="296" y="590" type="curve" smooth="yes"/>
      <point x="300" y="620"/>
      <point x="286" y="645"/>
      <point x="252" y="646" type="curve" smooth="yes"/>
      <point x="216" y="648"/>
      <point x="189" y="619"/>
      <point x="179" y="589" type="curve"/>
      <point x="112" y="590" type="line"/>
      <point x="128" y="655"/>
      <point x="180" y="706"/>
      <point x="256" y="706" type="curve" smooth="yes"/>
      <point x="328" y="706"/>
      <point x="376" y="654"/>
      <point x="366" y="592" type="curve" smooth="yes"/>
      <point x="354" y="521"/>
      <point x="278" y="490"/>
    </contour>
    <contour>
      <point x="185" y="272" type="curve" smooth="yes"/>
      <point x="101" y="272"/>
      <point x="58" y="330"/>
      <point x="62" y="400" type="curve"/>
      <point x="130" y="400" type="line"/>
      <point x="130" y="362"/>
      <point x="148" y="335"/>
      <point x="190" y="334" type="curve" smooth="yes"/>
      <point x="230" y="333"/>
      <point x="268" y="363"/>
      <point x="274" y="401" type="curve" smooth="yes"/>
      <point x="282" y="449"/>
      <point x="242" y="467"/>
      <point x="194" y="471" type="curve"/>
      <point x="200" y="510" type="line"/>
      <point x="282" y="506"/>
      <point x="356" y="476"/>
      <point x="344" y="392" type="curve" smooth="yes"/>
      <point x="334" y="320"/>
      <point x="264" y="272"/>
    </contour>
  </outline>
</glyph>
<glyph name="acute" format="2">
  <advance width="363"/>
  <unicode hex="00B4"/>
  <outline>
    <contour>
      <point x="384" y="656" type="line"/>
      <point x="188" y="508" type="line"/>
      <point x="130" y="544" type="line"/>
      <point x="298" y="702" type="line"/>
    </contour>
  </outline>
</glyph>
<glyph name="mu" format="2">
  <advance width="533"/>
  <unicode hex="00B5"/>
  <outline>
    <contour>
      <point x="228" y="460" type="line"/>
      <point x="177" y="182" type="line" smooth="yes"/>
      <point x="170" y="128"/>
      <point x="188" y="88"/>
      <point x="244" y="88" type="curve" smooth="yes"/>
      <point x="304" y="88"/>
      <point x="350" y="129"/>
      <point x="360" y="187" type="curve" smooth="yes"/>
      <point x="409" y="460" type="line"/>
      <point x="514" y="460" type="line"/>
      <point x="436" y="0" type="line"/>
      <point x="328" y="0" type="line"/>
      <point x="338" y="56" type="line"/>
      <point x="307" y="17"/>
      <point x="263" y="-8"/>
      <point x="214" y="-8" type="curve" smooth="yes"/>
      <point x="186" y="-8"/>
      <point x="166" y="-1"/>
      <point x="146" y="13" type="curve"/>
      <point x="89" y="-320" type="line"/>
      <point x="-15" y="-320" type="line"/>
      <point x="118" y="460" type="line"/>
    </contour>
  </outline>
</glyph>
<glyph name="paragraph" format="2">
  <advance width="596"/>
  <unicode hex="00B6"/>
  <outline>
    <contour>
      <point x="298" y="271" type="line"/>
      <point x="177" y="279"/>
      <point x="94" y="358"/>
      <point x="113" y="486" type="curve" smooth="yes"/>
      <point x="134" y="620"/>
      <point x="243" y="700"/>
      <point x="371" y="700" type="curve" smooth="yes"/>
      <point x="632" y="700" type="line"/>
      <point x="476" y="-220" type="line"/>
      <point x="382" y="-220" type="line"/>
      <point x="526" y="624" type="line"/>
      <point x="452" y="624" type="line"/>
      <point x="308" y="-220" type="line"/>
      <point x="214" y="-220" type="line"/>
    </contour>
  </outline>
</glyph>
<glyph name="periodcentered" format="2">
  <advance width="299"/>
  <unicode hex="00B7"/>
  <outline>
    <contour>
      <point x="96" y="252" type="curve" smooth="yes"/>
      <point x="100" y="288"/>
      <point x="138" y="321"/>
      <point x="176" y="320" type="curve" smooth="yes"/>
      <point x="214" y="319"/>
      <point x="239" y="286"/>
      <point x="235" y="250" type="curve" smooth="yes"/>
      <point x="231" y="214"/>
      <point x="194" y="181"/>
      <point x="156" y="182" type="curve" smooth="yes"/>
      <point x="118" y="183"/>
      <point x="92" y="216"/>
    </contour>
  </outline>
</glyph>
<glyph name="cedilla" format="2">
  <advance width="356"/>
  <unicode hex="00B8"/>
  <outline>
    <contour>
      <point x="167" y="64" type="line"/>
      <point x="249" y="62" type="line"/>
      <point x="156" y="-53" type="line"/>
      <point x="162" y="-52"/>
      <point x="168" y="-52"/>
      <point x="174" y="-52" type="curve" smooth="yes"/>
      <point x="214" y="-55"/>
      <point x="247" y="-86"/>
      <point x="241" y="-136" type="curve" smooth="yes"/>
      <point x="233" y="-198"/>
      <point x="169" y="-234"/>
      <point x="112" y="-234" type="curve" smooth="yes"/>
      <point x="70" y="-234"/>
      <point x="41" y="-220"/>
      <point x="8" y="-194" type="curve"/>
      <point x="52" y="-146" type="line"/>
      <point x="70" y="-160"/>
      <point x="88" y="-170"/>
      <point x="110" y="-170" type="curve" smooth="yes"/>
      <point x="137" y="-170"/>
      <point x="168" y="-154"/>
      <point x="170" y="-131" type="curve" smooth="yes"/>
      <point x="172" y="-108"/>
      <point x="149" y="-97"/>
      <point x="125" y="-97" type="curve" smooth="yes"/>
      <point x="108" y="-96"/>
      <point x="80" y="-103"/>
      <point x="55" y="-113" type="curve"/>
    </contour>
  </outline>
</glyph>
<glyph name="ordmasculine" format="2">
  <advance width="269"/>
  <unicode hex="00BA"/>
  <outline>
    <contour>
      <point x="90" y="580" type="curve" smooth="yes"/>
      <point x="100" y="647"/>
      <point x="159" y="700"/>
      <point x="228" y="700" type="curve" smooth="yes"/>
      <point x="297" y="700"/>
      <point x="341" y="646"/>
      <point x="332" y="580" type="curve" smooth="yes"/>
      <point x="322" y="513"/>
      <point x="263" y="460"/>
      <point x="194" y="460" type="curve" smooth="yes"/>
      <point x="125" y="460"/>
      <point x="81" y="514"/>
    </contour>
    <contour>
      <point x="144" y="580" type="curve" smooth="yes"/>
      <point x="138" y="544"/>
      <point x="158" y="508"/>
      <point x="196" y="508" type="curve" smooth="yes"/>
      <point x="235" y="508"/>
      <point x="272" y="542"/>
      <point x="278" y="580" type="curve" smooth="yes"/>
      <point x="284" y="616"/>
      <point x="264" y="652"/>
      <point x="226" y="652" type="curve" smooth="yes"/>
      <point x="187" y="652"/>
      <point x="150" y="618"/>
    </contour>
  </outline>
</glyph>
<glyph name="guillemotright" format="2">
  <advance width="506"/>
  <unicode hex="00BB"/>
  <outline>
    <contour>
      <point x="218" y="252" type="line"/>
      <point x="104" y="447" type="line"/>
      <point x="177" y="498" type="line"/>
      <point x="318" y="252" type="line"/>
      <point x="99" y="12" type="line"/>
      <point x="39" y="68" type="line"/>
    </contour>
    <contour>
      <point x="390" y="252" type="line"/>
      <point x="276" y="447" type="line"/>
      <point x="350" y="498" type="line"/>
      <point x="490" y="252" type="line"/>
      <point x="270" y="12" type="line"/>
      <point x="211" y="68" type="line"/>
    </contour>
  </outline>
</glyph>
<glyph name="onequarter" format="2">
  <advance width="757"/>
  <unicode hex="00BC"/>
  <outline>
    <contour>
      <point x="694" y="699" type="line"/>
      <point x="774" y="698" type="line"/>
      <point x="151" y="0" type="line"/>
      <point x="71" y="0" type="line"/>
    </contour>
    <contour>
      <point x="101" y="596" type="line"/>
      <point x="112" y="663" type="line"/>
      <point x="284" y="702" type="line"/>
      <point x="210" y="274" type="line"/>
      <point x="140" y="274" type="line"/>
      <point x="198" y="622" type="line"/>
    </contour>
    <contour>
      <point x="375" y="81" type="line"/>
      <point x="440" y="136" type="line"/>
      <point x="618" y="137" type="line"/>
      <point x="628" y="142" type="line"/>
      <point x="724" y="142" type="line"/>
      <point x="713" y="80" type="line"/>
    </contour>
    <contour>
      <point x="452" y="93" type="line"/>
      <point x="374" y="80" type="line"/>
      <point x="662" y="419" type="line"/>
      <point x="707" y="420" type="line"/>
      <point x="636" y="0" type="line"/>
      <point x="562" y="0" type="line"/>
      <point x="580" y="102" type="line"/>
      <point x="586" y="108" type="line"/>
      <point x="616" y="286" type="line"/>
    </contour>
  </outline>
</glyph>
<glyph name="onehalf" format="2">
  <advance width="823"/>
  <unicode hex="00BD"/>
  <outline>
    <contour>
      <point x="694" y="699" type="line"/>
      <point x="774" y="698" type="line"/>
      <point x="151" y="0" type="line"/>
      <point x="71" y="0" type="line"/>
    </contour>
    <contour>
      <point x="101" y="596" type="line"/>
      <point x="112" y="663" type="line"/>
      <point x="284" y="702" type="line"/>
      <point x="210" y="274" type="line"/>
      <point x="140" y="274" type="line"/>
      <point x="198" y="622" type="line"/>
    </contour>
    <contour>
      <point x="455" y="3" type="line"/>
      <point x="677" y="207" type="line" smooth="yes"/>
      <point x="707" y="235"/>
      <point x="736" y="264"/>
      <point x="742" y="300" type="curve" smooth="yes"/>
      <point x="746" y="332"/>
      <point x="730" y="363"/>
      <point x="690" y="365" type="curve" smooth="yes"/>
      <point x="640" y="368"/>
      <point x="606" y="322"/>
      <point x="595" y="274" type="curve"/>
      <point x="524" y="275" type="line"/>
      <point x="542" y="359"/>
      <point x="601" y="431"/>
      <point x="696" y="430" type="curve" smooth="yes"/>
      <point x="781" y="430"/>
      <point x="824" y="363"/>
      <point x="814" y="298" type="curve" smooth="yes"/>
      <point x="806" y="252"/>
      <point x="776" y="216"/>
      <point x="740" y="184" type="curve" smooth="yes"/>
      <point x="606" y="68" type="line"/>
      <point x="779" y="68" type="line"/>
      <point x="768" y="2" type="line"/>
    </contour>
  </outline>
</glyph>
<glyph name="threequarters" format="2">
  <advance width="818"/>
  <unicode hex="00BE"/>
  <outline>
    <contour>
      <point x="758" y="699" type="line"/>
      <point x="838" y="698" type="line"/>
      <point x="214" y="0" type="line"/>
      <point x="135" y="0" type="line"/>
    </contour>
    <contour>
      <point x="204" y="486" type="curve"/>
      <point x="210" y="524" type="line"/>
      <point x="256" y="528"/>
      <point x="294" y="550"/>
      <point x="302" y="590" type="curve" smooth="yes"/>
      <point x="306" y="620"/>
      <point x="292" y="645"/>
      <point x="258" y="646" type="curve" smooth="yes"/>
      <point x="222" y="648"/>
      <point x="194" y="619"/>
      <point x="184" y="589" type="curve"/>
      <point x="118" y="590" type="line"/>
      <point x="134" y="655"/>
      <point x="186" y="706"/>
      <point x="262" y="706" type="curve" smooth="yes"/>
      <point x="334" y="706"/>
      <point x="382" y="654"/>
      <point x="372" y="592" type="curve" smooth="yes"/>
      <point x="360" y="521"/>
      <point x="284" y="490"/>
    </contour>
    <contour>
      <point x="192" y="272" type="curve" smooth="yes"/>
      <point x="108" y="272"/>
      <point x="64" y="330"/>
      <point x="68" y="400" type="curve"/>
      <point x="137" y="400" type="line"/>
      <point x="137" y="362"/>
      <point x="154" y="335"/>
      <point x="196" y="334" type="curve" smooth="yes"/>
      <point x="236" y="333"/>
      <point x="274" y="363"/>
      <point x="280" y="401" type="curve" smooth="yes"/>
      <point x="288" y="449"/>
      <point x="248" y="467"/>
      <point x="200" y="471" type="curve"/>
      <point x="206" y="510" type="line"/>
      <point x="288" y="506"/>
      <point x="362" y="476"/>
      <point x="350" y="392" type="curve" smooth="yes"/>
      <point x="340" y="320"/>
      <point x="271" y="272"/>
    </contour>
    <contour>
      <point x="436" y="81" type="line"/>
      <point x="500" y="136" type="line"/>
      <point x="679" y="137" type="line"/>
      <point x="690" y="142" type="line"/>
      <point x="785" y="142" type="line"/>
      <point x="774" y="80" type="line"/>
    </contour>
    <contour>
      <point x="513" y="93" type="line"/>
      <point x="434" y="80" type="line"/>
      <point x="724" y="419" type="line"/>
      <point x="768" y="420" type="line"/>
      <point x="696" y="0" type="line"/>
      <point x="624" y="0" type="line"/>
      <point x="642" y="102" type="line"/>
      <point x="647" y="108" type="line"/>
      <point x="678" y="286" type="line"/>
    </contour>
  </outline>
</glyph>
<glyph name="questiondown" format="2">
  <advance width="567"/>
  <unicode hex="00BF"/>
  <outline>
    <contour>
      <point x="170" y="200" type="curve" smooth="yes"/>
      <point x="158" y="130"/>
      <point x="199" y="84"/>
      <point x="275" y="84" type="curve" smooth="yes"/>
      <point x="341" y="83"/>
      <point x="396" y="120"/>
      <point x="436" y="166" type="curve"/>
      <point x="507" y="107" type="line"/>
      <point x="443" y="37"/>
      <point x="366" y="-15"/>
      <point x="256" y="-14" type="curve" smooth="yes"/>
      <point x="133" y="-13"/>
      <point x="44" y="80"/>
      <point x="62" y="200" type="curve" smooth="yes"/>
      <point x="81" y="318"/>
      <point x="190" y="394"/>
      <point x="302" y="412" type="curve"/>
      <point x="328" y="518" type="line"/>
      <point x="412" y="518" type="line"/>
      <point x="403" y="341" type="line"/>
      <point x="376" y="341" type="line"/>
      <point x="272" y="339"/>
      <point x="186" y="278"/>
    </contour>
    <contour>
      <point x="462" y="651" type="curve" smooth="yes"/>
      <point x="458" y="617"/>
      <point x="418" y="585"/>
      <point x="382" y="586" type="curve" smooth="yes"/>
      <point x="345" y="587"/>
      <point x="319" y="618"/>
      <point x="323" y="653" type="curve" smooth="yes"/>
      <point x="327" y="687"/>
      <point x="366" y="719"/>
      <point x="402" y="718" type="curve" smooth="yes"/>
      <point x="439" y="717"/>
      <point x="466" y="686"/>
    </contour>
  </outline>
</glyph>
<glyph name="Aacute" format="2">
  <advance width="669"/>
  <unicode hex="00C1"/>
  <outline>
    <contour>
      <point x="160" y="181" type="line"/>
      <point x="199" y="280" type="line"/>
      <point x="516" y="280" type="line"/>
      <point x="521" y="180" type="line"/>
    </contour>
    <contour>
      <point x="396" y="502" type="line"/>
      <point x="245" y="245" type="line"/>
      <point x="239" y="219" type="line"/>
      <point x="107" y="0" type="line"/>
      <point x="-28" y="0" type="line"/>
      <point x="434" y="740" type="line"/>
      <point x="639" y="0" type="line"/>
      <point x="511" y="0" type="line"/>
      <point x="454" y="213" type="line"/>
      <point x="458" y="242" type="line"/>
    </contour>
    <contour>
      <point x="608" y="946" type="line"/>
      <point x="410" y="800" type="line"/>
      <point x="352" y="836" type="line"/>
      <point x="523" y="993" type="line"/>
    </contour>
  </outline>
</glyph>
<glyph name="Acircumflex" format="2">
  <advance width="669"/>
  <unicode hex="00C2"/>
  <outline>
    <contour>
      <point x="160" y="181" type="line"/>
      <point x="199" y="280" type="line"/>
      <point x="516" y="280" type="line"/>
      <point x="521" y="180" type="line"/>
    </contour>
    <contour>
      <point x="396" y="502" type="line"/>
      <point x="245" y="245" type="line"/>
      <point x="239" y="219" type="line"/>
      <point x="107" y="0" type="line"/>
      <point x="-28" y="0" type="line"/>
      <point x="434" y="740" type="line"/>
      <point x="639" y="0" type="line"/>
      <point x="511" y="0" type="line"/>
      <point x="454" y="213" type="line"/>
      <point x="458" y="242" type="line"/>
    </contour>
    <contour>
      <point x="458" y="860" type="line"/>
      <point x="342" y="770" type="line"/>
      <point x="278" y="823" type="line"/>
      <point x="470" y="961" type="line"/>
      <point x="618" y="820" type="line"/>
      <point x="541" y="769" type="line"/>
    </contour>
  </outline>
</glyph>
<glyph name="Atilde" format="2">
  <advance width="669"/>
  <unicode hex="00C3"/>
  <outline>
    <contour>
      <point x="160" y="181" type="line"/>
      <point x="199" y="280" type="line"/>
      <point x="516" y="280" type="line"/>
      <point x="521" y="180" type="line"/>
    </contour>
    <contour>
      <point x="396" y="502" type="line"/>
      <point x="245" y="245" type="line"/>
      <point x="239" y="219" type="line"/>
      <point x="107" y="0" type="line"/>
      <point x="-28" y="0" type="line"/>
      <point x="434" y="740" type="line"/>
      <point x="639" y="0" type="line"/>
      <point x="511" y="0" type="line"/>
      <point x="454" y="213" type="line"/>
      <point x="458" y="242" type="line"/>
    </contour>
    <contour>
      <point x="276" y="834" type="line"/>
      <point x="296" y="878"/>
      <point x="342" y="920"/>
      <point x="396" y="918" type="curve" smooth="yes"/>
      <point x="449" y="917"/>
      <point x="465" y="869"/>
      <point x="513" y="871" type="curve" smooth="yes"/>
      <point x="539" y="872"/>
      <point x="561" y="895"/>
      <point x="581" y="920" type="curve"/>
      <point x="628" y="863" type="line"/>
      <point x="604" y="827"/>
      <point x="558" y="786"/>
      <point x="504" y="788" type="curve" smooth="yes"/>
      <point x="456" y="790"/>
      <point x="432" y="838"/>
      <point x="388" y="836" type="curve" smooth="yes"/>
      <point x="353" y="834"/>
      <point x="338" y="804"/>
      <point x="330" y="786" type="curve"/>
    </contour>
  </outline>
</glyph>
<glyph name="Adieresis" format="2">
  <advance width="669"/>
  <unicode hex="00C4"/>
  <outline>
    <contour>
      <point x="160" y="181" type="line"/>
      <point x="199" y="280" type="line"/>
      <point x="516" y="280" type="line"/>
      <point x="521" y="180" type="line"/>
    </contour>
    <contour>
      <point x="396" y="502" type="line"/>
      <point x="245" y="245" type="line"/>
      <point x="239" y="219" type="line"/>
      <point x="107" y="0" type="line"/>
      <point x="-28" y="0" type="line"/>
      <point x="434" y="740" type="line"/>
      <point x="639" y="0" type="line"/>
      <point x="511" y="0" type="line"/>
      <point x="454" y="213" type="line"/>
      <point x="458" y="242" type="line"/>
    </contour>
    <contour>
      <point x="498" y="843" type="curve" smooth="yes"/>
      <point x="502" y="877"/>
      <point x="539" y="909"/>
      <point x="574" y="908" type="curve" smooth="yes"/>
      <point x="610" y="907"/>
      <point x="635" y="876"/>
      <point x="631" y="841" type="curve" smooth="yes"/>
      <point x="627" y="807"/>
      <point x="589" y="775"/>
      <point x="554" y="776" type="curve" smooth="yes"/>
      <point x="518" y="777"/>
      <point x="494" y="808"/>
    </contour>
    <contour>
      <point x="270" y="846" type="curve" smooth="yes"/>
      <point x="274" y="880"/>
      <point x="311" y="911"/>
      <point x="346" y="910" type="curve" smooth="yes"/>
      <point x="382" y="909"/>
      <point x="408" y="878"/>
      <point x="404" y="843" type="curve" smooth="yes"/>
      <point x="400" y="809"/>
      <point x="362" y="779"/>
      <point x="327" y="780" type="curve" smooth="yes"/>
      <point x="291" y="781"/>
      <point x="266" y="811"/>
    </contour>
  </outline>
</glyph>
<glyph name="Aring" format="2">
  <advance width="669"/>
  <unicode hex="00C5"/>
  <outline>
    <contour>
      <point x="160" y="181" type="line"/>
      <point x="199" y="280" type="line"/>
      <point x="516" y="280" type="line"/>
      <point x="521" y="180" type="line"/>
    </contour>
    <contour>
      <point x="396" y="502" type="line"/>
      <point x="245" y="245" type="line"/>
      <point x="239" y="219" type="line"/>
      <point x="107" y="0" type="line"/>
      <point x="-28" y="0" type="line"/>
      <point x="434" y="740" type="line"/>
      <point x="639" y="0" type="line"/>
      <point x="511" y="0" type="line"/>
      <point x="454" y="213" type="line"/>
      <point x="458" y="242" type="line"/>
    </contour>
    <contour>
      <point x="336" y="800" type="curve" smooth="yes"/>
      <point x="344" y="860"/>
      <point x="402" y="904"/>
      <point x="460" y="904" type="curve" smooth="yes"/>
      <point x="518" y="904"/>
      <point x="561" y="858"/>
      <point x="553" y="798" type="curve" smooth="yes"/>
      <point x="545" y="738"/>
      <point x="486" y="694"/>
      <point x="428" y="694" type="curve" smooth="yes"/>
      <point x="370" y="694"/>
      <point x="328" y="741"/>
    </contour>
    <contour>
      <point x="396" y="798" type="curve" smooth="yes"/>
      <point x="393" y="772"/>
      <point x="409" y="750"/>
      <point x="433" y="748" type="curve" smooth="yes"/>
      <point x="457" y="746"/>
      <point x="489" y="774"/>
      <point x="492" y="800" type="curve" smooth="yes"/>
      <point x="495" y="826"/>
      <point x="478" y="848"/>
      <point x="454" y="850" type="curve" smooth="yes"/>
      <point x="430" y="852"/>
      <point x="399" y="824"/>
    </contour>
  </outline>
</glyph>
<glyph name="AE" format="2">
  <advance width="979"/>
  <unicode hex="00C6"/>
  <outline>
    <contour>
      <point x="235" y="186" type="line"/>
      <point x="257" y="296" type="line"/>
      <point x="550" y="296" type="line"/>
      <point x="531" y="186" type="line"/>
    </contour>
    <contour>
      <point x="518" y="700" type="line"/>
      <point x="614" y="658" type="line"/>
      <point x="122" y="0" type="line"/>
      <point x="-20" y="0" type="line"/>
    </contour>
    <contour>
      <point x="530" y="0" type="line"/>
      <point x="548" y="104" type="line"/>
      <point x="904" y="104" type="line"/>
      <point x="886" y="0" type="line"/>
    </contour>
    <contour>
      <point x="644" y="596" type="line"/>
      <point x="518" y="700" type="line"/>
      <point x="1006" y="700" type="line"/>
      <point x="988" y="596" type="line"/>
    </contour>
    <contour>
      <point x="586" y="324" type="line"/>
      <point x="603" y="426" type="line"/>
      <point x="940" y="426" type="line"/>
      <point x="922" y="324" type="line"/>
    </contour>
    <contour>
      <point x="590" y="700" type="line"/>
      <point x="712" y="700" type="line"/>
      <point x="592" y="0" type="line"/>
      <point x="471" y="0" type="line"/>
    </contour>
  </outline>
</glyph>
<glyph name="Ccedilla" format="2">
  <advance width="670"/>
  <unicode hex="00C7"/>
  <outline>
    <contour>
      <point x="194" y="350" type="curve" smooth="yes"/>
      <point x="174" y="220"/>
      <point x="248" y="106"/>
      <point x="380" y="104" type="curve" smooth="yes"/>
      <point x="475" y="103"/>
      <point x="552" y="148"/>
      <point x="612" y="202" type="curve"/>
      <point x="591" y="62" type="line"/>
      <point x="527" y="16"/>
      <point x="457" y="-12"/>
      <point x="364" y="-12" type="curve" smooth="yes"/>
      <point x="160" y="-11"/>
      <point x="40" y="156"/>
      <point x="68" y="350" type="curve" smooth="yes"/>
      <point x="99" y="553"/>
      <point x="272" y="712"/>
      <point x="480" y="712" type="curve" smooth="yes"/>
      <point x="568" y="712"/>
      <point x="632" y="688"/>
      <point x="688" y="638" type="curve"/>
      <point x="666" y="497" type="line"/>
      <point x="624" y="557"/>
      <point x="560" y="596"/>
      <point x="472" y="596" type="curve" smooth="yes"/>
      <point x="338" y="596"/>
      <point x="217" y="488"/>
    </contour>
    <contour>
      <point x="340" y="54" type="line"/>
      <point x="422" y="52" type="line"/>
      <point x="329" y="-63" type="line"/>
      <point x="335" y="-62"/>
      <point x="341" y="-62"/>
      <point x="347" y="-62" type="curve" smooth="yes"/>
      <point x="387" y="-65"/>
      <point x="420" y="-97"/>
      <point x="414" y="-146" type="curve" smooth="yes"/>
      <point x="406" y="-207"/>
      <point x="343" y="-244"/>
      <point x="286" y="-244" type="curve" smooth="yes"/>
      <point x="244" y="-244"/>
      <point x="214" y="-230"/>
      <point x="181" y="-204" type="curve"/>
      <point x="225" y="-156" type="line"/>
      <point x="243" y="-170"/>
      <point x="262" y="-179"/>
      <point x="284" y="-179" type="curve" smooth="yes"/>
      <point x="311" y="-179"/>
      <point x="341" y="-163"/>
      <point x="343" y="-140" type="curve" smooth="yes"/>
      <point x="345" y="-117"/>
      <point x="322" y="-107"/>
      <point x="298" y="-107" type="curve" smooth="yes"/>
      <point x="281" y="-106"/>
      <point x="253" y="-113"/>
      <point x="228" y="-123" type="curve"/>
    </contour>
  </outline>
</glyph>
<glyph name="Eacute" format="2">
  <advance width="554"/>
  <unicode hex="00C9"/>
  <outline>
    <contour>
      <point x="119" y="0" type="line"/>
      <point x="136" y="104" type="line"/>
      <point x="482" y="104" type="line"/>
      <point x="464" y="0" type="line"/>
    </contour>
    <contour>
      <point x="221" y="596" type="line"/>
      <point x="238" y="700" type="line"/>
      <point x="583" y="700" type="line"/>
      <point x="565" y="596" type="line"/>
    </contour>
    <contour>
      <point x="174" y="324" type="line"/>
      <point x="192" y="426" type="line"/>
      <point x="517" y="426" type="line"/>
      <point x="499" y="324" type="line"/>
    </contour>
    <contour>
      <point x="166" y="700" type="line"/>
      <point x="282" y="700" type="line"/>
      <point x="162" y="0" type="line"/>
      <point x="48" y="0" type="line"/>
    </contour>
    <contour>
      <point x="551" y="922" type="line"/>
      <point x="352" y="776" type="line"/>
      <point x="295" y="812" type="line"/>
      <point x="466" y="970" type="line"/>
    </contour>
  </outline>
</glyph>
<glyph name="Ecircumflex" format="2">
  <advance width="554"/>
  <unicode hex="00CA"/>
  <outline>
    <contour>
      <point x="119" y="0" type="line"/>
      <point x="136" y="104" type="line"/>
      <point x="482" y="104" type="line"/>
      <point x="464" y="0" type="line"/>
    </contour>
    <contour>
      <point x="221" y="596" type="line"/>
      <point x="238" y="700" type="line"/>
      <point x="583" y="700" type="line"/>
      <point x="565" y="596" type="line"/>
    </contour>
    <contour>
      <point x="174" y="324" type="line"/>
      <point x="192" y="426" type="line"/>
      <point x="517" y="426" type="line"/>
      <point x="499" y="324" type="line"/>
    </contour>
    <contour>
      <point x="166" y="700" type="line"/>
      <point x="282" y="700" type="line"/>
      <point x="162" y="0" type="line"/>
      <point x="48" y="0" type="line"/>
    </contour>
    <contour>
      <point x="404" y="863" type="line"/>
      <point x="289" y="772" type="line"/>
      <point x="224" y="827" type="line"/>
      <point x="416" y="965" type="line"/>
      <point x="565" y="824" type="line"/>
      <point x="488" y="772" type="line"/>
    </contour>
  </outline>
</glyph>
<glyph name="Edieresis" format="2">
  <advance width="554"/>
  <unicode hex="00CB"/>
  <outline>
    <contour>
      <point x="119" y="0" type="line"/>
      <point x="136" y="104" type="line"/>
      <point x="482" y="104" type="line"/>
      <point x="464" y="0" type="line"/>
    </contour>
    <contour>
      <point x="221" y="596" type="line"/>
      <point x="238" y="700" type="line"/>
      <point x="583" y="700" type="line"/>
      <point x="565" y="596" type="line"/>
    </contour>
    <contour>
      <point x="174" y="324" type="line"/>
      <point x="192" y="426" type="line"/>
      <point x="517" y="426" type="line"/>
      <point x="499" y="324" type="line"/>
    </contour>
    <contour>
      <point x="166" y="700" type="line"/>
      <point x="282" y="700" type="line"/>
      <point x="162" y="0" type="line"/>
      <point x="48" y="0" type="line"/>
    </contour>
    <contour>
      <point x="446" y="854" type="curve" smooth="yes"/>
      <point x="450" y="888"/>
      <point x="488" y="919"/>
      <point x="523" y="918" type="curve" smooth="yes"/>
      <point x="559" y="917"/>
      <point x="584" y="887"/>
      <point x="580" y="852" type="curve" smooth="yes"/>
      <point x="576" y="818"/>
      <point x="539" y="787"/>
      <point x="504" y="788" type="curve" smooth="yes"/>
      <point x="468" y="789"/>
      <point x="442" y="819"/>
    </contour>
    <contour>
      <point x="236" y="854" type="curve" smooth="yes"/>
      <point x="240" y="888"/>
      <point x="277" y="919"/>
      <point x="312" y="918" type="curve" smooth="yes"/>
      <point x="348" y="917"/>
      <point x="374" y="887"/>
      <point x="370" y="852" type="curve" smooth="yes"/>
      <point x="366" y="818"/>
      <point x="329" y="787"/>
      <point x="294" y="788" type="curve" smooth="yes"/>
      <point x="258" y="789"/>
      <point x="232" y="819"/>
    </contour>
  </outline>
</glyph>
<glyph name="Igrave" format="2">
  <advance width="266"/>
  <unicode hex="00CC"/>
  <outline>
    <contour>
      <point x="166" y="700" type="line"/>
      <point x="286" y="700" type="line"/>
      <point x="164" y="0" type="line"/>
      <point x="48" y="0" type="line"/>
    </contour>
    <contour>
      <point x="122" y="926" type="line"/>
      <point x="218" y="970" type="line"/>
      <point x="338" y="808" type="line"/>
      <point x="275" y="775" type="line"/>
    </contour>
  </outline>
</glyph>
<glyph name="Icircumflex" format="2">
  <advance width="266"/>
  <unicode hex="00CE"/>
  <outline>
    <contour>
      <point x="166" y="700" type="line"/>
      <point x="286" y="700" type="line"/>
      <point x="164" y="0" type="line"/>
      <point x="48" y="0" type="line"/>
    </contour>
    <contour>
      <point x="257" y="868" type="line"/>
      <point x="137" y="775" type="line"/>
      <point x="80" y="823" type="line"/>
      <point x="266" y="962" type="line"/>
      <point x="408" y="820" type="line"/>
      <point x="344" y="775" type="line"/>
    </contour>
  </outline>
</glyph>
<glyph name="Idieresis" format="2">
  <advance width="266"/>
  <unicode hex="00CF"/>
  <outline>
    <contour>
      <point x="166" y="700" type="line"/>
      <point x="286" y="700" type="line"/>
      <point x="164" y="0" type="line"/>
      <point x="48" y="0" type="line"/>
    </contour>
    <contour>
      <point x="288" y="840" type="curve" smooth="yes"/>
      <point x="292" y="874"/>
      <point x="329" y="905"/>
      <point x="364" y="904" type="curve" smooth="yes"/>
      <point x="400" y="903"/>
      <point x="426" y="872"/>
      <point x="422" y="837" type="curve" smooth="yes"/>
      <point x="418" y="803"/>
      <point x="381" y="771"/>
      <point x="346" y="772" type="curve" smooth="yes"/>
      <point x="310" y="773"/>
      <point x="284" y="805"/>
    </contour>
    <contour>
      <point x="78" y="840" type="curve" smooth="yes"/>
      <point x="82" y="874"/>
      <point x="117" y="905"/>
      <point x="152" y="904" type="curve" smooth="yes"/>
      <point x="188" y="903"/>
      <point x="216" y="872"/>
      <point x="212" y="837" type="curve" smooth="yes"/>
      <point x="208" y="803"/>
      <point x="169" y="771"/>
      <point x="134" y="772" type="curve" smooth="yes"/>
      <point x="98" y="773"/>
      <point x="74" y="805"/>
    </contour>
  </outline>
</glyph>
<glyph name="Ntilde" format="2">
  <advance width="758"/>
  <unicode hex="00D1"/>
  <outline>
    <contour>
      <point x="664" y="700" type="line"/>
      <point x="778" y="700" type="line"/>
      <point x="652" y="-34" type="line"/>
      <point x="243" y="471" type="line"/>
      <point x="162" y="0" type="line"/>
      <point x="47" y="0" type="line"/>
      <point x="172" y="734" type="line"/>
      <point x="582" y="229" type="line"/>
    </contour>
    <contour>
      <point x="302" y="810" type="line"/>
      <point x="322" y="854"/>
      <point x="367" y="898"/>
      <point x="421" y="896" type="curve" smooth="yes"/>
      <point x="474" y="895"/>
      <point x="490" y="846"/>
      <point x="538" y="848" type="curve" smooth="yes"/>
      <point x="564" y="849"/>
      <point x="586" y="871"/>
      <point x="606" y="896" type="curve"/>
      <point x="654" y="840" type="line"/>
      <point x="630" y="804"/>
      <point x="583" y="762"/>
      <point x="529" y="764" type="curve" smooth="yes"/>
      <point x="481" y="766"/>
      <point x="457" y="814"/>
      <point x="413" y="812" type="curve" smooth="yes"/>
      <point x="378" y="810"/>
      <point x="364" y="780"/>
      <point x="356" y="762" type="curve"/>
    </contour>
  </outline>
</glyph>
<glyph name="Ograve" format="2">
  <advance width="778"/>
  <unicode hex="00D2"/>
  <outline>
    <contour>
      <point x="192" y="350" type="curve" smooth="yes"/>
      <point x="172" y="222"/>
      <point x="237" y="103"/>
      <point x="376" y="102" type="curve" smooth="yes"/>
      <point x="517" y="101"/>
      <point x="629" y="215"/>
      <point x="652" y="350" type="curve" smooth="yes"/>
      <point x="672" y="478"/>
      <point x="608" y="597"/>
      <point x="468" y="598" type="curve" smooth="yes"/>
      <point x="327" y="599"/>
      <point x="215" y="485"/>
    </contour>
    <contour>
      <point x="68" y="350" type="curve" smooth="yes"/>
      <point x="99" y="550"/>
      <point x="272" y="712"/>
      <point x="480" y="712" type="curve" smooth="yes"/>
      <point x="686" y="712"/>
      <point x="804" y="543"/>
      <point x="776" y="350" type="curve" smooth="yes"/>
      <point x="745" y="149"/>
      <point x="574" y="-15"/>
      <point x="364" y="-15" type="curve" smooth="yes"/>
      <point x="158" y="-15"/>
      <point x="40" y="157"/>
    </contour>
    <contour>
      <point x="392" y="926" type="line"/>
      <point x="487" y="970" type="line"/>
      <point x="608" y="808" type="line"/>
      <point x="544" y="775" type="line"/>
    </contour>
  </outline>
</glyph>
<glyph name="Otilde" format="2">
  <advance width="778"/>
  <unicode hex="00D5"/>
  <outline>
    <contour>
      <point x="192" y="350" type="curve" smooth="yes"/>
      <point x="172" y="222"/>
      <point x="237" y="103"/>
      <point x="376" y="102" type="curve" smooth="yes"/>
      <point x="517" y="101"/>
      <point x="629" y="215"/>
      <point x="652" y="350" type="curve" smooth="yes"/>
      <point x="672" y="478"/>
      <point x="608" y="597"/>
      <point x="468" y="598" type="curve" smooth="yes"/>
      <point x="327" y="599"/>
      <point x="215" y="485"/>
    </contour>
    <contour>
      <point x="68" y="350" type="curve" smooth="yes"/>
      <point x="99" y="550"/>
      <point x="272" y="712"/>
      <point x="480" y="712" type="curve" smooth="yes"/>
      <point x="686" y="712"/>
      <point x="804" y="543"/>
      <point x="776" y="350" type="curve" smooth="yes"/>
      <point x="745" y="149"/>
      <point x="574" y="-15"/>
      <point x="364" y="-15" type="curve" smooth="yes"/>
      <point x="158" y="-15"/>
      <point x="40" y="157"/>
    </contour>
    <contour>
      <point x="322" y="810" type="line"/>
      <point x="342" y="854"/>
      <point x="387" y="898"/>
      <point x="441" y="896" type="curve" smooth="yes"/>
      <point x="494" y="895"/>
      <point x="510" y="846"/>
      <point x="558" y="848" type="curve" smooth="yes"/>
      <point x="584" y="849"/>
      <point x="606" y="871"/>
      <point x="626" y="896" type="curve"/>
      <point x="674" y="840" type="line"/>
      <point x="650" y="804"/>
      <point x="603" y="762"/>
      <point x="549" y="764" type="curve" smooth="yes"/>
      <point x="501" y="766"/>
      <point x="477" y="814"/>
      <point x="433" y="812" type="curve" smooth="yes"/>
      <point x="398" y="810"/>
      <point x="384" y="780"/>
      <point x="376" y="762" type="curve"/>
    </contour>
  </outline>
</glyph>
<glyph name="Odieresis" format="2">
  <advance width="778"/>
  <unicode hex="00D6"/>
  <outline>
    <contour>
      <point x="192" y="350" type="curve" smooth="yes"/>
      <point x="172" y="222"/>
      <point x="237" y="103"/>
      <point x="376" y="102" type="curve" smooth="yes"/>
      <point x="517" y="101"/>
      <point x="629" y="215"/>
      <point x="652" y="350" type="curve" smooth="yes"/>
      <point x="672" y="478"/>
      <point x="608" y="597"/>
      <point x="468" y="598" type="curve" smooth="yes"/>
      <point x="327" y="599"/>
      <point x="215" y="485"/>
    </contour>
    <contour>
      <point x="68" y="350" type="curve" smooth="yes"/>
      <point x="99" y="550"/>
      <point x="272" y="712"/>
      <point x="480" y="712" type="curve" smooth="yes"/>
      <point x="686" y="712"/>
      <point x="804" y="543"/>
      <point x="776" y="350" type="curve" smooth="yes"/>
      <point x="745" y="149"/>
      <point x="574" y="-15"/>
      <point x="364" y="-15" type="curve" smooth="yes"/>
      <point x="158" y="-15"/>
      <point x="40" y="157"/>
    </contour>
    <contour>
      <point x="544" y="840" type="curve" smooth="yes"/>
      <point x="548" y="874"/>
      <point x="585" y="905"/>
      <point x="620" y="904" type="curve" smooth="yes"/>
      <point x="656" y="903"/>
      <point x="682" y="872"/>
      <point x="678" y="837" type="curve" smooth="yes"/>
      <point x="674" y="803"/>
      <point x="637" y="771"/>
      <point x="602" y="772" type="curve" smooth="yes"/>
      <point x="566" y="773"/>
      <point x="540" y="805"/>
    </contour>
    <contour>
      <point x="333" y="840" type="curve" smooth="yes"/>
      <point x="337" y="874"/>
      <point x="374" y="905"/>
      <point x="409" y="904" type="curve" smooth="yes"/>
      <point x="445" y="903"/>
      <point x="471" y="872"/>
      <point x="467" y="837" type="curve" smooth="yes"/>
      <point x="463" y="803"/>
      <point x="426" y="771"/>
      <point x="391" y="772" type="curve" smooth="yes"/>
      <point x="355" y="773"/>
      <point x="329" y="805"/>
    </contour>
  </outline>
</glyph>
<glyph name="multiply" format="2">
  <advance width="578"/>
  <unicode hex="00D7"/>
  <outline>
    <contour>
      <point x="102" y="14" type="line"/>
      <point x="43" y="89" type="line"/>
      <point x="242" y="258" type="line"/>
      <point x="100" y="428" type="line"/>
      <point x="180" y="496" type="line"/>
      <point x="314" y="322" type="line"/>
      <point x="508" y="496" type="line"/>
      <point x="568" y="421" type="line"/>
      <point x="369" y="252" type="line"/>
      <point x="510" y="82" type="line"/>
      <point x="431" y="14" type="line"/>
      <point x="297" y="188" type="line"/>
    </contour>
  </outline>
</glyph>
<glyph name="Oslash" format="2">
  <advance width="766"/>
  <unicode hex="00D8"/>
  <outline>
    <contour>
      <point x="192" y="350" type="curve" smooth="yes"/>
      <point x="172" y="221"/>
      <point x="237" y="103"/>
      <point x="376" y="102" type="curve" smooth="yes"/>
      <point x="517" y="101"/>
      <point x="629" y="214"/>
      <point x="652" y="350" type="curve" smooth="yes"/>
      <point x="672" y="479"/>
      <point x="607" y="597"/>
      <point x="468" y="598" type="curve" smooth="yes"/>
      <point x="327" y="599"/>
      <point x="215" y="486"/>
    </contour>
    <contour>
      <point x="68" y="350" type="curve" smooth="yes"/>
      <point x="99" y="550"/>
      <point x="271" y="712"/>
      <point x="480" y="712" type="curve" smooth="yes"/>
      <point x="685" y="712"/>
      <point x="804" y="543"/>
      <point x="776" y="350" type="curve" smooth="yes"/>
      <point x="745" y="150"/>
      <point x="573" y="-15"/>
      <point x="364" y="-15" type="curve" smooth="yes"/>
      <point x="158" y="-15"/>
      <point x="40" y="158"/>
    </contour>
    <contour>
      <point x="770" y="752" type="line"/>
      <point x="828" y="706" type="line"/>
      <point x="70" y="-52" type="line"/>
      <point x="13" y="-6" type="line"/>
    </contour>
  </outline>
</glyph>
<glyph name="Ucircumflex" format="2">
  <advance width="636"/>
  <unicode hex="00DB"/>
  <outline>
    <contour>
      <point x="162" y="700" type="line"/>
      <point x="280" y="700" type="line"/>
      <point x="198" y="235" type="line" smooth="yes"/>
      <point x="188" y="159"/>
      <point x="217" y="93"/>
      <point x="304" y="92" type="curve" smooth="yes"/>
      <point x="392" y="91"/>
      <point x="448" y="155"/>
      <point x="463" y="235" type="curve"/>
      <point x="543" y="700" type="line"/>
      <point x="660" y="700" type="line"/>
      <point x="580" y="230" type="line" smooth="yes"/>
      <point x="556" y="86"/>
      <point x="442" y="-18"/>
      <point x="292" y="-18" type="curve" smooth="yes"/>
      <point x="146" y="-18"/>
      <point x="63" y="88"/>
      <point x="82" y="230" type="curve"/>
    </contour>
    <contour>
      <point x="442" y="863" type="line"/>
      <point x="326" y="772" type="line"/>
      <point x="262" y="827" type="line"/>
      <point x="454" y="965" type="line"/>
      <point x="602" y="824" type="line"/>
      <point x="526" y="772" type="line"/>
    </contour>
  </outline>
</glyph>
<glyph name="Udieresis" format="2">
  <advance width="636"/>
  <unicode hex="00DC"/>
  <outline>
    <contour>
      <point x="162" y="700" type="line"/>
      <point x="280" y="700" type="line"/>
      <point x="198" y="235" type="line" smooth="yes"/>
      <point x="188" y="159"/>
      <point x="217" y="93"/>
      <point x="304" y="92" type="curve" smooth="yes"/>
      <point x="392" y="91"/>
      <point x="448" y="155"/>
      <point x="463" y="235" type="curve"/>
      <point x="543" y="700" type="line"/>
      <point x="660" y="700" type="line"/>
      <point x="580" y="230" type="line" smooth="yes"/>
      <point x="556" y="86"/>
      <point x="442" y="-18"/>
      <point x="292" y="-18" type="curve" smooth="yes"/>
      <point x="146" y="-18"/>
      <point x="63" y="88"/>
      <point x="82" y="230" type="curve"/>
    </contour>
    <contour>
      <point x="480" y="840" type="curve" smooth="yes"/>
      <point x="484" y="874"/>
      <point x="521" y="905"/>
      <point x="556" y="904" type="curve" smooth="yes"/>
      <point x="592" y="903"/>
      <point x="618" y="872"/>
      <point x="614" y="837" type="curve" smooth="yes"/>
      <point x="610" y="803"/>
      <point x="573" y="771"/>
      <point x="538" y="772" type="curve" smooth="yes"/>
      <point x="502" y="773"/>
      <point x="476" y="805"/>
    </contour>
    <contour>
      <point x="254" y="840" type="curve" smooth="yes"/>
      <point x="258" y="874"/>
      <point x="296" y="905"/>
      <point x="331" y="904" type="curve" smooth="yes"/>
      <point x="367" y="903"/>
      <point x="392" y="872"/>
      <point x="388" y="837" type="curve" smooth="yes"/>
      <point x="384" y="803"/>
      <point x="347" y="771"/>
      <point x="312" y="772" type="curve" smooth="yes"/>
      <point x="276" y="773"/>
      <point x="250" y="805"/>
    </contour>
  </outline>
</glyph>
<glyph name="Yacute" format="2">
  <advance width="582"/>
  <unicode hex="00DD"/>
  <outline>
    <contour>
      <point x="560" y="920" type="line"/>
      <point x="362" y="772" type="line"/>
      <point x="306" y="810" type="line"/>
      <point x="476" y="967" type="line"/>
    </contour>
    <contour>
      <point x="540" y="700" type="line"/>
      <point x="676" y="700" type="line"/>
      <point x="374" y="292" type="line"/>
      <point x="324" y="0" type="line"/>
      <point x="204" y="0" type="line"/>
      <point x="257" y="298" type="line"/>
      <point x="96" y="700" type="line"/>
      <point x="226" y="700" type="line"/>
      <point x="331" y="402" type="line"/>
    </contour>
  </outline>
</glyph>
<glyph name="Thorn" format="2">
  <advance width="557"/>
  <unicode hex="00DE"/>
  <outline>
    <contour>
      <point x="168" y="700" type="line"/>
      <point x="278" y="700" type="line"/>
      <point x="158" y="0" type="line"/>
      <point x="50" y="0" type="line"/>
    </contour>
    <contour>
      <point x="192" y="466" type="line"/>
      <point x="210" y="568" type="line"/>
      <point x="344" y="568" type="line"/>
      <point x="483" y="566"/>
      <point x="576" y="482"/>
      <point x="556" y="350" type="curve" smooth="yes"/>
      <point x="536" y="216"/>
      <point x="421" y="137"/>
      <point x="277" y="135" type="curve"/>
      <point x="136" y="135" type="line"/>
      <point x="154" y="236" type="line"/>
      <point x="288" y="236" type="line"/>
      <point x="368" y="238"/>
      <point x="433" y="276"/>
      <point x="447" y="352" type="curve" smooth="yes"/>
      <point x="460" y="426"/>
      <point x="410" y="464"/>
      <point x="334" y="466" type="curve"/>
    </contour>
  </outline>
</glyph>
<glyph name="germandbls" format="2">
  <advance width="580"/>
  <unicode hex="00DF"/>
  <outline>
    <contour>
      <point x="359" y="-12" type="curve" smooth="yes"/>
      <point x="301" y="-12"/>
      <point x="243" y="12"/>
      <point x="208" y="45" type="curve"/>
      <point x="250" y="127" type="line"/>
      <point x="279" y="100"/>
      <point x="316" y="82"/>
      <point x="352" y="82" type="curve" smooth="yes"/>
      <point x="408" y="82"/>
      <point x="448" y="125"/>
      <point x="448" y="179" type="curve" smooth="yes"/>
      <point x="448" y="285"/>
      <point x="307" y="290"/>
      <point x="307" y="394" type="curve" smooth="yes"/>
      <point x="307" y="491"/>
      <point x="460" y="520"/>
      <point x="460" y="624" type="curve" smooth="yes"/>
      <point x="460" y="676"/>
      <point x="422" y="697"/>
      <point x="372" y="697" type="curve" smooth="yes"/>
      <point x="302" y="697"/>
      <point x="255" y="655"/>
      <point x="242" y="573" type="curve" smooth="yes"/>
      <point x="146" y="-2" type="line"/>
      <point x="37" y="-2" type="line"/>
      <point x="134" y="586" type="line" smooth="yes"/>
      <point x="153" y="707"/>
      <point x="234" y="795"/>
      <point x="386" y="795" type="curve" smooth="yes"/>
      <point x="493" y="795"/>
      <point x="573" y="737"/>
      <point x="573" y="640" type="curve" smooth="yes"/>
      <point x="573" y="494"/>
      <point x="424" y="473"/>
      <point x="424" y="399" type="curve" smooth="yes"/>
      <point x="424" y="331"/>
      <point x="562" y="330"/>
      <point x="562" y="186" type="curve" smooth="yes"/>
      <point x="562" y="76"/>
      <point x="472" y="-12"/>
    </contour>
  </outline>
</glyph>
<glyph name="agrave" format="2">
  <advance width="570"/>
  <unicode hex="00E0"/>
  <outline>
    <contour>
      <point x="456" y="460" type="line"/>
      <point x="562" y="460" type="line"/>
      <point x="482" y="0" type="line"/>
      <point x="379" y="0" type="line"/>
    </contour>
    <contour>
      <point x="44" y="230" type="curve" smooth="yes"/>
      <point x="63" y="366"/>
      <point x="173" y="471"/>
      <point x="300" y="470" type="curve" smooth="yes"/>
      <point x="424" y="469"/>
      <point x="469" y="354"/>
      <point x="453" y="230" type="curve" smooth="yes"/>
      <point x="435" y="99"/>
      <point x="348" y="-10"/>
      <point x="226" y="-10" type="curve" smooth="yes"/>
      <point x="99" y="-10"/>
      <point x="26" y="100"/>
    </contour>
    <contour>
      <point x="154" y="230" type="curve" smooth="yes"/>
      <point x="142" y="152"/>
      <point x="182" y="84"/>
      <point x="260" y="84" type="curve" smooth="yes"/>
      <point x="331" y="84"/>
      <point x="401" y="148"/>
      <point x="414" y="230" type="curve" smooth="yes"/>
      <point x="424" y="307"/>
      <point x="386" y="374"/>
      <point x="316" y="376" type="curve" smooth="yes"/>
      <point x="238" y="378"/>
      <point x="167" y="312"/>
    </contour>
    <contour>
      <point x="206" y="682" type="line"/>
      <point x="300" y="726" type="line"/>
      <point x="420" y="564" type="line"/>
      <point x="358" y="530" type="line"/>
    </contour>
  </outline>
</glyph>
<glyph name="acircumflex" format="2">
  <advance width="570"/>
  <unicode hex="00E2"/>
  <outline>
    <contour>
      <point x="456" y="460" type="line"/>
      <point x="562" y="460" type="line"/>
      <point x="482" y="0" type="line"/>
      <point x="379" y="0" type="line"/>
    </contour>
    <contour>
      <point x="44" y="230" type="curve" smooth="yes"/>
      <point x="63" y="366"/>
      <point x="173" y="471"/>
      <point x="300" y="470" type="curve" smooth="yes"/>
      <point x="424" y="469"/>
      <point x="469" y="354"/>
      <point x="453" y="230" type="curve" smooth="yes"/>
      <point x="435" y="99"/>
      <point x="348" y="-10"/>
      <point x="226" y="-10" type="curve" smooth="yes"/>
      <point x="99" y="-10"/>
      <point x="26" y="100"/>
    </contour>
    <contour>
      <point x="154" y="230" type="curve" smooth="yes"/>
      <point x="142" y="152"/>
      <point x="182" y="84"/>
      <point x="260" y="84" type="curve" smooth="yes"/>
      <point x="331" y="84"/>
      <point x="401" y="148"/>
      <point x="414" y="230" type="curve" smooth="yes"/>
      <point x="424" y="307"/>
      <point x="386" y="374"/>
      <point x="316" y="376" type="curve" smooth="yes"/>
      <point x="238" y="378"/>
      <point x="167" y="312"/>
    </contour>
    <contour>
      <point x="368" y="620" type="line"/>
      <point x="253" y="530" type="line"/>
      <point x="188" y="585" type="line"/>
      <point x="380" y="723" type="line"/>
      <point x="530" y="582" type="line"/>
      <point x="452" y="530" type="line"/>
    </contour>
  </outline>
</glyph>
<glyph name="atilde" format="2">
  <advance width="570"/>
  <unicode hex="00E3"/>
  <outline>
    <contour>
      <point x="456" y="460" type="line"/>
      <point x="562" y="460" type="line"/>
      <point x="482" y="0" type="line"/>
      <point x="379" y="0" type="line"/>
    </contour>
    <contour>
      <point x="44" y="230" type="curve" smooth="yes"/>
      <point x="63" y="366"/>
      <point x="173" y="471"/>
      <point x="300" y="470" type="curve" smooth="yes"/>
      <point x="424" y="469"/>
      <point x="469" y="354"/>
      <point x="453" y="230" type="curve" smooth="yes"/>
      <point x="435" y="99"/>
      <point x="348" y="-10"/>
      <point x="226" y="-10" type="curve" smooth="yes"/>
      <point x="99" y="-10"/>
      <point x="26" y="100"/>
    </contour>
    <contour>
      <point x="154" y="230" type="curve" smooth="yes"/>
      <point x="142" y="152"/>
      <point x="182" y="84"/>
      <point x="260" y="84" type="curve" smooth="yes"/>
      <point x="331" y="84"/>
      <point x="401" y="148"/>
      <point x="414" y="230" type="curve" smooth="yes"/>
      <point x="424" y="307"/>
      <point x="386" y="374"/>
      <point x="316" y="376" type="curve" smooth="yes"/>
      <point x="238" y="378"/>
      <point x="167" y="312"/>
    </contour>
    <contour>
      <point x="188" y="580" type="line"/>
      <point x="208" y="626"/>
      <point x="254" y="666"/>
      <point x="307" y="666" type="curve" smooth="yes"/>
      <point x="360" y="666"/>
      <point x="376" y="616"/>
      <point x="424" y="618" type="curve" smooth="yes"/>
      <point x="450" y="619"/>
      <point x="472" y="641"/>
      <point x="492" y="666" type="curve"/>
      <point x="540" y="610" type="line"/>
      <point x="516" y="574"/>
      <point x="469" y="532"/>
      <point x="415" y="534" type="curve" smooth="yes"/>
      <point x="367" y="536"/>
      <point x="343" y="584"/>
      <point x="299" y="582" type="curve" smooth="yes"/>
      <point x="264" y="580"/>
      <point x="250" y="550"/>
      <point x="242" y="532" type="curve"/>
    </contour>
  </outline>
</glyph>
<glyph name="adieresis" format="2">
  <advance width="570"/>
  <unicode hex="00E4"/>
  <outline>
    <contour>
      <point x="456" y="460" type="line"/>
      <point x="562" y="460" type="line"/>
      <point x="482" y="0" type="line"/>
      <point x="379" y="0" type="line"/>
    </contour>
    <contour>
      <point x="44" y="230" type="curve" smooth="yes"/>
      <point x="63" y="366"/>
      <point x="173" y="471"/>
      <point x="300" y="470" type="curve" smooth="yes"/>
      <point x="424" y="469"/>
      <point x="469" y="354"/>
      <point x="453" y="230" type="curve" smooth="yes"/>
      <point x="435" y="99"/>
      <point x="348" y="-10"/>
      <point x="226" y="-10" type="curve" smooth="yes"/>
      <point x="99" y="-10"/>
      <point x="26" y="100"/>
    </contour>
    <contour>
      <point x="154" y="230" type="curve" smooth="yes"/>
      <point x="142" y="152"/>
      <point x="182" y="84"/>
      <point x="260" y="84" type="curve" smooth="yes"/>
      <point x="331" y="84"/>
      <point x="401" y="148"/>
      <point x="414" y="230" type="curve" smooth="yes"/>
      <point x="424" y="307"/>
      <point x="386" y="374"/>
      <point x="316" y="376" type="curve" smooth="yes"/>
      <point x="238" y="378"/>
      <point x="167" y="312"/>
    </contour>
    <contour>
      <point x="398" y="597" type="curve" smooth="yes"/>
      <point x="402" y="631"/>
      <point x="439" y="663"/>
      <point x="474" y="662" type="curve" smooth="yes"/>
      <point x="510" y="661"/>
      <point x="536" y="630"/>
      <point x="532" y="595" type="curve" smooth="yes"/>
      <point x="528" y="561"/>
      <point x="491" y="529"/>
      <point x="456" y="530" type="curve" smooth="yes"/>
      <point x="420" y="531"/>
      <point x="394" y="562"/>
    </contour>
    <contour>
      <point x="186" y="597" type="curve" smooth="yes"/>
      <point x="190" y="631"/>
      <point x="227" y="663"/>
      <point x="262" y="662" type="curve" smooth="yes"/>
      <point x="298" y="661"/>
      <point x="324" y="630"/>
      <point x="320" y="595" type="curve" smooth="yes"/>
      <point x="316" y="561"/>
      <point x="279" y="529"/>
      <point x="244" y="530" type="curve" smooth="yes"/>
      <point x="208" y="531"/>
      <point x="182" y="562"/>
    </contour>
  </outline>
</glyph>
<glyph name="aring" format="2">
  <advance width="570"/>
  <unicode hex="00E5"/>
  <outline>
    <contour>
      <point x="456" y="460" type="line"/>
      <point x="562" y="460" type="line"/>
      <point x="482" y="0" type="line"/>
      <point x="379" y="0" type="line"/>
    </contour>
    <contour>
      <point x="44" y="230" type="curve" smooth="yes"/>
      <point x="63" y="366"/>
      <point x="173" y="471"/>
      <point x="300" y="470" type="curve" smooth="yes"/>
      <point x="424" y="469"/>
      <point x="469" y="354"/>
      <point x="453" y="230" type="curve" smooth="yes"/>
      <point x="435" y="99"/>
      <point x="348" y="-10"/>
      <point x="226" y="-10" type="curve" smooth="yes"/>
      <point x="99" y="-10"/>
      <point x="26" y="100"/>
    </contour>
    <contour>
      <point x="154" y="230" type="curve" smooth="yes"/>
      <point x="142" y="152"/>
      <point x="182" y="84"/>
      <point x="260" y="84" type="curve" smooth="yes"/>
      <point x="331" y="84"/>
      <point x="401" y="148"/>
      <point x="414" y="230" type="curve" smooth="yes"/>
      <point x="424" y="307"/>
      <point x="386" y="374"/>
      <point x="316" y="376" type="curve" smooth="yes"/>
      <point x="238" y="378"/>
      <point x="167" y="312"/>
    </contour>
    <contour>
      <point x="238" y="636" type="curve" smooth="yes"/>
      <point x="246" y="696"/>
      <point x="303" y="742"/>
      <point x="361" y="742" type="curve" smooth="yes"/>
      <point x="419" y="742"/>
      <point x="463" y="695"/>
      <point x="455" y="635" type="curve" smooth="yes"/>
      <point x="447" y="575"/>
      <point x="388" y="530"/>
      <point x="330" y="530" type="curve" smooth="yes"/>
      <point x="272" y="530"/>
      <point x="230" y="577"/>
    </contour>
    <contour>
      <point x="298" y="635" type="curve" smooth="yes"/>
      <point x="295" y="609"/>
      <point x="311" y="586"/>
      <point x="335" y="586" type="curve" smooth="yes"/>
      <point x="359" y="586"/>
      <point x="391" y="610"/>
      <point x="394" y="636" type="curve" smooth="yes"/>
      <point x="397" y="662"/>
      <point x="380" y="686"/>
      <point x="356" y="686" type="curve" smooth="yes"/>
      <point x="332" y="686"/>
      <point x="301" y="661"/>
    </contour>
  </outline>
</glyph>
<glyph name="ae" format="2">
  <advance width="834"/>
  <unicode hex="00E6"/>
  <outline>
    <contour>
      <point x="185" y="-10" type="curve" smooth="yes"/>
      <point x="71" y="-10"/>
      <point x="14" y="46"/>
      <point x="18" y="122" type="curve" smooth="yes"/>
      <point x="22" y="212"/>
      <point x="108" y="283"/>
      <point x="229" y="283" type="curve" smooth="yes"/>
      <point x="285" y="283"/>
      <point x="326" y="270"/>
      <point x="400" y="228" type="curve"/>
      <point x="350" y="228" type="line"/>
      <point x="362" y="300" type="line" smooth="yes"/>
      <point x="370" y="355"/>
      <point x="338" y="383"/>
      <point x="287" y="383" type="curve" smooth="yes"/>
      <point x="242" y="383"/>
      <point x="184" y="365"/>
      <point x="144" y="338" type="curve"/>
      <point x="106" y="416" type="line"/>
      <point x="168" y="453"/>
      <point x="233" y="471"/>
      <point x="298" y="471" type="curve" smooth="yes"/>
      <point x="392" y="471"/>
      <point x="446" y="433"/>
      <point x="440" y="358" type="curve"/>
      <point x="422" y="346" type="line"/>
      <point x="463" y="417"/>
      <point x="540" y="470"/>
      <point x="638" y="470" type="curve" smooth="yes"/>
      <point x="753" y="470"/>
      <point x="825" y="392"/>
      <point x="819" y="262" type="curve" smooth="yes"/>
      <point x="818" y="238"/>
      <point x="813" y="217"/>
      <point x="808" y="205" type="curve"/>
      <point x="438" y="205" type="line"/>
      <point x="460" y="224" type="line"/>
      <point x="448" y="142"/>
      <point x="478" y="79"/>
      <point x="560" y="79" type="curve" smooth="yes"/>
      <point x="617" y="79"/>
      <point x="668" y="103"/>
      <point x="698" y="152" type="curve"/>
      <point x="790" y="115" type="line"/>
      <point x="736" y="32"/>
      <point x="650" y="-10"/>
      <point x="554" y="-10" type="curve" smooth="yes"/>
      <point x="458" y="-10"/>
      <point x="400" y="26"/>
      <point x="374" y="107" type="curve"/>
      <point x="389" y="107" type="line"/>
      <point x="359" y="34"/>
      <point x="289" y="-10"/>
    </contour>
    <contour>
      <point x="211" y="72" type="curve" smooth="yes"/>
      <point x="284" y="72"/>
      <point x="330" y="110"/>
      <point x="352" y="190" type="curve"/>
      <point x="345" y="123" type="line"/>
      <point x="346" y="211" type="line"/>
      <point x="358" y="184" type="line"/>
      <point x="324" y="204"/>
      <point x="284" y="214"/>
      <point x="241" y="214" type="curve" smooth="yes"/>
      <point x="177" y="214"/>
      <point x="129" y="183"/>
      <point x="128" y="132" type="curve" smooth="yes"/>
      <point x="127" y="88"/>
      <point x="153" y="72"/>
    </contour>
    <contour>
      <point x="460" y="238" type="curve"/>
      <point x="442" y="280" type="line"/>
      <point x="728" y="280" type="line"/>
      <point x="704" y="250" type="line"/>
      <point x="706" y="256"/>
      <point x="706" y="258"/>
      <point x="706" y="266" type="curve" smooth="yes"/>
      <point x="708" y="342"/>
      <point x="684" y="388"/>
      <point x="612" y="388" type="curve" smooth="yes"/>
      <point x="533" y="388"/>
      <point x="482" y="331"/>
    </contour>
  </outline>
</glyph>
<glyph name="ccedilla" format="2">
  <advance width="469"/>
  <unicode hex="00E7"/>
  <outline>
    <contour>
      <point x="149" y="230" type="curve" smooth="yes"/>
      <point x="137" y="153"/>
      <point x="180" y="86"/>
      <point x="260" y="84" type="curve" smooth="yes"/>
      <point x="326" y="83"/>
      <point x="385" y="118"/>
      <point x="421" y="160" type="curve"/>
      <point x="403" y="42" type="line"/>
      <point x="363" y="10"/>
      <point x="308" y="-10"/>
      <point x="246" y="-10" type="curve" smooth="yes"/>
      <point x="108" y="-10"/>
      <point x="21" y="98"/>
      <point x="40" y="230" type="curve" smooth="yes"/>
      <point x="60" y="366"/>
      <point x="178" y="470"/>
      <point x="320" y="470" type="curve" smooth="yes"/>
      <point x="379" y="470"/>
      <point x="430" y="450"/>
      <point x="466" y="418" type="curve"/>
      <point x="447" y="299" type="line"/>
      <point x="425" y="347"/>
      <point x="376" y="376"/>
      <point x="316" y="376" type="curve" smooth="yes"/>
      <point x="234" y="376"/>
      <point x="163" y="310"/>
    </contour>
    <contour>
      <point x="224" y="59" type="line"/>
      <point x="304" y="58" type="line"/>
      <point x="212" y="-58" type="line"/>
      <point x="218" y="-57"/>
      <point x="224" y="-56"/>
      <point x="230" y="-56" type="curve" smooth="yes"/>
      <point x="270" y="-59"/>
      <point x="302" y="-92"/>
      <point x="296" y="-141" type="curve" smooth="yes"/>
      <point x="288" y="-202"/>
      <point x="226" y="-240"/>
      <point x="169" y="-240" type="curve" smooth="yes"/>
      <point x="127" y="-240"/>
      <point x="97" y="-226"/>
      <point x="64" y="-200" type="curve"/>
      <point x="108" y="-150" type="line"/>
      <point x="126" y="-164"/>
      <point x="145" y="-174"/>
      <point x="167" y="-174" type="curve" smooth="yes"/>
      <point x="194" y="-174"/>
      <point x="224" y="-158"/>
      <point x="226" y="-135" type="curve" smooth="yes"/>
      <point x="228" y="-112"/>
      <point x="206" y="-102"/>
      <point x="182" y="-102" type="curve" smooth="yes"/>
      <point x="165" y="-101"/>
      <point x="135" y="-108"/>
      <point x="110" y="-118" type="curve"/>
    </contour>
  </outline>
</glyph>
<glyph name="eacute" format="2">
  <advance width="522"/>
  <unicode hex="00E9"/>
  <outline>
    <contour>
      <point x="104" y="206" type="line"/>
      <point x="115" y="280" type="line"/>
      <point x="394" y="280" type="line"/>
      <point x="394" y="339"/>
      <point x="374" y="387"/>
      <point x="307" y="388" type="curve" smooth="yes"/>
      <point x="232" y="390"/>
      <point x="175" y="330"/>
      <point x="159" y="258" type="curve"/>
      <point x="152" y="230" type="line"/>
      <point x="140" y="148"/>
      <point x="169" y="82"/>
      <point x="249" y="80" type="curve" smooth="yes"/>
      <point x="309" y="78"/>
      <point x="356" y="112"/>
      <point x="390" y="152" type="curve"/>
      <point x="478" y="113" type="line"/>
      <point x="420" y="41"/>
      <point x="348" y="-11"/>
      <point x="236" y="-10" type="curve" smooth="yes"/>
      <point x="97" y="-9"/>
      <point x="26" y="102"/>
      <point x="44" y="230" type="curve" smooth="yes"/>
      <point x="46" y="247"/>
      <point x="50" y="263"/>
      <point x="56" y="279" type="curve" smooth="yes"/>
      <point x="92" y="389"/>
      <point x="190" y="470"/>
      <point x="316" y="470" type="curve" smooth="yes"/>
      <point x="456" y="470"/>
      <point x="519" y="367"/>
      <point x="503" y="235" type="curve" smooth="yes"/>
      <point x="502" y="226"/>
      <point x="500" y="216"/>
      <point x="498" y="206" type="curve"/>
    </contour>
    <contour>
      <point x="518" y="685" type="line"/>
      <point x="319" y="539" type="line"/>
      <point x="262" y="575" type="line"/>
      <point x="433" y="732" type="line"/>
    </contour>
  </outline>
</glyph>
<glyph name="edieresis" format="2">
  <advance width="522"/>
  <unicode hex="00EB"/>
  <outline>
    <contour>
      <point x="104" y="206" type="line"/>
      <point x="115" y="280" type="line"/>
      <point x="394" y="280" type="line"/>
      <point x="394" y="339"/>
      <point x="374" y="387"/>
      <point x="307" y="388" type="curve" smooth="yes"/>
      <point x="232" y="390"/>
      <point x="175" y="330"/>
      <point x="159" y="258" type="curve"/>
      <point x="152" y="230" type="line"/>
      <point x="140" y="148"/>
      <point x="169" y="82"/>
      <point x="249" y="80" type="curve" smooth="yes"/>
      <point x="309" y="78"/>
      <point x="356" y="112"/>
      <point x="390" y="152" type="curve"/>
      <point x="478" y="113" type="line"/>
      <point x="420" y="41"/>
      <point x="348" y="-11"/>
      <point x="236" y="-10" type="curve" smooth="yes"/>
      <point x="97" y="-9"/>
      <point x="26" y="102"/>
      <point x="44" y="230" type="curve" smooth="yes"/>
      <point x="46" y="247"/>
      <point x="50" y="263"/>
      <point x="56" y="279" type="curve" smooth="yes"/>
      <point x="92" y="389"/>
      <point x="190" y="470"/>
      <point x="316" y="470" type="curve" smooth="yes"/>
      <point x="456" y="470"/>
      <point x="519" y="367"/>
      <point x="503" y="235" type="curve" smooth="yes"/>
      <point x="502" y="226"/>
      <point x="500" y="216"/>
      <point x="498" y="206" type="curve"/>
    </contour>
    <contour>
      <point x="380" y="597" type="curve" smooth="yes"/>
      <point x="384" y="631"/>
      <point x="421" y="663"/>
      <point x="456" y="662" type="curve" smooth="yes"/>
      <point x="492" y="661"/>
      <point x="517" y="630"/>
      <point x="513" y="595" type="curve" smooth="yes"/>
      <point x="509" y="561"/>
      <point x="472" y="529"/>
      <point x="437" y="530" type="curve" smooth="yes"/>
      <point x="401" y="531"/>
      <point x="376" y="562"/>
    </contour>
    <contour>
      <point x="168" y="597" type="curve" smooth="yes"/>
      <point x="172" y="631"/>
      <point x="209" y="663"/>
      <point x="244" y="662" type="curve" smooth="yes"/>
      <point x="280" y="661"/>
      <point x="306" y="630"/>
      <point x="302" y="595" type="curve" smooth="yes"/>
      <point x="298" y="561"/>
      <point x="261" y="529"/>
      <point x="226" y="530" type="curve" smooth="yes"/>
      <point x="190" y="531"/>
      <point x="164" y="562"/>
    </contour>
  </outline>
</glyph>
<glyph name="igrave" format="2">
  <advance width="258"/>
  <unicode hex="00EC"/>
  <outline>
    <contour>
      <point x="127" y="460" type="line"/>
      <point x="234" y="460" type="line"/>
      <point x="154" y="0" type="line"/>
      <point x="50" y="0" type="line"/>
    </contour>
    <contour>
      <point x="57" y="696" type="line"/>
      <point x="152" y="740" type="line"/>
      <point x="272" y="578" type="line"/>
      <point x="210" y="545" type="line"/>
    </contour>
  </outline>
</glyph>
<glyph name="iacute" format="2">
  <advance width="258"/>
  <unicode hex="00ED"/>
  <outline>
    <contour>
      <point x="127" y="460" type="line"/>
      <point x="234" y="460" type="line"/>
      <point x="154" y="0" type="line"/>
      <point x="50" y="0" type="line"/>
    </contour>
    <contour>
      <point x="382" y="692" type="line"/>
      <point x="184" y="546" type="line"/>
      <point x="126" y="582" type="line"/>
      <point x="298" y="740" type="line"/>
    </contour>
  </outline>
</glyph>
<glyph name="icircumflex" format="2">
  <advance width="258"/>
  <unicode hex="00EE"/>
  <outline>
    <contour>
      <point x="127" y="460" type="line"/>
      <point x="234" y="460" type="line"/>
      <point x="154" y="0" type="line"/>
      <point x="50" y="0" type="line"/>
    </contour>
    <contour>
      <point x="212" y="628" type="line"/>
      <point x="96" y="538" type="line"/>
      <point x="32" y="592" type="line"/>
      <point x="224" y="730" type="line"/>
      <point x="373" y="588" type="line"/>
      <point x="296" y="538" type="line"/>
    </contour>
  </outline>
</glyph>
<glyph name="idieresis" format="2">
  <advance width="258"/>
  <unicode hex="00EF"/>
  <outline>
    <contour>
      <point x="127" y="460" type="line"/>
      <point x="234" y="460" type="line"/>
      <point x="154" y="0" type="line"/>
      <point x="50" y="0" type="line"/>
    </contour>
    <contour>
      <point x="246" y="620" type="curve" smooth="yes"/>
      <point x="250" y="654"/>
      <point x="287" y="685"/>
      <point x="322" y="684" type="curve" smooth="yes"/>
      <point x="358" y="683"/>
      <point x="384" y="653"/>
      <point x="380" y="618" type="curve" smooth="yes"/>
      <point x="376" y="584"/>
      <point x="339" y="553"/>
      <point x="304" y="554" type="curve" smooth="yes"/>
      <point x="268" y="555"/>
      <point x="242" y="585"/>
    </contour>
    <contour>
      <point x="35" y="620" type="curve" smooth="yes"/>
      <point x="39" y="654"/>
      <point x="76" y="685"/>
      <point x="111" y="684" type="curve" smooth="yes"/>
      <point x="147" y="683"/>
      <point x="174" y="653"/>
      <point x="170" y="618" type="curve" smooth="yes"/>
      <point x="166" y="584"/>
      <point x="128" y="553"/>
      <point x="93" y="554" type="curve" smooth="yes"/>
      <point x="57" y="555"/>
      <point x="31" y="585"/>
    </contour>
  </outline>
</glyph>
<glyph name="eth" format="2">
  <advance width="596"/>
  <unicode hex="00F0"/>
  <outline>
    <contour>
      <point x="276" y="-12" type="curve" smooth="yes"/>
      <point x="143" y="-12"/>
      <point x="51" y="74"/>
      <point x="51" y="208" type="curve" smooth="yes"/>
      <point x="51" y="354"/>
      <point x="173" y="463"/>
      <point x="299" y="463" type="curve" smooth="yes"/>
      <point x="368" y="463"/>
      <point x="423" y="432"/>
      <point x="481" y="369" type="curve"/>
      <point x="440" y="370" type="line"/>
      <point x="396" y="490"/>
      <point x="329" y="577"/>
      <point x="206" y="675" type="curve"/>
      <point x="280" y="739" type="line"/>
      <point x="480" y="555"/>
      <point x="555" y="420"/>
      <point x="555" y="276" type="curve" smooth="yes"/>
      <point x="555" y="126"/>
      <point x="446" y="-12"/>
    </contour>
    <contour>
      <point x="280" y="88" type="curve" smooth="yes"/>
      <point x="374" y="88"/>
      <point x="439" y="169"/>
      <point x="439" y="252" type="curve" smooth="yes"/>
      <point x="439" y="330"/>
      <point x="392" y="376"/>
      <point x="324" y="376" type="curve" smooth="yes"/>
      <point x="242" y="376"/>
      <point x="164" y="302"/>
      <point x="164" y="210" type="curve" smooth="yes"/>
      <point x="164" y="137"/>
      <point x="211" y="88"/>
    </contour>
    <contour>
      <point x="220" y="505" type="line"/>
      <point x="203" y="555" type="line"/>
      <point x="510" y="664" type="line"/>
      <point x="528" y="614" type="line"/>
    </contour>
  </outline>
</glyph>
<glyph name="ntilde" format="2">
  <advance width="528"/>
  <unicode hex="00F1"/>
  <outline>
    <contour>
      <point x="225" y="460" type="line"/>
      <point x="146" y="0" type="line"/>
      <point x="38" y="0" type="line"/>
      <point x="118" y="460" type="line"/>
    </contour>
    <contour>
      <point x="376" y="280" type="line"/>
      <point x="382" y="334"/>
      <point x="371" y="380"/>
      <point x="313" y="382" type="curve" smooth="yes"/>
      <point x="251" y="384"/>
      <point x="208" y="335"/>
      <point x="194" y="281" type="curve"/>
      <point x="160" y="279" type="line"/>
      <point x="180" y="379"/>
      <point x="250" y="470"/>
      <point x="356" y="470" type="curve" smooth="yes"/>
      <point x="460" y="470"/>
      <point x="498" y="393"/>
      <point x="486" y="292" type="curve"/>
      <point x="436" y="0" type="line"/>
      <point x="326" y="0" type="line"/>
    </contour>
    <contour>
      <point x="164" y="580" type="line"/>
      <point x="184" y="624"/>
      <point x="229" y="668"/>
      <point x="283" y="666" type="curve" smooth="yes"/>
      <point x="336" y="665"/>
      <point x="352" y="616"/>
      <point x="400" y="618" type="curve" smooth="yes"/>
      <point x="426" y="619"/>
      <point x="447" y="641"/>
      <point x="467" y="666" type="curve"/>
      <point x="515" y="610" type="line"/>
      <point x="491" y="574"/>
      <point x="444" y="532"/>
      <point x="390" y="534" type="curve" smooth="yes"/>
      <point x="342" y="536"/>
      <point x="319" y="584"/>
      <point x="275" y="582" type="curve" smooth="yes"/>
      <point x="240" y="580"/>
      <point x="225" y="550"/>
      <point x="217" y="532" type="curve"/>
    </contour>
  </outline>
</glyph>
<glyph name="ograve" format="2">
  <advance width="546"/>
  <unicode hex="00F2"/>
  <outline>
    <contour>
      <point x="44" y="230" type="curve" smooth="yes"/>
      <point x="64" y="365"/>
      <point x="183" y="470"/>
      <point x="323" y="470" type="curve" smooth="yes"/>
      <point x="461" y="470"/>
      <point x="547" y="362"/>
      <point x="528" y="230" type="curve" smooth="yes"/>
      <point x="508" y="95"/>
      <point x="388" y="-10"/>
      <point x="248" y="-10" type="curve" smooth="yes"/>
      <point x="110" y="-10"/>
      <point x="25" y="98"/>
    </contour>
    <contour>
      <point x="153" y="230" type="curve" smooth="yes"/>
      <point x="141" y="156"/>
      <point x="180" y="86"/>
      <point x="258" y="86" type="curve" smooth="yes"/>
      <point x="338" y="86"/>
      <point x="405" y="151"/>
      <point x="418" y="230" type="curve" smooth="yes"/>
      <point x="430" y="304"/>
      <point x="392" y="374"/>
      <point x="314" y="374" type="curve" smooth="yes"/>
      <point x="234" y="374"/>
      <point x="166" y="309"/>
    </contour>
    <contour>
      <point x="210" y="696" type="line"/>
      <point x="304" y="740" type="line"/>
      <point x="424" y="578" type="line"/>
      <point x="362" y="545" type="line"/>
    </contour>
  </outline>
</glyph>
<glyph name="ocircumflex" format="2">
  <advance width="546"/>
  <unicode hex="00F4"/>
  <outline>
    <contour>
      <point x="44" y="230" type="curve" smooth="yes"/>
      <point x="64" y="365"/>
      <point x="183" y="470"/>
      <point x="323" y="470" type="curve" smooth="yes"/>
      <point x="461" y="470"/>
      <point x="547" y="362"/>
      <point x="528" y="230" type="curve" smooth="yes"/>
      <point x="508" y="95"/>
      <point x="388" y="-10"/>
      <point x="248" y="-10" type="curve" smooth="yes"/>
      <point x="110" y="-10"/>
      <point x="25" y="98"/>
    </contour>
    <contour>
      <point x="153" y="230" type="curve" smooth="yes"/>
      <point x="141" y="156"/>
      <point x="180" y="86"/>
      <point x="258" y="86" type="curve" smooth="yes"/>
      <point x="338" y="86"/>
      <point x="405" y="151"/>
      <point x="418" y="230" type="curve" smooth="yes"/>
      <point x="430" y="304"/>
      <point x="392" y="374"/>
      <point x="314" y="374" type="curve" smooth="yes"/>
      <point x="234" y="374"/>
      <point x="166" y="309"/>
    </contour>
    <contour>
      <point x="358" y="636" type="line"/>
      <point x="242" y="546" type="line"/>
      <point x="178" y="600" type="line"/>
      <point x="370" y="738" type="line"/>
      <point x="518" y="596" type="line"/>
      <point x="442" y="545" type="line"/>
    </contour>
  </outline>
</glyph>
<glyph name="otilde" format="2">
  <advance width="546"/>
  <unicode hex="00F5"/>
  <outline>
    <contour>
      <point x="44" y="230" type="curve" smooth="yes"/>
      <point x="64" y="365"/>
      <point x="183" y="470"/>
      <point x="323" y="470" type="curve" smooth="yes"/>
      <point x="461" y="470"/>
      <point x="547" y="362"/>
      <point x="528" y="230" type="curve" smooth="yes"/>
      <point x="508" y="95"/>
      <point x="388" y="-10"/>
      <point x="248" y="-10" type="curve" smooth="yes"/>
      <point x="110" y="-10"/>
      <point x="25" y="98"/>
    </contour>
    <contour>
      <point x="153" y="230" type="curve" smooth="yes"/>
      <point x="141" y="156"/>
      <point x="180" y="86"/>
      <point x="258" y="86" type="curve" smooth="yes"/>
      <point x="338" y="86"/>
      <point x="405" y="151"/>
      <point x="418" y="230" type="curve" smooth="yes"/>
      <point x="430" y="304"/>
      <point x="392" y="374"/>
      <point x="314" y="374" type="curve" smooth="yes"/>
      <point x="234" y="374"/>
      <point x="166" y="309"/>
    </contour>
    <contour>
      <point x="172" y="580" type="line"/>
      <point x="172" y="626"/>
      <point x="249" y="666"/>
      <point x="291" y="666" type="curve" smooth="yes"/>
      <point x="344" y="665"/>
      <point x="360" y="616"/>
      <point x="408" y="618" type="curve" smooth="yes"/>
      <point x="434" y="619"/>
      <point x="456" y="641"/>
      <point x="476" y="666" type="curve"/>
      <point x="524" y="610" type="line"/>
      <point x="500" y="574"/>
      <point x="454" y="532"/>
      <point x="400" y="534" type="curve" smooth="yes"/>
      <point x="352" y="536"/>
      <point x="326" y="584"/>
      <point x="282" y="582" type="curve" smooth="yes"/>
      <point x="247" y="580"/>
      <point x="234" y="550"/>
      <point x="226" y="532" type="curve"/>
    </contour>
  </outline>
</glyph>
<glyph name="odieresis" format="2">
  <advance width="546"/>
  <unicode hex="00F6"/>
  <outline>
    <contour>
      <point x="44" y="230" type="curve" smooth="yes"/>
      <point x="64" y="365"/>
      <point x="183" y="470"/>
      <point x="323" y="470" type="curve" smooth="yes"/>
      <point x="461" y="470"/>
      <point x="547" y="362"/>
      <point x="528" y="230" type="curve" smooth="yes"/>
      <point x="508" y="95"/>
      <point x="388" y="-10"/>
      <point x="248" y="-10" type="curve" smooth="yes"/>
      <point x="110" y="-10"/>
      <point x="25" y="98"/>
    </contour>
    <contour>
      <point x="153" y="230" type="curve" smooth="yes"/>
      <point x="141" y="156"/>
      <point x="180" y="86"/>
      <point x="258" y="86" type="curve" smooth="yes"/>
      <point x="338" y="86"/>
      <point x="405" y="151"/>
      <point x="418" y="230" type="curve" smooth="yes"/>
      <point x="430" y="304"/>
      <point x="392" y="374"/>
      <point x="314" y="374" type="curve" smooth="yes"/>
      <point x="234" y="374"/>
      <point x="166" y="309"/>
    </contour>
    <contour>
      <point x="390" y="620" type="curve" smooth="yes"/>
      <point x="394" y="654"/>
      <point x="432" y="685"/>
      <point x="467" y="684" type="curve" smooth="yes"/>
      <point x="503" y="683"/>
      <point x="528" y="653"/>
      <point x="524" y="618" type="curve" smooth="yes"/>
      <point x="520" y="584"/>
      <point x="483" y="553"/>
      <point x="448" y="554" type="curve" smooth="yes"/>
      <point x="412" y="555"/>
      <point x="386" y="585"/>
    </contour>
    <contour>
      <point x="180" y="620" type="curve" smooth="yes"/>
      <point x="184" y="654"/>
      <point x="221" y="685"/>
      <point x="256" y="684" type="curve" smooth="yes"/>
      <point x="292" y="683"/>
      <point x="317" y="653"/>
      <point x="313" y="618" type="curve" smooth="yes"/>
      <point x="309" y="584"/>
      <point x="272" y="553"/>
      <point x="237" y="554" type="curve" smooth="yes"/>
      <point x="201" y="555"/>
      <point x="176" y="585"/>
    </contour>
  </outline>
</glyph>
<glyph name="divide" format="2">
  <advance width="610"/>
  <unicode hex="00F7"/>
  <outline>
    <contour>
      <point x="292" y="492" type="curve" smooth="yes"/>
      <point x="296" y="528"/>
      <point x="333" y="561"/>
      <point x="371" y="560" type="curve" smooth="yes"/>
      <point x="409" y="559"/>
      <point x="435" y="526"/>
      <point x="431" y="490" type="curve" smooth="yes"/>
      <point x="427" y="454"/>
      <point x="390" y="421"/>
      <point x="352" y="422" type="curve" smooth="yes"/>
      <point x="314" y="423"/>
      <point x="288" y="456"/>
    </contour>
    <contour>
      <point x="222" y="82" type="curve" smooth="yes"/>
      <point x="226" y="118"/>
      <point x="264" y="151"/>
      <point x="302" y="150" type="curve" smooth="yes"/>
      <point x="340" y="149"/>
      <point x="364" y="116"/>
      <point x="360" y="80" type="curve" smooth="yes"/>
      <point x="356" y="44"/>
      <point x="320" y="11"/>
      <point x="282" y="12" type="curve" smooth="yes"/>
      <point x="244" y="13"/>
      <point x="218" y="46"/>
    </contour>
    <contour>
      <point x="58" y="240" type="line"/>
      <point x="76" y="341" type="line"/>
      <point x="597" y="341" type="line"/>
      <point x="579" y="239" type="line"/>
    </contour>
  </outline>
</glyph>
<glyph name="oslash" format="2">
  <advance width="529"/>
  <unicode hex="00F8"/>
  <outline>
    <contour>
      <point x="44" y="230" type="curve" smooth="yes"/>
      <point x="64" y="367"/>
      <point x="183" y="470"/>
      <point x="323" y="470" type="curve" smooth="yes"/>
      <point x="461" y="470"/>
      <point x="547" y="363"/>
      <point x="528" y="230" type="curve" smooth="yes"/>
      <point x="508" y="93"/>
      <point x="388" y="-10"/>
      <point x="248" y="-10" type="curve" smooth="yes"/>
      <point x="110" y="-10"/>
      <point x="25" y="97"/>
    </contour>
    <contour>
      <point x="148" y="230" type="curve" smooth="yes"/>
      <point x="136" y="153"/>
      <point x="177" y="84"/>
      <point x="257" y="84" type="curve" smooth="yes"/>
      <point x="339" y="84"/>
      <point x="409" y="148"/>
      <point x="423" y="230" type="curve" smooth="yes"/>
      <point x="435" y="306"/>
      <point x="394" y="376"/>
      <point x="314" y="376" type="curve" smooth="yes"/>
      <point x="232" y="376"/>
      <point x="162" y="310"/>
    </contour>
    <contour>
      <point x="489" y="502" type="line"/>
      <point x="537" y="476" type="line"/>
      <point x="70" y="-46" type="line"/>
      <point x="23" y="-20" type="line"/>
    </contour>
  </outline>
</glyph>
<glyph name="uacute" format="2">
  <advance width="528"/>
  <unicode hex="00FA"/>
  <outline>
    <contour>
      <point x="328" y="0" type="line"/>
      <point x="408" y="460" type="line"/>
      <point x="515" y="460" type="line"/>
      <point x="436" y="0" type="line"/>
    </contour>
    <contour>
      <point x="178" y="180" type="line"/>
      <point x="172" y="126"/>
      <point x="182" y="80"/>
      <point x="240" y="78" type="curve" smooth="yes"/>
      <point x="302" y="76"/>
      <point x="346" y="125"/>
      <point x="360" y="179" type="curve"/>
      <point x="394" y="181" type="line"/>
      <point x="374" y="81"/>
      <point x="303" y="-10"/>
      <point x="197" y="-10" type="curve" smooth="yes"/>
      <point x="93" y="-10"/>
      <point x="56" y="67"/>
      <point x="68" y="168" type="curve"/>
      <point x="118" y="460" type="line"/>
      <point x="226" y="460" type="line"/>
    </contour>
    <contour>
      <point x="482" y="692" type="line"/>
      <point x="284" y="546" type="line"/>
      <point x="228" y="582" type="line"/>
      <point x="399" y="740" type="line"/>
    </contour>
  </outline>
</glyph>
<glyph name="ucircumflex" format="2">
  <advance width="528"/>
  <unicode hex="00FB"/>
  <outline>
    <contour>
      <point x="328" y="0" type="line"/>
      <point x="408" y="460" type="line"/>
      <point x="515" y="460" type="line"/>
      <point x="436" y="0" type="line"/>
    </contour>
    <contour>
      <point x="178" y="180" type="line"/>
      <point x="172" y="126"/>
      <point x="182" y="80"/>
      <point x="240" y="78" type="curve" smooth="yes"/>
      <point x="302" y="76"/>
      <point x="346" y="125"/>
      <point x="360" y="179" type="curve"/>
      <point x="394" y="181" type="line"/>
      <point x="374" y="81"/>
      <point x="303" y="-10"/>
      <point x="197" y="-10" type="curve" smooth="yes"/>
      <point x="93" y="-10"/>
      <point x="56" y="67"/>
      <point x="68" y="168" type="curve"/>
      <point x="118" y="460" type="line"/>
      <point x="226" y="460" type="line"/>
    </contour>
    <contour>
      <point x="348" y="636" type="line"/>
      <point x="233" y="546" type="line"/>
      <point x="168" y="600" type="line"/>
      <point x="360" y="738" type="line"/>
      <point x="510" y="596" type="line"/>
      <point x="432" y="545" type="line"/>
    </contour>
  </outline>
</glyph>
<glyph name="udieresis" format="2">
  <advance width="528"/>
  <unicode hex="00FC"/>
  <outline>
    <contour>
      <point x="328" y="0" type="line"/>
      <point x="408" y="460" type="line"/>
      <point x="515" y="460" type="line"/>
      <point x="436" y="0" type="line"/>
    </contour>
    <contour>
      <point x="178" y="180" type="line"/>
      <point x="172" y="126"/>
      <point x="182" y="80"/>
      <point x="240" y="78" type="curve" smooth="yes"/>
      <point x="302" y="76"/>
      <point x="346" y="125"/>
      <point x="360" y="179" type="curve"/>
      <point x="394" y="181" type="line"/>
      <point x="374" y="81"/>
      <point x="303" y="-10"/>
      <point x="197" y="-10" type="curve" smooth="yes"/>
      <point x="93" y="-10"/>
      <point x="56" y="67"/>
      <point x="68" y="168" type="curve"/>
      <point x="118" y="460" type="line"/>
      <point x="226" y="460" type="line"/>
    </contour>
    <contour>
      <point x="381" y="612" type="curve" smooth="yes"/>
      <point x="385" y="646"/>
      <point x="421" y="677"/>
      <point x="456" y="676" type="curve" smooth="yes"/>
      <point x="492" y="675"/>
      <point x="518" y="645"/>
      <point x="514" y="610" type="curve" smooth="yes"/>
      <point x="510" y="576"/>
      <point x="473" y="545"/>
      <point x="438" y="546" type="curve" smooth="yes"/>
      <point x="402" y="547"/>
      <point x="377" y="577"/>
    </contour>
    <contour>
      <point x="170" y="612" type="curve" smooth="yes"/>
      <point x="174" y="646"/>
      <point x="211" y="677"/>
      <point x="246" y="676" type="curve" smooth="yes"/>
      <point x="282" y="675"/>
      <point x="307" y="645"/>
      <point x="303" y="610" type="curve" smooth="yes"/>
      <point x="299" y="576"/>
      <point x="262" y="545"/>
      <point x="227" y="546" type="curve" smooth="yes"/>
      <point x="191" y="547"/>
      <point x="166" y="577"/>
    </contour>
  </outline>
</glyph>
<glyph name="yacute" format="2">
  <advance width="457"/>
  <unicode hex="00FD"/>
  <outline>
    <contour>
      <point x="516" y="460" type="line"/>
      <point x="108" y="-220" type="line"/>
      <point x="-8" y="-220" type="line"/>
      <point x="160" y="57" type="line"/>
      <point x="48" y="460" type="line"/>
      <point x="168" y="460" type="line"/>
      <point x="248" y="96" type="line"/>
      <point x="198" y="100" type="line"/>
      <point x="399" y="460" type="line"/>
    </contour>
    <contour>
      <point x="460" y="692" type="line"/>
      <point x="262" y="546" type="line"/>
      <point x="204" y="582" type="line"/>
      <point x="375" y="740" type="line"/>
    </contour>
  </outline>
</glyph>
<glyph name="thorn" format="2">
  <advance width="570"/>
  <unicode hex="00FE"/>
  <outline>
    <contour>
      <point x="106" y="-220" type="line"/>
      <point x="-4" y="-220" type="line"/>
      <point x="168" y="780" type="line"/>
      <point x="276" y="780" type="line"/>
    </contour>
    <contour>
      <point x="552" y="230" type="curve" smooth="yes"/>
      <point x="533" y="94"/>
      <point x="423" y="-11"/>
      <point x="296" y="-10" type="curve" smooth="yes"/>
      <point x="172" y="-9"/>
      <point x="126" y="106"/>
      <point x="142" y="230" type="curve" smooth="yes"/>
      <point x="160" y="361"/>
      <point x="248" y="470"/>
      <point x="370" y="470" type="curve" smooth="yes"/>
      <point x="497" y="470"/>
      <point x="570" y="360"/>
    </contour>
    <contour>
      <point x="442" y="230" type="curve" smooth="yes"/>
      <point x="454" y="308"/>
      <point x="414" y="376"/>
      <point x="336" y="376" type="curve" smooth="yes"/>
      <point x="265" y="376"/>
      <point x="194" y="312"/>
      <point x="181" y="230" type="curve" smooth="yes"/>
      <point x="171" y="153"/>
      <point x="210" y="86"/>
      <point x="280" y="84" type="curve" smooth="yes"/>
      <point x="358" y="82"/>
      <point x="429" y="148"/>
    </contour>
  </outline>
</glyph>
<glyph name="ydieresis" format="2">
  <advance width="457"/>
  <unicode hex="00FF"/>
  <outline>
    <contour>
      <point x="516" y="460" type="line"/>
      <point x="108" y="-220" type="line"/>
      <point x="-8" y="-220" type="line"/>
      <point x="160" y="57" type="line"/>
      <point x="48" y="460" type="line"/>
      <point x="168" y="460" type="line"/>
      <point x="248" y="96" type="line"/>
      <point x="198" y="100" type="line"/>
      <point x="399" y="460" type="line"/>
    </contour>
    <contour>
      <point x="342" y="597" type="curve" smooth="yes"/>
      <point x="346" y="631"/>
      <point x="384" y="663"/>
      <point x="419" y="662" type="curve" smooth="yes"/>
      <point x="455" y="661"/>
      <point x="480" y="630"/>
      <point x="476" y="595" type="curve" smooth="yes"/>
      <point x="472" y="561"/>
      <point x="435" y="529"/>
      <point x="400" y="530" type="curve" smooth="yes"/>
      <point x="364" y="531"/>
      <point x="338" y="562"/>
    </contour>
    <contour>
      <point x="132" y="597" type="curve" smooth="yes"/>
      <point x="136" y="631"/>
      <point x="173" y="663"/>
      <point x="208" y="662" type="curve" smooth="yes"/>
      <point x="244" y="661"/>
      <point x="270" y="630"/>
      <point x="266" y="595" type="curve" smooth="yes"/>
      <point x="262" y="561"/>
      <point x="225" y="529"/>
      <point x="190" y="530" type="curve" smooth="yes"/>
      <point x="154" y="531"/>
      <point x="128" y="562"/>
    </contour>
  </outline>
</glyph>
<glyph name="Amacron" format="2">
  <advance width="669"/>
  <unicode hex="0100"/>
  <outline>
    <contour>
      <point x="160" y="181" type="line"/>
      <point x="199" y="280" type="line"/>
      <point x="516" y="280" type="line"/>
      <point x="521" y="180" type="line"/>
    </contour>
    <contour>
      <point x="396" y="502" type="line"/>
      <point x="245" y="245" type="line"/>
      <point x="239" y="219" type="line"/>
      <point x="107" y="0" type="line"/>
      <point x="-28" y="0" type="line"/>
      <point x="434" y="740" type="line"/>
      <point x="639" y="0" type="line"/>
      <point x="511" y="0" type="line"/>
      <point x="454" y="213" type="line"/>
      <point x="458" y="242" type="line"/>
    </contour>
    <contour>
      <point x="270" y="800" type="line"/>
      <point x="286" y="896" type="line"/>
      <point x="636" y="896" type="line"/>
      <point x="620" y="799" type="line"/>
    </contour>
  </outline>
</glyph>
<glyph name="Abreve" format="2">
  <advance width="669"/>
  <unicode hex="0102"/>
  <outline>
    <contour>
      <point x="160" y="181" type="line"/>
      <point x="199" y="280" type="line"/>
      <point x="516" y="280" type="line"/>
      <point x="521" y="180" type="line"/>
    </contour>
    <contour>
      <point x="396" y="502" type="line"/>
      <point x="245" y="245" type="line"/>
      <point x="239" y="219" type="line"/>
      <point x="107" y="0" type="line"/>
      <point x="-28" y="0" type="line"/>
      <point x="434" y="740" type="line"/>
      <point x="639" y="0" type="line"/>
      <point x="511" y="0" type="line"/>
      <point x="454" y="213" type="line"/>
      <point x="458" y="242" type="line"/>
    </contour>
    <contour>
      <point x="311" y="941" type="curve"/>
      <point x="391" y="940" type="line"/>
      <point x="390" y="908"/>
      <point x="403" y="873"/>
      <point x="453" y="872" type="curve" smooth="yes"/>
      <point x="505" y="871"/>
      <point x="530" y="908"/>
      <point x="542" y="940" type="curve"/>
      <point x="624" y="940" type="line"/>
      <point x="606" y="864"/>
      <point x="546" y="800"/>
      <point x="448" y="800" type="curve" smooth="yes"/>
      <point x="351" y="800"/>
      <point x="305" y="864"/>
    </contour>
  </outline>
</glyph>
<glyph name="abreve" format="2">
  <advance width="570"/>
  <unicode hex="0103"/>
  <outline>
    <contour>
      <point x="456" y="460" type="line"/>
      <point x="562" y="460" type="line"/>
      <point x="482" y="0" type="line"/>
      <point x="379" y="0" type="line"/>
    </contour>
    <contour>
      <point x="44" y="230" type="curve" smooth="yes"/>
      <point x="63" y="366"/>
      <point x="173" y="471"/>
      <point x="300" y="470" type="curve" smooth="yes"/>
      <point x="424" y="469"/>
      <point x="469" y="354"/>
      <point x="453" y="230" type="curve" smooth="yes"/>
      <point x="435" y="99"/>
      <point x="348" y="-10"/>
      <point x="226" y="-10" type="curve" smooth="yes"/>
      <point x="99" y="-10"/>
      <point x="26" y="100"/>
    </contour>
    <contour>
      <point x="154" y="230" type="curve" smooth="yes"/>
      <point x="142" y="152"/>
      <point x="182" y="84"/>
      <point x="260" y="84" type="curve" smooth="yes"/>
      <point x="331" y="84"/>
      <point x="401" y="148"/>
      <point x="414" y="230" type="curve" smooth="yes"/>
      <point x="424" y="307"/>
      <point x="386" y="374"/>
      <point x="316" y="376" type="curve" smooth="yes"/>
      <point x="238" y="378"/>
      <point x="167" y="312"/>
    </contour>
    <contour>
      <point x="185" y="672" type="curve"/>
      <point x="265" y="672" type="line"/>
      <point x="265" y="640"/>
      <point x="278" y="605"/>
      <point x="328" y="604" type="curve" smooth="yes"/>
      <point x="380" y="603"/>
      <point x="404" y="640"/>
      <point x="416" y="672" type="curve"/>
      <point x="498" y="672" type="line"/>
      <point x="480" y="596"/>
      <point x="421" y="530"/>
      <point x="323" y="530" type="curve" smooth="yes"/>
      <point x="227" y="530"/>
      <point x="181" y="594"/>
    </contour>
  </outline>
</glyph>
<glyph name="Aogonek" format="2">
  <advance width="669"/>
  <unicode hex="0104"/>
  <outline>
    <contour>
      <point x="160" y="181" type="line"/>
      <point x="199" y="280" type="line"/>
      <point x="516" y="280" type="line"/>
      <point x="521" y="180" type="line"/>
    </contour>
    <contour>
      <point x="396" y="502" type="line"/>
      <point x="245" y="245" type="line"/>
      <point x="239" y="219" type="line"/>
      <point x="107" y="0" type="line"/>
      <point x="-28" y="0" type="line"/>
      <point x="434" y="740" type="line"/>
      <point x="639" y="0" type="line"/>
      <point x="511" y="0" type="line"/>
      <point x="454" y="213" type="line"/>
      <point x="458" y="242" type="line"/>
    </contour>
    <contour>
      <point x="603" y="-122" type="curve"/>
      <point x="627" y="-182" type="line"/>
      <point x="605" y="-202"/>
      <point x="574" y="-220"/>
      <point x="532" y="-220" type="curve" smooth="yes"/>
      <point x="464" y="-220"/>
      <point x="421" y="-181"/>
      <point x="429" y="-120" type="curve" smooth="yes"/>
      <point x="440" y="-52"/>
      <point x="516" y="-9"/>
      <point x="582" y="24" type="curve"/>
      <point x="622" y="0" type="line"/>
      <point x="576" y="-24"/>
      <point x="526" y="-56"/>
      <point x="519" y="-98" type="curve" smooth="yes"/>
      <point x="517" y="-124"/>
      <point x="525" y="-140"/>
      <point x="550" y="-142" type="curve" smooth="yes"/>
      <point x="571" y="-144"/>
      <point x="589" y="-132"/>
    </contour>
  </outline>
</glyph>
<glyph name="cacute" format="2">
  <advance width="469"/>
  <unicode hex="0107"/>
  <outline>
    <contour>
      <point x="149" y="230" type="curve" smooth="yes"/>
      <point x="137" y="153"/>
      <point x="180" y="86"/>
      <point x="260" y="84" type="curve" smooth="yes"/>
      <point x="326" y="83"/>
      <point x="385" y="118"/>
      <point x="421" y="160" type="curve"/>
      <point x="403" y="42" type="line"/>
      <point x="363" y="10"/>
      <point x="308" y="-10"/>
      <point x="246" y="-10" type="curve" smooth="yes"/>
      <point x="108" y="-10"/>
      <point x="21" y="98"/>
      <point x="40" y="230" type="curve" smooth="yes"/>
      <point x="60" y="366"/>
      <point x="178" y="470"/>
      <point x="320" y="470" type="curve" smooth="yes"/>
      <point x="379" y="470"/>
      <point x="430" y="450"/>
      <point x="466" y="418" type="curve"/>
      <point x="447" y="299" type="line"/>
      <point x="425" y="347"/>
      <point x="376" y="376"/>
      <point x="316" y="376" type="curve" smooth="yes"/>
      <point x="234" y="376"/>
      <point x="163" y="310"/>
    </contour>
    <contour>
      <point x="487" y="678" type="line"/>
      <point x="288" y="531" type="line"/>
      <point x="232" y="567" type="line"/>
      <point x="402" y="724" type="line"/>
    </contour>
  </outline>
</glyph>
<glyph name="ccircumflex" format="2">
  <advance width="469"/>
  <unicode hex="0109"/>
  <outline>
    <contour>
      <point x="149" y="230" type="curve" smooth="yes"/>
      <point x="137" y="153"/>
      <point x="180" y="86"/>
      <point x="260" y="84" type="curve" smooth="yes"/>
      <point x="326" y="83"/>
      <point x="385" y="118"/>
      <point x="421" y="160" type="curve"/>
      <point x="403" y="42" type="line"/>
      <point x="363" y="10"/>
      <point x="308" y="-10"/>
      <point x="246" y="-10" type="curve" smooth="yes"/>
      <point x="108" y="-10"/>
      <point x="21" y="98"/>
      <point x="40" y="230" type="curve" smooth="yes"/>
      <point x="60" y="366"/>
      <point x="178" y="470"/>
      <point x="320" y="470" type="curve" smooth="yes"/>
      <point x="379" y="470"/>
      <point x="430" y="450"/>
      <point x="466" y="418" type="curve"/>
      <point x="447" y="299" type="line"/>
      <point x="425" y="347"/>
      <point x="376" y="376"/>
      <point x="316" y="376" type="curve" smooth="yes"/>
      <point x="234" y="376"/>
      <point x="163" y="310"/>
    </contour>
    <contour>
      <point x="341" y="620" type="line"/>
      <point x="225" y="530" type="line"/>
      <point x="161" y="585" type="line"/>
      <point x="352" y="723" type="line"/>
      <point x="502" y="582" type="line"/>
      <point x="424" y="530" type="line"/>
    </contour>
  </outline>
</glyph>
<glyph name="Ccaron" format="2">
  <advance width="670"/>
  <unicode hex="010C"/>
  <outline>
    <contour>
      <point x="194" y="350" type="curve" smooth="yes"/>
      <point x="174" y="220"/>
      <point x="248" y="106"/>
      <point x="380" y="104" type="curve" smooth="yes"/>
      <point x="475" y="103"/>
      <point x="552" y="148"/>
      <point x="612" y="202" type="curve"/>
      <point x="591" y="62" type="line"/>
      <point x="527" y="16"/>
      <point x="457" y="-12"/>
      <point x="364" y="-12" type="curve" smooth="yes"/>
      <point x="160" y="-11"/>
      <point x="40" y="156"/>
      <point x="68" y="350" type="curve" smooth="yes"/>
      <point x="99" y="553"/>
      <point x="272" y="712"/>
      <point x="480" y="712" type="curve" smooth="yes"/>
      <point x="568" y="712"/>
      <point x="632" y="688"/>
      <point x="688" y="638" type="curve"/>
      <point x="666" y="497" type="line"/>
      <point x="624" y="557"/>
      <point x="560" y="596"/>
      <point x="472" y="596" type="curve" smooth="yes"/>
      <point x="338" y="596"/>
      <point x="217" y="488"/>
    </contour>
    <contour>
      <point x="508" y="874" type="line"/>
      <point x="624" y="964" type="line"/>
      <point x="688" y="910" type="line"/>
      <point x="496" y="772" type="line"/>
      <point x="348" y="914" type="line"/>
      <point x="425" y="965" type="line"/>
    </contour>
  </outline>
</glyph>
<glyph name="Dcroat" format="2">
  <advance width="680"/>
  <unicode hex="0110"/>
  <outline>
    <contour>
      <point x="30" y="306" type="line"/>
      <point x="44" y="390" type="line"/>
      <point x="354" y="390" type="line"/>
      <point x="340" y="305" type="line"/>
    </contour>
    <contour>
      <point x="166" y="700" type="line"/>
      <point x="287" y="700" type="line"/>
      <point x="166" y="0" type="line"/>
      <point x="48" y="0" type="line"/>
    </contour>
    <contour>
      <point x="272" y="0" type="curve"/>
      <point x="118" y="0" type="line"/>
      <point x="138" y="111" type="line"/>
      <point x="280" y="111" type="line"/>
      <point x="421" y="114"/>
      <point x="534" y="204"/>
      <point x="558" y="350" type="curve" smooth="yes"/>
      <point x="580" y="490"/>
      <point x="507" y="585"/>
      <point x="369" y="589" type="curve"/>
      <point x="218" y="589" type="line"/>
      <point x="238" y="700" type="line"/>
      <point x="384" y="700" type="line"/>
      <point x="590" y="696"/>
      <point x="708" y="546"/>
      <point x="678" y="350" type="curve" smooth="yes"/>
      <point x="646" y="146"/>
      <point x="483" y="3"/>
    </contour>
  </outline>
</glyph>
